<svg width="86" height="76" viewBox="0 0 86 76" fill="none" xmlns="http://www.w3.org/2000/svg">
<g filter="url(#filter0_i_4864_6610)">
<mask id="path-1-inside-1_4864_6610" fill="white">
<path d="M0 6H86V70C86 73.3137 83.3137 76 80 76H6C2.68629 76 0 73.3137 0 70L0 6Z"/>
</mask>
<path d="M0 6H86V70C86 73.3137 83.3137 76 80 76H6C2.68629 76 0 73.3137 0 70L0 6Z" fill="url(#paint0_linear_4864_6610)"/>
<path d="M0 5H86V7H0L0 5ZM86 76H0H86ZM0 76L0 6L0 76ZM86 6V76V6Z" fill="white" fill-opacity="0.4" mask="url(#path-1-inside-1_4864_6610)"/>
</g>
<path d="M78 6L73 6V2C73 0.895431 73.8954 0 75 0H76C77.1046 0 78 0.895431 78 2V6Z" fill="#878888"/>
<path d="M73 7H78V11C78 12.1046 77.1046 13 76 13H75C73.8954 13 73 12.1046 73 11V7Z" fill="white" fill-opacity="0.4"/>
<path d="M13 6L8 6V2C8 0.895431 8.89543 0 10 0H11C12.1046 0 13 0.895431 13 2V6Z" fill="#878888"/>
<path d="M8 7H13V11C13 12.1046 12.1046 13 11 13H10C8.89543 13 8 12.1046 8 11V7Z" fill="white" fill-opacity="0.4"/>
<defs>
<filter id="filter0_i_4864_6610" x="0" y="6" width="86" height="74" filterUnits="userSpaceOnUse" color-interpolation-filters="sRGB">
<feFlood flood-opacity="0" result="BackgroundImageFix"/>
<feBlend mode="normal" in="SourceGraphic" in2="BackgroundImageFix" result="shape"/>
<feColorMatrix in="SourceAlpha" type="matrix" values="0 0 0 0 0 0 0 0 0 0 0 0 0 0 0 0 0 0 127 0" result="hardAlpha"/>
<feOffset dy="4"/>
<feGaussianBlur stdDeviation="2"/>
<feComposite in2="hardAlpha" operator="arithmetic" k2="-1" k3="1"/>
<feColorMatrix type="matrix" values="0 0 0 0 1 0 0 0 0 1 0 0 0 0 1 0 0 0 0.15 0"/>
<feBlend mode="normal" in2="shape" result="effect1_innerShadow_4864_6610"/>
</filter>
<linearGradient id="paint0_linear_4864_6610" x1="23.5" y1="6" x2="49" y2="76" gradientUnits="userSpaceOnUse">
<stop stop-color="white" stop-opacity="0.05"/>
<stop offset="1" stop-color="white" stop-opacity="0.15"/>
</linearGradient>
</defs>
</svg>
