<svg width="119" height="154" viewBox="0 0 119 154" fill="none" xmlns="http://www.w3.org/2000/svg">
<g clip-path="url(#clip0_239_7605)">
<path d="M7.07776 101.087H4.68292L3.7982 104.123H3.44227L2.55755 101.087H0.162707L1.6169 105.061L0 109.523H2.41519L3.37617 106.242H3.8643L4.82529 109.523H7.24047L5.62357 105.061L7.07776 101.087Z" fill="white"/>
<path d="M24.8182 101.087H22.2759L20.9997 104.23H20.3641V101.087H18.0303V109.523H20.3641V106.253H21.076L22.4183 109.523H24.9809L23.0488 105.061L24.8182 101.087Z" fill="white"/>
<path d="M38.1444 106.146H40.6257H40.9003V104.317H40.6257H38.1444V103.013H41.1749H41.4443V101.087H38.1343H35.7598V109.523H38.1343H41.5511V107.592H38.1444V106.146Z" fill="white"/>
<path d="M57.1454 101.087V104.123H55.4624V101.087H53.0879V109.523H55.4624V106.242H57.1454V109.523H57.1505H59.5199V101.087H57.1505H57.1454Z" fill="white"/>
<path d="M71.9468 101.087H69.5723V109.523H71.9468V101.087Z" fill="white"/>
<path d="M64.4878 102.89V101.087H62.1133V109.518H68.3572V104.531L66.8725 102.89H64.4878ZM65.9827 107.689H64.4878V104.724H65.9827V107.689Z" fill="white"/>
<path d="M95.1377 109.523H97.558L98.5545 103.145H99.9833V109.523H102.358V101.087H96.6224L95.1377 109.523Z" fill="white"/>
<path d="M107.498 105.04H107.082L106.339 101.087H103.97L105.282 106.869H107.163L107.01 107.592H104.326V109.523H108.729L110.595 101.087H108.22L107.498 105.04Z" fill="white"/>
<path d="M117.602 104.266H114.785V102.916H118.39V101.087H112.41V109.518H119.02V105.809L117.602 104.266ZM116.625 107.689H114.785V106.003H116.625V107.689Z" fill="white"/>
<path d="M9.30469 102.722V109.518H14.1554L15.7876 107.883V101.087H10.9369L9.30469 102.722ZM11.7351 103.206H13.4131V107.414H11.7351V103.206Z" fill="white"/>
<path d="M48.736 100.318L49.2546 98.5907H45.3242L45.8429 100.318H48.736Z" fill="#17243E"/>
<path d="M93.5213 101.087H90.979L89.7028 104.23H89.0672V101.087H86.7334V109.523H89.0672V106.253H89.7791L91.1214 109.523H93.684L91.7519 105.061L93.5213 101.087Z" fill="white"/>
<path d="M46.5091 105.723V101.087H44.1396V109.523H46.7836L48.2226 104.882V109.523H50.6022V101.087H47.9531L46.5091 105.723Z" fill="white"/>
<path d="M79.0963 100.318L79.615 98.5907H75.6846L76.2032 100.318H79.0963Z" fill="#17243E"/>
<path d="M76.8745 105.723V101.087H74.5V109.523H77.144L78.588 104.882V109.523H80.9625V101.087H78.3135L76.8745 105.723Z" fill="white"/>
<path d="M33.6856 101.087H31.1433L29.862 104.23H29.2264V101.087H26.8926V109.523H29.2264V106.253H29.9383L31.2806 109.523H33.8483L31.9162 105.061L33.6856 101.087Z" fill="white"/>
<path d="M28.1945 113.96H0.000413508V117.491C-0.0117062 119.176 0.523702 120.819 1.52579 122.173C1.75542 122.484 2.01238 122.774 2.29357 123.039L-0.00976562 125.413V153.651H28.1691V133.808H23.9845L18.7677 139.055V145.255H9.61538V122.356H18.7677V128.052H23.0692L28.2149 122.886V113.96H28.1945Z" fill="white"/>
<path d="M78.0436 132.728H70.2336V113.96H61V134.476L67.188 140.675L80.2656 140.686L78.0436 142.912V147.354H87.2823V113.96H78.0436V132.728Z" fill="white"/>
<path d="M31.7588 120.446V147.349H50.9582L57.4259 140.869V113.96H38.2264L31.7588 120.446ZM41.3738 136.707V122.356H48.0244V138.959H39.1264L41.3738 136.707Z" fill="white"/>
<path d="M118.995 117.491V113.96H107.438L99.8463 136.809V113.96H90.8008V153.651H102.389L109.975 130.803V153.651H119.02V125.423L116.712 123.049C116.994 122.783 117.252 122.493 117.485 122.183C118.484 120.825 119.014 119.178 118.995 117.491Z" fill="white"/>
<path d="M93.2367 1.08394C87.2723 1.13794 81.4486 2.90608 76.4575 6.17833L66.5426 0.676392L59.5411 2.92302L52.5446 0.676392L42.6297 6.17833C37.6377 2.90791 31.8146 1.13994 25.8505 1.08394H14.8779V17.5032L14.9288 17.926C15.5577 22.8867 17.6182 27.5556 20.8574 31.3599L18.7931 36.1996V69.5628L30.33 69.6596L35.5621 78.5442H38.2925L46.255 92.0851H72.8627L80.8252 78.5442H83.5556L88.7877 69.6596L100.325 69.5628V36.1996L98.2603 31.3548C101.499 27.554 103.559 22.8886 104.189 17.9311L104.24 17.5032V1.08394H93.2367Z" fill="#17243E"/>
<path d="M93.206 4.65508C92.1891 4.65508 83.7385 4.69583 76.7014 10.3812L66.1407 4.50734L59.5307 6.63679L52.9207 4.50734L42.36 10.371C35.328 4.69074 26.8926 4.6296 25.8604 4.64488H18.4268V17.279V17.4879C19.0956 22.4791 21.4095 27.1033 25.0011 30.6263L22.3165 36.9179V66.0171L32.3331 66.0986L37.555 74.9679H40.2855L48.2479 88.5088H70.788L78.7505 74.9679H81.4809L86.7028 66.0986L96.7245 66.0171V36.9179L94.0348 30.6263C97.6244 27.106 99.9382 22.4856 100.609 17.4981L100.635 17.2892V4.65508H93.206Z" fill="#FFB600"/>
<path d="M91.091 28.5325C92.0316 27.6868 96.3078 23.5349 97.0857 17.0752V8.21092H93.1757C93.1757 8.21092 83.7335 8.00205 77.1998 14.7216L65.7798 8.37395L59.5359 10.3811L53.287 8.37395L41.8517 14.7216C35.318 8.00205 25.8759 8.21092 25.8759 8.21092H21.9658V17.0752C22.7438 23.5349 27.0199 27.6868 27.9606 28.5325L28.1487 28.6904C28.5249 29.0215 28.9165 29.3323 29.308 29.6227L25.881 37.6565V47.4683C26.476 47.5807 27.0806 47.6336 27.686 47.6263C28.913 47.6608 30.1314 47.4097 31.2452 46.8927C31.591 46.75 31.9621 46.6023 32.3842 46.4647C32.8597 46.3158 33.3458 46.2034 33.8384 46.1285H33.8689C34.4183 46.055 34.9721 46.0193 35.5264 46.0215C37.0026 45.989 38.4673 46.2884 39.8128 46.8978C40.9264 47.4153 42.1449 47.6664 43.372 47.6314C44.599 47.6655 45.8173 47.4144 46.9312 46.8978C48.0215 46.403 49.1937 46.1146 50.3887 46.047L49.5752 49.2412L47.3125 57.9985H45.6448L46.2041 55.8181L47.8159 49.5367L48.1413 48.2529L47.6329 48.4617C46.2894 49.0718 44.8263 49.3713 43.3517 49.338C41.8772 49.3701 40.4142 49.0707 39.0704 48.4617C37.9728 47.9557 36.7751 47.7049 35.5671 47.7282H35.5163C34.2892 47.6936 33.0709 47.9447 31.9571 48.4617C30.6133 49.0707 29.1503 49.3701 27.6758 49.338C26.342 49.3706 25.0159 49.126 23.781 48.6197V51.1006L24.1217 51.2433C25.2358 51.7594 26.4539 52.0105 27.6809 51.9769C28.908 52.0114 30.1263 51.7603 31.2401 51.2433C32.5839 50.6344 34.0469 50.335 35.5214 50.3671C36.9975 50.3345 38.4622 50.634 39.8077 51.2433C40.9213 51.7608 42.1398 52.012 43.3669 51.9769C43.6059 51.9769 43.8296 51.9769 44.0381 51.9769L43.6008 53.6937H43.3669C41.8926 53.7232 40.4303 53.4239 39.0857 52.8175C37.9717 52.3008 36.7535 52.0497 35.5264 52.0839C34.2994 52.0493 33.081 52.3004 31.9672 52.8175C30.6228 53.4246 29.1603 53.7239 27.686 53.6937C26.3521 53.7263 25.026 53.4817 23.7912 52.9754V55.4513L24.1319 55.5939C25.2465 56.1079 26.4645 56.3572 27.6911 56.3224C28.9177 56.3582 30.1359 56.1088 31.2503 55.5939C32.5941 54.985 34.057 54.6856 35.5315 54.7177C37.0077 54.6852 38.4724 54.9846 39.8179 55.5939C40.7937 56.0438 41.8507 56.29 42.9245 56.3173L42.4974 57.9985C41.3181 57.9243 40.1621 57.636 39.0857 57.1477C37.9712 56.6331 36.753 56.3838 35.5264 56.4192C34.2998 56.3834 33.0816 56.6328 31.9672 57.1477C30.6236 57.7573 29.1605 58.0567 27.686 58.0239C27.0819 58.029 26.4784 57.9864 25.881 57.8966V62.5172L34.3875 62.5885L39.5941 71.4426H42.3296L50.2921 84.9835H68.7747L76.7371 71.4426H79.4676L84.664 62.5834H85.1267L93.1757 62.5172V57.9322C92.585 58.0215 91.9883 58.0641 91.391 58.0596C89.9148 58.0921 88.4501 57.7927 87.1046 57.1833C85.9905 56.6679 84.7721 56.4186 83.5454 56.4549C82.3187 56.4186 81.1004 56.6679 79.9862 57.1833C78.9079 57.6715 77.7503 57.9598 76.5693 58.0341L76.1422 56.353C77.2184 56.3267 78.2777 56.0788 79.254 55.6245C80.5988 55.0189 82.0613 54.7214 83.5353 54.7533C85.0092 54.7214 86.4717 55.0189 87.8165 55.6245C88.9306 56.1406 90.1487 56.3917 91.3757 56.3581C92.6028 56.3926 93.8211 56.1415 94.9349 55.6245L95.2807 55.4869V53.0009C94.0466 53.5104 92.7202 53.7567 91.3859 53.7243C89.9099 53.7542 88.4458 53.4549 87.0996 52.848C85.9867 52.328 84.7677 52.0767 83.5403 52.1144C82.313 52.0767 81.0939 52.328 79.9811 52.848C78.6348 53.4549 77.1707 53.7542 75.6948 53.7243H75.466L75.0236 52.0075C75.2321 52.0075 75.4558 52.0075 75.6948 52.0075C76.9218 52.041 78.1399 51.79 79.254 51.2739C80.6066 50.6437 82.0845 50.3301 83.5759 50.3569C85.0505 50.3235 86.5137 50.623 87.8572 51.2331C88.9713 51.7492 90.1894 52.0003 91.4164 51.9667C92.6435 52.0012 93.8618 51.7501 94.9756 51.2331L95.3214 51.0905V48.6095C94.0861 49.1144 92.7603 49.3589 91.4266 49.3278C89.9504 49.3603 88.4857 49.0609 87.1402 48.4516C86.0266 47.934 84.8081 47.6829 83.581 47.718H83.5353C82.3267 47.6892 81.1278 47.9402 80.032 48.4516C78.6865 49.0609 77.2218 49.3603 75.7456 49.3278C74.2711 49.3599 72.8082 49.0605 71.4644 48.4516L70.9559 48.2427L71.2864 49.5214L72.8932 55.8079L73.4067 57.9985H71.7441L69.517 49.2514L68.7035 46.0572C69.9001 46.1248 71.074 46.4133 72.1661 46.908C73.2799 47.425 74.4982 47.6761 75.7253 47.6415C76.9523 47.6751 78.1704 47.4241 79.2845 46.908C80.628 46.2979 82.0912 45.9984 83.5658 46.0317C84.1201 46.0293 84.6739 46.065 85.2233 46.1387H85.2589C85.7497 46.2142 86.2341 46.3266 86.708 46.4749C87.1352 46.6125 87.5012 46.7602 87.847 46.9029C88.9611 47.419 90.1792 47.6701 91.4062 47.6365C92.0049 47.643 92.6027 47.5901 93.1909 47.4785V37.6514L89.7588 29.6176C90.1503 29.3272 90.5418 29.0164 90.9181 28.6853L91.091 28.5325ZM59.5207 57.8762L65.729 52.8837L66.9239 57.8762H52.1124L53.3073 52.8837L59.5207 57.8762ZM55.5038 50.7899V43.7036H63.5324V50.7899H55.5038ZM38.145 30.5193L31.3927 35.8073L34.8299 28.2268C33.3088 27.66 31.9068 26.8134 30.6961 25.7306L32.9231 22.949H28.2199C27.4764 21.8166 26.8641 20.6031 26.3945 19.332L28.6114 17.1108H25.8606V12.047C28.604 12.0729 31.3133 12.6588 33.8231 13.7689V16.8255L35.8569 14.7878C36.7532 15.336 37.581 15.9893 38.323 16.7339C39.2631 17.6418 40.0803 18.6694 40.7534 19.7905L53.2768 12.8519L59.5308 18.4048V39.5771L38.145 30.5193ZM71.7644 67.4791H73.4423L65.9781 80.1132H53.0683L45.6041 67.4791H47.282L52.809 76.649H66.2476L71.7644 67.4791ZM86.5453 22.949L88.3402 25.7306C87.09 26.8504 85.6342 27.7156 84.0539 28.2778L78.3286 19.6835C78.9945 18.5931 79.7976 17.5932 80.7184 16.7084C81.4676 15.979 82.3005 15.3411 83.1997 14.8082L85.2335 16.8459V13.7893C87.7433 12.6791 90.4526 12.0932 93.196 12.0674V17.1312H90.4452L92.6621 19.3524C92.1926 20.6235 91.5802 21.837 90.8367 22.9694L86.5453 22.949ZM55.2445 21.4207L58.0512 24.7677H52.4327L55.2445 21.4207ZM47.643 21.4207L50.4548 24.7677H44.8363L47.643 21.4207ZM55.2445 26.1992L58.0512 29.5463H52.4327L55.2445 26.1992Z" fill="#17243E"/>
<path d="M59.5004 18.3488L53.2718 12.8214L59.5207 14.8592L65.7646 12.8214L59.5258 18.3743L59.5004 18.3488ZM45.2127 43.561L42.5992 38.2526L38.7603 35.3998L40.906 40.7438L43.4178 43.7036H50.7091L47.9024 40.3566L45.2127 43.561ZM59.5055 39.5517H66.329L80.8913 30.5193L59.536 39.5466L38.1807 30.5193L52.743 39.5517H59.5055ZM53.3074 52.9041H65.729L63.5325 43.7342V50.8205H55.5039V43.7342L53.3074 52.9041ZM73.8237 43.5814L71.134 40.377L68.3273 43.724H75.6186L78.1304 40.7642L80.2761 35.4201L76.4372 38.273L73.8237 43.5814ZM51.7159 62.5835C51.7159 62.5835 51.8888 64.6977 54.3446 66.8933L54.6599 64.5958H64.3765L64.6918 66.8933C67.1476 64.6977 67.3205 62.5835 67.3205 62.5835L59.5207 62.6293L51.7159 62.5835ZM59.6784 71.6617H56.1191L55.2293 70.2811V73.3377H63.8274V70.2811L62.9376 71.6617H59.6784Z" fill="white"/>
<path d="M66.796 24.7677H61.1826L63.9893 21.4258L66.796 24.7677Z" fill="#FFB600"/>
<path d="M74.3978 24.7678H68.7793L71.5911 21.4258L74.3978 24.7678Z" fill="#FFB600"/>
<path d="M66.796 29.5463H61.1826L63.9893 26.2043L66.796 29.5463Z" fill="#FFB600"/>
</g>
<defs>
<clipPath id="clip0_239_7605">
<rect width="119" height="153" fill="white" transform="translate(0 0.650879)"/>
</clipPath>
</defs>
</svg>
