<svg width="405" height="602" viewBox="0 0 405 602" fill="none" xmlns="http://www.w3.org/2000/svg">
<g clip-path="url(#clip0_239_6684)">
<rect width="405" height="602" fill="white"/>
<mask id="mask0_239_6684" style="mask-type:luminance" maskUnits="userSpaceOnUse" x="-918" y="-579" width="2113" height="2167">
<path d="M-918 -578.994H1194.48V1587.48H-918V-578.994Z" fill="white"/>
</mask>
<g mask="url(#mask0_239_6684)">
<path d="M-917.98 -37.387H1194.5V1045.84H-917.98V-37.387Z" fill="#0A2240"/>
<path d="M-891.877 1.36512V29.988C-875.954 35.5881 -856.838 41.0845 -824.076 41.0845C-786.661 41.0845 -766.942 33.8942 -749.539 27.5509C-732.895 21.5014 -718.509 16.2642 -687.733 16.2642H-686.935C-656.743 16.3679 -642.454 21.5532 -625.947 27.5509C-611.035 32.9782 -594.469 39.0104 -566.633 40.6351V14.3284C-587.442 12.8938 -599.55 8.48625 -613.196 3.50836C-630.599 -2.81771 -650.338 -9.9907 -687.733 -9.9907C-697.383 -10.02 -707.024 -9.44239 -716.582 -8.26227H-716.835H-717.205C-725.782 -7.1334 -734.245 -5.39948 -742.511 -3.07697C-749.87 -1.00285 -756.294 1.31323 -762.309 3.49106C-778.992 9.55786 -793.455 14.795 -824.115 14.795C-854.774 14.795 -869.257 9.60971 -885.921 3.49106C-887.848 2.79968 -889.833 2.07377 -891.877 1.36512ZM-824.076 148.662C-793.319 148.662 -778.933 143.477 -762.27 137.358C-744.867 131.015 -725.147 123.859 -687.733 123.859C-650.319 123.859 -630.599 131.015 -613.196 137.358C-599.57 142.319 -587.423 146.709 -566.633 148.144V174.468C-594.469 172.739 -611.055 166.811 -625.947 161.401C-642.59 155.334 -656.976 150.097 -687.733 150.097C-718.49 150.097 -732.895 155.282 -749.539 161.401C-766.942 167.727 -786.661 174.9 -824.076 174.9C-856.779 174.9 -875.954 169.421 -891.877 163.821V135.198L-885.882 137.358C-869.218 143.408 -854.833 148.662 -824.076 148.662ZM-824.076 81.7373C-793.319 81.7373 -778.933 76.552 -762.27 70.4506C-744.867 64.1073 -725.147 56.9342 -687.733 56.9342C-650.319 56.9342 -630.599 64.1073 -613.196 70.4506C-599.57 75.4112 -587.442 79.8187 -566.633 81.2533V107.56C-594.469 105.918 -611.055 99.8858 -625.947 94.4758C-642.59 88.409 -656.976 83.1891 -687.733 83.1891C-718.49 83.1891 -732.895 88.3745 -749.539 94.4758C-766.942 100.802 -786.661 107.992 -824.076 107.992C-856.779 107.992 -875.954 102.513 -891.877 96.8956V68.2901L-885.882 70.4506C-869.218 76.5001 -854.833 81.7373 -824.076 81.7373ZM-802.955 237.97H-891.877L-847.416 191.043L-802.955 237.97ZM-729.197 191.043L-684.735 237.97H-773.638L-729.197 191.043ZM-611.016 191.043L-566.574 237.97H-655.477L-611.016 191.043ZM-802.896 315.491H-891.819L-847.358 268.564L-802.896 315.491ZM-773.697 315.491L-729.197 268.494L-684.735 315.421L-773.697 315.491ZM-611.074 268.564L-566.633 315.491H-655.536L-611.074 268.564ZM-802.955 666.95H-891.877L-847.416 620.023L-802.955 666.95ZM-729.197 619.954L-684.735 666.881H-773.638L-729.197 619.954ZM-611.016 619.954L-566.574 666.881H-655.477L-611.016 619.954ZM-824.017 717.749C-793.26 717.749 -778.894 712.564 -762.212 706.445C-756.196 704.267 -749.773 701.951 -742.414 699.877C-734.147 697.554 -725.685 695.82 -717.108 694.692H-716.738H-716.485C-706.928 693.503 -697.286 692.925 -687.636 692.963C-650.241 692.963 -630.502 700.136 -613.099 706.462C-599.472 711.44 -587.345 715.848 -566.535 717.282V743.589C-594.372 741.964 -610.938 735.932 -625.849 730.505C-642.357 724.507 -656.645 719.322 -686.838 719.218H-687.636C-718.412 719.218 -732.798 724.403 -749.442 730.505C-766.845 736.848 -786.564 744.021 -823.978 744.021C-856.662 744.021 -875.857 738.542 -891.78 732.942V704.302C-889.833 705.01 -887.75 705.736 -885.784 706.445C-869.218 712.512 -854.833 717.749 -824.076 717.749H-824.017ZM-824.017 851.599C-793.26 851.599 -778.875 846.413 -762.212 840.295C-744.809 833.951 -725.089 826.796 -687.675 826.796C-650.26 826.796 -630.541 833.951 -613.138 840.295C-599.511 845.255 -587.364 849.646 -566.574 851.08V877.404C-594.411 875.676 -610.997 869.747 -625.888 864.337C-642.532 858.271 -656.918 853.033 -687.675 853.033C-718.432 853.033 -732.837 858.219 -749.481 864.337C-766.884 870.663 -786.603 877.836 -824.017 877.836C-856.721 877.836 -875.896 872.357 -891.819 866.757V838.134L-885.823 840.295C-869.218 846.344 -854.833 851.599 -824.076 851.599H-824.017ZM-824.017 784.674C-793.26 784.674 -778.875 779.489 -762.212 773.387C-744.809 767.044 -725.089 759.871 -687.675 759.871C-650.26 759.871 -630.541 767.044 -613.138 773.387C-599.511 778.331 -587.384 782.755 -566.574 784.19V810.497C-594.411 808.855 -610.997 802.822 -625.888 797.412C-642.532 791.346 -656.918 786.126 -687.675 786.126C-718.432 786.126 -732.837 791.311 -749.481 797.412C-766.884 803.738 -786.603 810.929 -824.017 810.929C-856.721 810.929 -875.896 805.45 -891.819 799.832V771.227L-885.823 773.387C-869.218 779.437 -854.833 784.674 -824.076 784.674H-824.017ZM-802.896 940.89H-891.819L-847.358 893.98L-802.896 940.89ZM-684.735 940.89H-773.638L-729.197 893.98L-684.735 940.89ZM-566.574 940.89H-655.477L-611.016 893.98L-566.574 940.89ZM-802.896 1018.36H-891.819L-847.358 971.431L-802.896 1018.36ZM-684.735 1018.36H-773.638L-729.197 971.431L-684.735 1018.36ZM-566.574 1018.36H-655.477L-611.016 971.431L-566.574 1018.36ZM-678.175 382.45V455.234L-624.078 407.219C-604.411 417.632 -585.872 429.638 -568.696 443.084V589.776H-836.456C-852.872 566.005 -866.623 540.863 -877.511 514.71L-817.983 461.854H-891.8V341.452C-835.795 340.38 -754.016 352.963 -678.233 382.45H-678.175ZM537.23 17.042C567.928 17.042 582.256 11.8567 598.899 5.7726C604.895 3.59477 611.319 1.29594 618.658 -0.778177C626.922 -3.11149 635.385 -4.84561 643.964 -5.96348H644.334H644.587C654.126 -7.14456 663.747 -7.72216 673.378 -7.69191C710.695 -7.69191 730.376 -0.518881 747.74 5.7899C761.366 10.7505 773.435 15.1407 794.206 16.5753V42.8302C766.427 41.2055 749.881 35.1905 735.009 29.7805C718.56 23.7828 704.291 18.6149 674.157 18.5111H673.378C642.66 18.5111 628.313 23.6964 611.708 29.7805C594.344 36.1066 574.722 43.2623 537.327 43.2623C504.721 43.2623 485.566 37.8005 469.681 32.2004V3.66391C471.628 4.37257 473.711 5.09849 475.658 5.80715C492.204 11.8221 506.551 17.042 537.23 17.042ZM537.23 150.598C567.928 150.598 582.275 145.413 598.899 139.329C616.264 132.985 635.886 125.847 673.261 125.847C710.637 125.847 730.278 132.985 747.642 139.329C761.269 144.255 773.358 148.645 794.109 150.079V176.352C766.33 174.71 749.784 168.695 734.931 163.302C718.306 157.252 703.96 152.033 673.261 152.033C642.563 152.033 628.216 157.218 611.611 163.302C594.247 169.611 574.625 176.784 537.23 176.784C504.604 176.784 485.469 171.305 469.584 165.722V137.168L475.56 139.329C492.185 145.395 506.551 150.581 537.23 150.581V150.598ZM537.23 83.8287C567.928 83.8287 582.275 78.6433 598.899 72.5592C616.264 66.2332 635.886 59.0775 673.261 59.0775C710.637 59.0775 730.278 66.2332 747.642 72.5592C761.269 77.5026 773.338 81.9101 794.109 83.3447V109.582C766.33 107.958 749.784 101.943 734.931 96.5327C718.306 90.4831 703.96 85.2632 673.261 85.2632C642.563 85.2632 628.216 90.4486 611.611 96.5327C594.247 102.859 574.625 110.014 537.23 110.014C504.604 110.014 485.469 104.553 469.584 98.9525V70.3987L475.56 72.5592C492.185 78.5915 506.551 83.8287 537.23 83.8287ZM558.293 239.699H469.584L513.948 192.875L558.293 239.699ZM631.856 192.875L676.279 239.699H587.57L631.856 192.875ZM749.745 192.875L794.109 239.699H705.478L749.745 192.875ZM558.293 316.977H469.584L513.948 270.154L558.293 316.977ZM587.492 316.977L631.856 270.154L676.279 316.977H587.492ZM749.745 270.154L794.109 316.977H705.478L749.745 270.154ZM537.23 367.741C567.928 367.741 582.256 362.556 598.899 356.454C604.895 354.277 611.319 351.978 618.658 349.904C626.924 347.579 635.387 345.845 643.964 344.718H644.334H644.587C654.126 343.537 663.747 342.96 673.378 342.99C710.695 342.99 730.376 350.163 747.74 356.472C761.366 361.432 773.435 365.823 794.206 367.257C798.683 367.551 803.55 367.724 808.923 367.724C839.621 367.724 853.948 362.539 870.592 356.437C876.588 354.259 883.012 351.961 890.351 349.886C898.617 347.561 907.079 345.827 915.657 344.701H916.027H916.28C925.812 343.521 935.427 342.943 945.051 342.973C982.388 342.973 1002.07 350.146 1019.43 356.454C1033.06 361.415 1045.13 365.805 1065.9 367.24C1070.38 367.534 1075.22 367.707 1080.62 367.707C1111.29 367.707 1125.64 362.521 1142.28 356.42C1148.28 354.242 1154.7 351.943 1162.04 349.869C1163.46 349.472 1164.92 349.091 1166.42 348.711V376.366C1162.53 377.628 1158.83 378.976 1154.98 380.376C1137.61 386.702 1117.99 393.875 1080.62 393.875C1047.99 393.875 1028.85 388.396 1012.97 382.796V382.623C1010.83 381.88 1008.75 381.119 1006.7 380.376C990.252 374.378 975.983 369.21 945.849 369.124H944.915C914.216 369.124 899.87 374.309 883.265 380.376C865.901 386.702 846.279 393.875 808.884 393.875C776.258 393.875 757.122 388.396 741.238 382.796V382.623C739.097 381.88 737.014 381.119 734.97 380.376C718.521 374.378 704.252 369.21 674.118 369.124H673.339C642.621 369.124 628.274 374.309 611.669 380.376C594.305 386.702 574.683 393.875 537.288 393.875C504.682 393.875 485.527 388.396 469.642 382.796V354.311L475.619 356.454C492.204 362.504 506.551 367.741 537.23 367.741ZM537.23 501.28C567.928 501.28 582.275 496.095 598.899 490.011C616.264 483.684 635.886 476.529 673.261 476.529C710.637 476.529 730.278 483.684 747.642 490.011C761.269 494.954 773.358 499.344 794.109 500.779C798.586 501.072 803.453 501.245 808.825 501.245C839.524 501.245 853.851 496.06 870.495 489.976C887.859 483.65 907.481 476.494 944.857 476.494C982.232 476.494 1001.87 483.65 1019.24 489.976C1032.86 494.919 1044.95 499.31 1065.7 500.744C1070.18 501.038 1075.03 501.211 1080.42 501.211C1111.12 501.211 1125.45 496.026 1142.09 489.941C1149.96 486.937 1158.02 484.334 1166.23 482.146V509.905C1162.34 511.149 1158.64 512.515 1154.78 513.915C1137.42 520.241 1117.8 527.397 1080.42 527.397C1047.79 527.397 1028.66 521.935 1012.77 516.335V516.162C1010.63 515.419 1008.55 514.658 1006.51 513.915C989.902 507.865 975.555 502.645 944.857 502.645C914.158 502.645 899.811 507.831 883.187 513.915C865.823 520.241 846.201 527.397 808.825 527.397C776.2 527.397 757.064 521.935 741.18 516.335V516.162C739.038 515.419 736.975 514.658 734.931 513.915C718.306 507.865 703.96 502.645 673.261 502.645C642.563 502.645 628.216 507.831 611.611 513.915C594.247 520.241 574.625 527.397 537.23 527.397C504.604 527.397 485.469 521.935 469.584 516.335V487.85L475.56 490.011C492.185 496.043 506.551 501.28 537.23 501.28ZM537.23 434.511C567.928 434.511 582.275 429.325 598.899 423.241C616.264 416.915 635.886 409.759 673.261 409.759C710.637 409.759 730.278 416.915 747.642 423.241C761.269 428.184 773.338 432.592 794.109 434.027C798.586 434.32 803.453 434.493 808.825 434.493C839.524 434.493 853.851 429.308 870.495 423.224C887.859 416.898 907.481 409.742 944.857 409.742C982.232 409.742 1001.87 416.898 1019.24 423.224C1032.86 428.167 1044.93 432.575 1065.7 434.009C1070.18 434.303 1075.03 434.476 1080.42 434.476C1111.12 434.476 1125.45 429.291 1142.09 423.207C1149.96 420.208 1158.02 417.611 1166.23 415.429V443.084C1162.34 444.345 1158.64 445.693 1154.78 447.111C1137.42 453.42 1117.8 460.575 1080.42 460.575C1047.79 460.575 1028.66 455.113 1012.77 449.513V449.358L1006.51 447.111C989.902 441.044 975.555 435.841 944.857 435.841C914.158 435.841 899.811 441.027 883.187 447.111C865.823 453.42 846.201 460.575 808.825 460.575C776.2 460.575 757.064 455.113 741.18 449.513V449.358L734.931 447.111C718.306 441.044 703.96 435.841 673.261 435.841C642.563 435.841 628.216 441.027 611.611 447.111C594.247 453.42 574.625 460.575 537.23 460.575C504.604 460.575 485.469 455.113 469.584 449.513V421.098C471.531 421.807 473.614 422.532 475.56 423.241C492.185 429.273 506.551 434.511 537.23 434.511ZM558.293 590.381H469.584L513.948 543.557L558.293 590.381ZM631.856 543.557L676.279 590.381H587.57L631.856 543.557ZM749.745 543.557L794.109 590.381H705.478L749.745 543.557ZM558.293 667.659H469.584L513.948 620.853L558.293 667.659ZM587.492 667.659L631.856 620.853L676.279 667.659H587.492ZM705.4 667.659L749.745 620.853L794.109 667.659H705.4ZM558.293 744.799H469.584L513.948 697.976L558.293 744.799ZM587.492 744.799L631.856 697.976L676.279 744.799H587.492ZM705.4 744.799L749.745 697.976L794.109 744.799H705.4ZM930.412 316.977H841.743L886.088 270.154L930.412 316.977ZM959.612 316.977L1003.96 270.154L1048.32 316.977H959.612ZM1121.86 270.154L1166.23 316.977H1077.5L1121.86 270.154ZM886.049 543.557L930.412 590.381H841.743L886.049 543.557ZM1003.96 543.557L1048.32 590.381H959.612L1003.96 543.557ZM1121.86 543.557L1166.23 590.381H1077.5L1121.86 543.557ZM1121.86 621.181L1166.23 668.005H1077.5L1121.86 621.181ZM959.612 668.005L1003.96 621.181L1048.32 668.005H959.612ZM841.704 668.005L886.049 621.181L930.412 668.005H841.704ZM1121.86 698.494L1166.23 745.318H1077.5L1121.86 698.494ZM959.612 745.318L1003.96 698.494L1048.32 745.318H959.612ZM841.704 745.318L886.049 698.494L930.412 745.318H841.704ZM962.532 771.244C972.163 771.215 981.784 771.793 991.323 772.972H991.576H991.926C1000.51 774.089 1008.97 775.823 1017.23 778.158C1024.57 780.215 1030.98 782.531 1036.99 784.708C1053.62 790.758 1067.96 795.978 1098.64 795.978C1129.32 795.978 1143.69 790.793 1160.33 784.708C1162.28 784 1164.22 783.274 1166.31 782.565V811.119C1150.42 816.719 1131.27 822.181 1098.64 822.181C1061.32 822.181 1041.64 815.025 1024.28 808.699C1007.67 802.65 993.309 797.43 962.61 797.43H961.812C931.697 797.533 917.428 802.701 900.96 808.699C886.087 814.109 869.561 820.124 841.782 821.749V795.546C862.553 794.111 874.641 789.721 888.248 784.76C905.534 778.434 925.215 771.279 962.435 771.279L962.532 771.244ZM962.532 904.8C999.849 904.8 1019.53 911.938 1036.89 918.264C1053.52 924.314 1067.86 929.534 1098.54 929.534C1129.22 929.534 1143.59 924.349 1160.23 918.264L1166.21 916.121V944.675C1150.32 950.258 1131.17 955.737 1098.54 955.737C1061.23 955.737 1041.55 948.564 1024.18 942.255C1007.58 936.206 993.211 930.986 962.532 930.986C931.853 930.986 917.467 936.171 900.862 942.255C886.01 947.648 869.463 953.663 841.685 955.305V929.067C862.436 927.633 874.544 923.242 888.132 918.299C905.515 911.973 925.215 904.835 962.552 904.835L962.532 904.8ZM962.532 838.031C999.849 838.031 1019.53 845.186 1036.89 851.512C1053.52 857.545 1067.86 862.782 1098.54 862.782C1129.22 862.782 1143.59 857.596 1160.23 851.512L1166.21 849.352V877.906C1150.32 883.488 1131.17 888.968 1098.54 888.968C1061.23 888.968 1041.55 881.795 1024.18 875.486C1007.58 869.436 993.211 864.216 962.532 864.216C931.853 864.216 917.467 869.402 900.862 875.486C886.01 880.878 869.463 886.893 841.685 888.536V862.315C862.455 860.881 874.544 856.49 888.132 851.547C905.515 845.221 925.215 838.065 962.552 838.065L962.532 838.031ZM1168.33 1018.65H1079.62L1124.01 971.863L1168.33 1018.65ZM1050.44 1018.65H961.715L1006.08 971.829L1050.44 1018.65ZM932.534 1018.65H843.806L888.17 971.829L932.534 1018.65ZM683.792 811.24V883.834L737.773 836.077C757.409 846.466 775.923 858.443 793.077 871.856V1018.25H525.92C509.568 994.531 495.876 969.441 485.04 943.344L544.432 890.592H470.791V770.466C526.621 769.36 608.146 781.926 683.812 811.344L683.792 811.24ZM858.095 162.922L917.487 110.187H843.826V-9.92155C899.792 -11.0105 981.395 1.53795 1057 30.9559V103.55L1110.96 55.6898C1130.58 66.0841 1149.08 78.0609 1166.23 91.4683V237.849H899.052C882.669 214.125 868.95 189.029 858.095 162.922ZM-158.558 786.99C-211.487 745.11 -215.147 704.872 -215.147 704.872L-47.3464 705.684L120.473 704.872C120.473 704.872 116.814 745.11 63.8846 786.99L57.1686 743.191H-151.842L-158.558 786.99ZM-50.6559 878.251H26.1003L45.158 851.945V910.227H-139.773V851.91L-120.696 878.251H-50.6559ZM39.0065 345.375L86.2321 520.345L111.908 615.529H-47.327L86.2125 520.327H-180.886L-133.68 345.358L39.0065 345.375ZM-180.964 520.345L-47.3464 615.529H-206.582L-180.964 520.345ZM142.081 345.358L202.427 281.579L260.281 342.627L316.481 241.445L399.116 187.103L352.922 288.976L298.883 345.358H142.023H142.081ZM-142.712 11.7703L-82.3665 75.5495H-203.195L-142.712 11.7703ZM-447.654 288.994L-493.848 187.12L-411.213 241.462L-355.013 342.644L-297.178 281.596L-236.832 345.375H-393.693L-447.654 288.994ZM412.392 94.0783L413.073 94.5449V-12.2896H-47.4829L-47.366 266.144L-507.046 94.1128L-193.87 266.213H99.0994L412.314 94.1128L412.392 94.0783ZM105.017 75.5322H-15.8109L44.5349 11.753L105.017 75.5322ZM-417.364 873.671L-319.74 1020.76H-408.332L-460.891 941.443H-507.61V826.104L-476.133 873.671H-417.364ZM-405.334 585.645L-414.561 617.724C-449.036 615.702 -469.534 608.235 -487.949 601.564C-494.548 599.127 -500.914 596.845 -507.727 594.823V560.859C-495.597 563.726 -483.728 567.4 -472.22 571.852C-453.416 578.662 -436.947 584.625 -405.334 585.645ZM-395.873 503.181C-390.676 503.181 -385.887 503.043 -381.41 502.836L-390.909 535.555C-392.525 535.555 -394.16 535.555 -395.873 535.555C-442.067 535.555 -466.439 526.653 -487.949 518.841C-494.548 516.438 -500.914 514.122 -507.727 512.134V478.171C-495.597 481.037 -483.728 484.712 -472.22 489.164C-451.644 496.63 -433.872 503.181 -395.873 503.181ZM-310.669 798.501L-191.729 972.952H97.1138L216.092 798.501H252.164L103.966 1020.76H-198.562L-346.779 798.501H-310.669ZM-395.795 420.389C-357.758 420.389 -339.966 413.908 -319.39 406.424C-300.76 399.648 -280.048 392.129 -244.931 390.228L-262.45 451.121L-310.299 617.863H-346.156L-334.184 576.38L-299.67 456.513L-292.623 432.125C-296.322 433.387 -299.982 434.718 -303.758 436.083C-325.171 443.896 -349.641 452.78 -395.873 452.78C-442.106 452.78 -466.439 443.896 -487.988 436.083C-494.587 433.664 -500.933 431.365 -507.727 429.343V395.431C-495.608 398.295 -483.745 401.958 -472.24 406.389C-451.644 413.908 -433.872 420.389 -395.873 420.389H-395.795ZM319.498 617.431L310.251 585.385C341.865 584.383 358.353 578.472 377.138 571.558C388.81 567.057 400.848 563.348 413.151 560.461V594.373C406.143 596.413 399.661 598.781 392.887 601.287C374.393 607.959 353.876 615.408 319.42 617.413L319.498 617.431ZM300.771 535.296C299.078 535.296 297.462 535.296 295.788 535.296L286.347 502.559C290.824 502.766 295.613 502.887 300.771 502.887C338.809 502.887 356.543 496.423 377.138 488.922C388.817 484.442 400.854 480.739 413.151 477.842V511.771C406.143 513.811 399.661 516.179 392.887 518.685C371.298 526.394 346.926 535.278 300.694 535.278L300.771 535.296ZM381.557 873.688L413.151 826.122V941.46H366.432L313.872 1020.78H225.281L322.866 873.688H381.557ZM300.791 452.573C254.578 452.573 230.167 443.723 208.676 435.876C204.899 434.528 201.22 433.162 197.541 431.935L204.568 456.306L239.199 576.086L251.171 617.569H215.314L167.465 450.827L149.946 389.917C184.985 391.853 205.795 399.371 224.424 406.13C244.981 413.614 262.792 420.113 300.81 420.113C338.828 420.113 356.562 413.614 377.158 406.13C388.829 401.629 400.868 397.919 413.17 395.033V428.997C406.162 431.002 399.719 433.387 392.925 435.911C371.259 443.706 346.926 452.555 300.713 452.555L300.791 452.573Z" fill="#006578"/>
</g>
</g>
<defs>
<clipPath id="clip0_239_6684">
<rect width="405" height="602" fill="white"/>
</clipPath>
</defs>
</svg>
