<svg width="1920" height="1322" viewBox="0 0 1920 1322" fill="none" xmlns="http://www.w3.org/2000/svg">
<mask id="mask0_239_6528" style="mask-type:luminance" maskUnits="userSpaceOnUse" x="-96" y="-417" width="2113" height="2440">
<path d="M-95.999 -417H2016.48V2022.98H-95.999V-417Z" fill="white"/>
</mask>
<g mask="url(#mask0_239_6528)">
<path d="M-95.9795 192.982H2016.5V1412.96H-95.9795V192.982Z" fill="#0A2240"/>
<path d="M-69.8762 236.627V268.863C-53.9528 275.17 -34.8368 281.36 -2.07483 281.36C35.3396 281.36 55.0592 273.262 72.4622 266.118C89.106 259.305 103.492 253.407 134.268 253.407H135.066C165.258 253.523 179.547 259.363 196.054 266.118C210.966 272.231 227.531 279.024 255.368 280.854V251.226C234.559 249.611 222.451 244.647 208.805 239.04C191.402 231.916 171.663 223.837 134.268 223.837C124.618 223.804 114.977 224.455 105.419 225.784H105.166H104.796C96.2186 227.055 87.7565 229.008 79.4895 231.624C72.1311 233.96 65.7072 236.568 59.692 239.021C43.0093 245.854 28.5458 251.752 -2.11377 251.752C-32.7734 251.752 -47.2565 245.912 -63.9197 239.021C-65.8469 238.242 -67.8323 237.425 -69.8762 236.627ZM-2.07483 402.519C28.6821 402.519 43.0677 396.679 59.731 389.788C77.134 382.644 96.8535 374.585 134.268 374.585C171.682 374.585 191.402 382.644 208.805 389.788C222.431 395.375 234.578 400.32 255.368 401.935V431.583C227.531 429.636 210.946 422.959 196.054 416.866C179.411 410.033 165.025 404.135 134.268 404.135C103.511 404.135 89.106 409.975 72.4622 416.866C55.0592 423.991 35.3396 432.069 -2.07483 432.069C-34.7784 432.069 -53.9528 425.898 -69.8762 419.591V387.355L-63.8806 389.788C-47.2174 396.602 -32.8318 402.519 -2.07483 402.519ZM-2.07483 327.145C28.6821 327.145 43.0677 321.305 59.731 314.434C77.134 307.29 96.8535 299.211 134.268 299.211C171.682 299.211 191.402 307.29 208.805 314.434C222.431 320.021 234.559 324.985 255.368 326.6V356.228C227.531 354.379 210.946 347.585 196.054 341.492C179.411 334.659 165.025 328.781 134.268 328.781C103.511 328.781 89.106 334.62 72.4622 341.492C55.0592 348.617 35.3396 356.715 -2.07483 356.715C-34.7784 356.715 -53.9528 350.544 -69.8762 344.217V312.001L-63.8806 314.434C-47.2174 321.247 -32.8318 327.145 -2.07483 327.145ZM19.0461 503.102H-69.8762L-25.415 450.251L19.0461 503.102ZM92.8044 450.251L137.266 503.102H48.3627L92.8044 450.251ZM210.985 450.251L255.427 503.102H166.524L210.985 450.251ZM19.1046 590.409H-69.8181L-25.3566 537.558L19.1046 590.409ZM48.3042 590.409L92.8044 537.48L137.266 590.331L48.3042 590.409ZM210.927 537.558L255.368 590.409H166.465L210.927 537.558ZM19.0461 986.239H-69.8762L-25.415 933.388L19.0461 986.239ZM92.8044 933.31L137.266 986.161H48.3627L92.8044 933.31ZM210.985 933.31L255.427 986.161H166.524L210.985 933.31ZM-2.01636 1043.45C28.7405 1043.45 43.1068 1037.61 59.7894 1030.72C65.8046 1028.27 72.2284 1025.66 79.5867 1023.32C87.8536 1020.71 96.3158 1018.75 104.893 1017.48H105.263H105.516C115.073 1016.14 124.715 1015.49 134.365 1015.54C171.76 1015.54 191.499 1023.61 208.902 1030.74C222.529 1036.35 234.656 1041.31 255.466 1042.93V1072.55C227.629 1070.72 211.063 1063.93 196.151 1057.82C179.644 1051.06 165.356 1045.22 135.163 1045.11H134.365C103.589 1045.11 89.2031 1050.95 72.5593 1057.82C55.1564 1064.96 35.437 1073.04 -1.97742 1073.04C-34.6615 1073.04 -53.8556 1066.87 -69.7791 1060.56V1028.31C-67.8325 1029.1 -65.7495 1029.92 -63.7832 1030.72C-47.2174 1037.55 -32.8318 1043.45 -2.07483 1043.45H-2.01636ZM-2.01636 1194.2C28.7405 1194.2 43.1262 1188.36 59.7894 1181.47C77.1924 1174.32 96.9117 1166.26 134.326 1166.26C171.741 1166.26 191.46 1174.32 208.863 1181.47C222.49 1187.05 234.637 1192 255.427 1193.61V1223.26C227.59 1221.32 211.004 1214.64 196.113 1208.55C179.469 1201.71 165.083 1195.81 134.326 1195.81C103.569 1195.81 89.1641 1201.65 72.5204 1208.55C55.1173 1215.67 35.3981 1223.75 -2.01636 1223.75C-34.72 1223.75 -53.8945 1217.58 -69.8181 1211.27V1179.03L-63.8223 1181.47C-47.2174 1188.28 -32.8318 1194.2 -2.07483 1194.2H-2.01636ZM-2.01636 1118.82C28.7405 1118.82 43.1262 1112.98 59.7894 1106.11C77.1924 1098.97 96.9117 1090.89 134.326 1090.89C171.741 1090.89 191.46 1098.97 208.863 1106.11C222.49 1111.68 234.617 1116.66 255.427 1118.28V1147.91C227.59 1146.06 211.004 1139.26 196.113 1133.17C179.469 1126.34 165.083 1120.46 134.326 1120.46C103.569 1120.46 89.1641 1126.3 72.5204 1133.17C55.1173 1140.3 35.3981 1148.39 -2.01636 1148.39C-34.72 1148.39 -53.8945 1142.22 -69.8181 1135.9V1103.68L-63.8223 1106.11C-47.2174 1112.93 -32.8318 1118.82 -2.07483 1118.82H-2.01636ZM19.1046 1294.76H-69.8181L-25.3566 1241.93L19.1046 1294.76ZM137.266 1294.76H48.3627L92.8044 1241.93L137.266 1294.76ZM255.427 1294.76H166.524L210.985 1241.93L255.427 1294.76ZM19.1046 1382.01H-69.8181L-25.3566 1329.16L19.1046 1382.01ZM137.266 1382.01H48.3627L92.8044 1329.16L137.266 1382.01ZM255.427 1382.01H166.524L210.985 1329.16L255.427 1382.01ZM143.826 665.822V747.795L197.923 693.717C217.59 705.445 236.129 718.967 253.305 734.11V899.322H-14.4554C-30.8712 872.55 -44.6218 844.234 -55.51 814.779L4.01819 755.251H-69.7986V619.648C-13.7937 618.441 67.9849 632.612 143.768 665.822H143.826ZM1359.23 254.283C1389.93 254.283 1404.26 248.443 1420.9 241.59C1426.9 239.138 1433.32 236.549 1440.66 234.213C1448.92 231.585 1457.39 229.632 1465.97 228.373H1466.34H1466.59C1476.13 227.043 1485.75 226.392 1495.38 226.426C1532.7 226.426 1552.38 234.505 1569.74 241.61C1583.37 247.197 1595.44 252.141 1616.21 253.757V283.326C1588.43 281.497 1571.88 274.722 1557.01 268.629C1540.56 261.874 1526.29 256.054 1496.16 255.937H1495.38C1464.66 255.937 1450.31 261.777 1433.71 268.629C1416.35 275.754 1396.72 283.813 1359.33 283.813C1326.72 283.813 1307.57 277.662 1291.68 271.355V239.216C1293.63 240.014 1295.71 240.831 1297.66 241.629C1314.2 248.404 1328.55 254.283 1359.23 254.283ZM1359.23 404.7C1389.93 404.7 1404.28 398.86 1420.9 392.007C1438.26 384.863 1457.89 376.824 1495.26 376.824C1532.64 376.824 1552.28 384.863 1569.64 392.007C1583.27 397.555 1595.36 402.5 1616.11 404.116V433.704C1588.33 431.855 1571.78 425.081 1556.93 419.007C1540.31 412.194 1525.96 406.315 1495.26 406.315C1464.56 406.315 1450.22 412.155 1433.61 419.007C1416.25 426.113 1396.63 434.191 1359.23 434.191C1326.61 434.191 1307.47 428.02 1291.58 421.733V389.574L1297.56 392.007C1314.19 398.84 1328.55 404.68 1359.23 404.68V404.7ZM1359.23 329.501C1389.93 329.501 1404.28 323.661 1420.9 316.809C1438.26 309.684 1457.89 301.625 1495.26 301.625C1532.64 301.625 1552.28 309.684 1569.64 316.809C1583.27 322.376 1595.34 327.34 1616.11 328.956V358.506C1588.33 356.676 1571.78 349.902 1556.93 343.809C1540.31 336.995 1525.96 331.116 1495.26 331.116C1464.56 331.116 1450.22 336.956 1433.61 343.809C1416.25 350.933 1396.63 358.992 1359.23 358.992C1326.61 358.992 1307.47 352.841 1291.58 346.534V314.375L1297.56 316.809C1314.19 323.602 1328.55 329.501 1359.23 329.501ZM1380.29 505.049H1291.58L1335.95 452.314L1380.29 505.049ZM1453.86 452.314L1498.28 505.049H1409.57L1453.86 452.314ZM1571.75 452.314L1616.11 505.049H1527.48L1571.75 452.314ZM1380.29 592.083H1291.58L1335.95 539.349L1380.29 592.083ZM1409.49 592.083L1453.86 539.349L1498.28 592.083H1409.49ZM1571.75 539.349L1616.11 592.083H1527.48L1571.75 539.349ZM1359.23 649.256C1389.93 649.256 1404.26 643.416 1420.9 636.544C1426.9 634.092 1433.32 631.503 1440.66 629.167C1448.93 626.548 1457.39 624.595 1465.97 623.327H1466.34H1466.59C1476.13 621.997 1485.75 621.346 1495.38 621.38C1532.7 621.38 1552.38 629.459 1569.74 636.564C1583.37 642.151 1595.44 647.095 1616.21 648.711C1620.68 649.042 1625.55 649.237 1630.92 649.237C1661.62 649.237 1675.95 643.397 1692.59 636.525C1698.59 634.072 1705.01 631.483 1712.35 629.147C1720.62 626.529 1729.08 624.576 1737.66 623.307H1738.03H1738.28C1747.81 621.978 1757.43 621.327 1767.05 621.361C1804.39 621.361 1824.07 629.439 1841.43 636.544C1855.06 642.131 1867.13 647.076 1887.9 648.691C1892.38 649.022 1897.22 649.217 1902.62 649.217C1933.3 649.217 1947.64 643.377 1964.29 636.506C1970.28 634.053 1976.71 631.464 1984.04 629.128C1985.47 628.68 1986.93 628.252 1988.42 627.824V658.97C1984.53 660.391 1980.83 661.909 1976.98 663.486C1959.61 670.611 1939.99 678.689 1902.62 678.689C1869.99 678.689 1850.86 672.518 1834.97 666.211V666.017C1832.83 665.18 1830.75 664.323 1828.7 663.486C1812.25 656.731 1797.98 650.911 1767.85 650.813H1766.92C1736.22 650.813 1721.87 656.653 1705.27 663.486C1687.9 670.611 1668.28 678.689 1630.88 678.689C1598.26 678.689 1579.12 672.518 1563.24 666.211V666.017C1561.1 665.18 1559.01 664.323 1556.97 663.486C1540.52 656.731 1526.25 650.911 1496.12 650.813H1495.34C1464.62 650.813 1450.28 656.653 1433.67 663.486C1416.31 670.611 1396.68 678.689 1359.29 678.689C1326.68 678.689 1307.53 672.518 1291.64 666.211V634.131L1297.62 636.544C1314.21 643.358 1328.55 649.256 1359.23 649.256ZM1359.23 799.654C1389.93 799.654 1404.28 793.814 1420.9 786.961C1438.26 779.837 1457.89 771.778 1495.26 771.778C1532.64 771.778 1552.28 779.837 1569.64 786.961C1583.27 792.529 1595.36 797.473 1616.11 799.089C1620.59 799.42 1625.45 799.615 1630.83 799.615C1661.52 799.615 1675.85 793.775 1692.5 786.922C1709.86 779.798 1729.48 771.739 1766.86 771.739C1804.23 771.739 1823.87 779.798 1841.24 786.922C1854.87 792.49 1866.95 797.434 1887.71 799.05C1892.18 799.381 1897.03 799.576 1902.42 799.576C1933.12 799.576 1947.45 793.736 1964.09 786.884C1971.96 783.5 1980.02 780.568 1988.23 778.104V809.367C1984.34 810.769 1980.64 812.307 1976.78 813.884C1959.42 821.008 1939.8 829.067 1902.42 829.067C1869.8 829.067 1850.66 822.916 1834.78 816.609V816.414C1832.63 815.577 1830.55 814.721 1828.51 813.884C1811.9 807.07 1797.56 801.191 1766.86 801.191C1736.16 801.191 1721.81 807.031 1705.19 813.884C1687.82 821.008 1668.2 829.067 1630.83 829.067C1598.2 829.067 1579.07 822.916 1563.18 816.609V816.414C1561.04 815.577 1558.98 814.721 1556.93 813.884C1540.31 807.07 1525.96 801.191 1495.26 801.191C1464.56 801.191 1450.22 807.031 1433.61 813.884C1416.25 821.008 1396.63 829.067 1359.23 829.067C1326.61 829.067 1307.47 822.916 1291.58 816.609V784.528L1297.56 786.961C1314.19 793.755 1328.55 799.654 1359.23 799.654ZM1359.23 724.455C1389.93 724.455 1404.28 718.615 1420.9 711.763C1438.26 704.638 1457.89 696.579 1495.26 696.579C1532.64 696.579 1552.28 704.638 1569.64 711.763C1583.27 717.33 1595.34 722.294 1616.11 723.91C1620.59 724.241 1625.45 724.435 1630.83 724.435C1661.52 724.435 1675.85 718.595 1692.5 711.743C1709.86 704.618 1729.48 696.559 1766.86 696.559C1804.23 696.559 1823.87 704.618 1841.24 711.743C1854.87 717.311 1866.93 722.275 1887.71 723.89C1892.18 724.221 1897.03 724.416 1902.42 724.416C1933.12 724.416 1947.45 718.576 1964.09 711.724C1971.96 708.347 1980.02 705.422 1988.23 702.964V734.11C1984.34 735.531 1980.64 737.05 1976.78 738.646C1959.42 745.751 1939.8 753.81 1902.42 753.81C1869.8 753.81 1850.66 747.659 1834.78 741.352V741.176L1828.51 738.646C1811.9 731.813 1797.56 725.954 1766.86 725.954C1736.16 725.954 1721.81 731.794 1705.19 738.646C1687.82 745.751 1668.2 753.81 1630.83 753.81C1598.2 753.81 1579.07 747.659 1563.18 741.352V741.176L1556.93 738.646C1540.31 731.813 1525.96 725.954 1495.26 725.954C1464.56 725.954 1450.22 731.794 1433.61 738.646C1416.25 745.751 1396.63 753.81 1359.23 753.81C1326.61 753.81 1307.47 747.659 1291.58 741.352V709.349C1293.53 710.147 1295.61 710.965 1297.56 711.763C1314.19 718.556 1328.55 724.455 1359.23 724.455ZM1380.29 900.003H1291.58L1335.95 847.268L1380.29 900.003ZM1453.86 847.268L1498.28 900.003H1409.57L1453.86 847.268ZM1571.75 847.268L1616.11 900.003H1527.48L1571.75 847.268ZM1380.29 987.037H1291.58L1335.95 934.322L1380.29 987.037ZM1409.49 987.037L1453.86 934.322L1498.28 987.037H1409.49ZM1527.4 987.037L1571.75 934.322L1616.11 987.037H1527.4ZM1380.29 1073.92H1291.58L1335.95 1021.18L1380.29 1073.92ZM1409.49 1073.92L1453.86 1021.18L1498.28 1073.92H1409.49ZM1527.4 1073.92L1571.75 1021.18L1616.11 1073.92H1527.4ZM1752.41 592.083H1663.74L1708.09 539.349L1752.41 592.083ZM1781.61 592.083L1825.96 539.349L1870.32 592.083H1781.61ZM1943.87 539.349L1988.23 592.083H1899.5L1943.87 539.349ZM1708.05 847.268L1752.41 900.003H1663.74L1708.05 847.268ZM1825.96 847.268L1870.32 900.003H1781.61L1825.96 847.268ZM1943.87 847.268L1988.23 900.003H1899.5L1943.87 847.268ZM1943.87 934.692L1988.23 987.427H1899.5L1943.87 934.692ZM1781.61 987.427L1825.96 934.692L1870.32 987.427H1781.61ZM1663.71 987.427L1708.05 934.692L1752.41 987.427H1663.71ZM1943.87 1021.77L1988.23 1074.5H1899.5L1943.87 1021.77ZM1781.61 1074.5L1825.96 1021.77L1870.32 1074.5H1781.61ZM1663.71 1074.5L1708.05 1021.77L1752.41 1074.5H1663.71ZM1784.53 1103.7C1794.16 1103.67 1803.79 1104.32 1813.32 1105.65H1813.58H1813.93C1822.51 1106.9 1830.97 1108.86 1839.23 1111.49C1846.57 1113.8 1852.98 1116.41 1858.99 1118.86C1875.62 1125.68 1889.96 1131.56 1920.64 1131.56C1951.32 1131.56 1965.69 1125.72 1982.33 1118.86C1984.28 1118.07 1986.22 1117.25 1988.31 1116.45V1148.61C1972.42 1154.92 1953.27 1161.07 1920.64 1161.07C1883.33 1161.07 1863.64 1153.01 1846.28 1145.88C1829.68 1139.07 1815.31 1133.19 1784.61 1133.19H1783.81C1753.7 1133.31 1739.43 1139.13 1722.96 1145.88C1708.09 1151.98 1691.56 1158.75 1663.78 1160.58V1131.07C1684.55 1129.45 1696.64 1124.51 1710.25 1118.92C1727.54 1111.8 1747.22 1103.74 1784.44 1103.74L1784.53 1103.7ZM1784.53 1254.12C1821.85 1254.12 1841.53 1262.16 1858.89 1269.28C1875.52 1276.09 1889.87 1281.97 1920.54 1281.97C1951.22 1281.97 1965.59 1276.13 1982.23 1269.28L1988.21 1266.87V1299.03C1972.33 1305.31 1953.17 1311.48 1920.54 1311.48C1883.23 1311.48 1863.55 1303.41 1846.18 1296.3C1829.58 1289.49 1815.21 1283.61 1784.53 1283.61C1753.85 1283.61 1739.47 1289.45 1722.86 1296.3C1708.01 1302.37 1691.46 1309.15 1663.69 1311V1281.45C1684.44 1279.83 1696.54 1274.89 1710.13 1269.32C1727.52 1262.19 1747.22 1254.16 1784.55 1254.16L1784.53 1254.12ZM1784.53 1178.92C1821.85 1178.92 1841.53 1186.98 1858.89 1194.1C1875.52 1200.9 1889.87 1206.79 1920.54 1206.79C1951.22 1206.79 1965.59 1200.95 1982.23 1194.1L1988.21 1191.67V1223.83C1972.33 1230.11 1953.17 1236.29 1920.54 1236.29C1883.23 1236.29 1863.55 1228.21 1846.18 1221.1C1829.58 1214.29 1815.21 1208.41 1784.53 1208.41C1753.85 1208.41 1739.47 1214.25 1722.86 1221.1C1708.01 1227.17 1691.46 1233.95 1663.69 1235.8V1206.27C1684.46 1204.65 1696.54 1199.71 1710.13 1194.14C1727.52 1187.02 1747.22 1178.96 1784.55 1178.96L1784.53 1178.92ZM1990.33 1382.34H1901.62L1946.01 1329.65L1990.33 1382.34ZM1872.44 1382.34H1783.72L1828.08 1329.61L1872.44 1382.34ZM1754.54 1382.34H1665.81L1710.17 1329.61L1754.54 1382.34ZM1505.79 1148.74V1230.5L1559.77 1176.72C1579.41 1188.42 1597.92 1201.91 1615.08 1217.01V1381.89H1347.92C1331.57 1355.18 1317.88 1326.92 1307.04 1297.53L1366.43 1238.11H1292.79V1102.82C1348.62 1101.58 1430.15 1115.73 1505.81 1148.86L1505.79 1148.74ZM1680.1 418.579L1739.49 359.187H1665.83V223.915C1721.79 222.689 1803.4 236.821 1879 269.953V351.712L1932.96 297.809C1952.58 309.516 1971.08 323.005 1988.23 338.105V502.966H1721.05C1704.67 476.246 1690.95 447.982 1680.1 418.579ZM663.443 1121.43C610.514 1074.27 606.854 1028.95 606.854 1028.95L774.655 1029.86L942.474 1028.95C942.474 1028.95 938.815 1074.27 885.886 1121.43L879.17 1072.11H670.159L663.443 1121.43ZM771.345 1224.22H848.101L867.159 1194.59V1260.23H682.228V1194.55L701.305 1224.22H771.345ZM861.007 624.067L908.233 821.125L933.909 928.327H774.674L908.214 821.105H641.115L688.321 624.047L861.007 624.067ZM641.037 821.125L774.655 928.327H615.419L641.037 821.125ZM964.082 624.047L1024.43 552.216L1082.28 620.971L1138.48 507.015L1221.12 445.813L1174.92 560.548L1120.88 624.047H964.024H964.082ZM679.289 248.345L739.635 320.176H618.806L679.289 248.345ZM374.347 560.567L328.153 445.832L410.788 507.034L466.988 620.991L524.823 552.235L585.169 624.067H428.308L374.347 560.567ZM1234.39 341.044L1235.07 341.57V221.248H774.518L774.635 534.832L314.955 341.083L628.131 534.91H921.1L1234.31 341.083L1234.39 341.044ZM927.018 320.157H806.19L866.536 248.326L927.018 320.157ZM404.637 1219.06L502.261 1384.72H413.669L361.11 1295.39H314.391V1165.49L345.868 1219.06H404.637ZM416.667 894.669L407.44 930.799C372.965 928.521 352.467 920.112 334.052 912.598C327.453 909.853 321.087 907.283 314.274 905.006V866.754C326.404 869.983 338.273 874.121 349.781 879.135C368.585 886.805 385.054 893.521 416.667 894.669ZM426.128 801.795C431.325 801.795 436.114 801.639 440.591 801.406L431.092 838.255C429.476 838.255 427.841 838.255 426.128 838.255C379.934 838.255 355.562 828.23 334.052 819.431C327.453 816.726 321.087 814.117 314.274 811.878V773.627C326.404 776.855 338.273 780.994 349.781 786.008C370.357 794.417 388.129 801.795 426.128 801.795ZM511.332 1134.4L630.272 1330.87H919.115L1038.09 1134.4H1074.16L925.967 1384.72H623.439L475.222 1134.4H511.332ZM426.206 708.551C464.243 708.551 482.035 701.251 502.611 692.822C521.241 685.191 541.953 676.723 577.07 674.582L559.551 743.162L511.702 930.954H475.845L487.817 884.235L522.331 749.236L529.378 721.768C525.679 723.19 522.019 724.688 518.243 726.226C496.83 735.025 472.36 745.031 426.128 745.031C379.895 745.031 355.562 735.025 334.013 726.226C327.414 723.501 321.068 720.912 314.274 718.634V680.441C326.393 683.667 338.255 687.792 349.761 692.783C370.357 701.251 388.129 708.551 426.128 708.551H426.206ZM1141.5 930.468L1132.25 894.377C1163.87 893.248 1180.35 886.591 1199.14 878.804C1210.81 873.735 1222.85 869.557 1235.15 866.307V904.5C1228.14 906.797 1221.66 909.464 1214.89 912.286C1196.39 919.8 1175.88 928.19 1141.42 930.448L1141.5 930.468ZM1122.77 837.963C1121.08 837.963 1119.46 837.963 1117.79 837.963L1108.35 801.094C1112.82 801.328 1117.61 801.464 1122.77 801.464C1160.81 801.464 1178.54 794.183 1199.14 785.735C1210.82 780.69 1222.86 776.519 1235.15 773.257V811.47C1228.14 813.767 1221.66 816.434 1214.89 819.256C1193.3 827.938 1168.93 837.944 1122.69 837.944L1122.77 837.963ZM1203.56 1219.08L1235.15 1165.51V1295.4H1188.43L1135.87 1384.74H1047.28L1144.87 1219.08H1203.56ZM1122.79 744.797C1076.58 744.797 1052.17 734.83 1030.68 725.993C1026.9 724.474 1023.22 722.936 1019.54 721.554L1026.57 749.002L1061.2 883.904L1073.17 930.624H1037.31L989.466 742.831L971.947 674.231C1006.99 676.412 1027.8 684.88 1046.43 692.491C1066.98 700.92 1084.79 708.239 1122.81 708.239C1160.83 708.239 1178.56 700.92 1199.16 692.491C1210.83 687.422 1222.87 683.244 1235.17 679.993V718.245C1228.16 720.503 1221.72 723.19 1214.93 726.032C1193.26 734.811 1168.93 744.778 1122.71 744.778L1122.79 744.797Z" fill="#006578"/>
<path d="M-1152.2 -1027H960.273V192.981H-1152.2V-1027Z" fill="#0A2240"/>
<path d="M-1126.1 -983.278V-951.042C-1110.17 -944.735 -1091.06 -938.564 -1058.3 -938.564C-1020.9 -938.564 -1001.16 -946.642 -983.76 -953.786C-967.116 -960.6 -952.731 -966.498 -921.954 -966.498H-921.156C-890.963 -966.498 -876.675 -960.541 -860.187 -953.786C-845.276 -947.674 -828.691 -940.9 -800.854 -939.05V-968.698C-821.683 -970.313 -833.791 -975.277 -847.417 -980.864C-864.82 -987.989 -884.559 -996.067 -921.954 -996.067C-931.605 -996.111 -941.246 -995.461 -950.803 -994.121H-951.056H-951.426C-960.005 -992.859 -968.468 -990.906 -976.732 -988.281C-984.091 -985.945 -990.515 -983.336 -996.53 -980.884C-1013.21 -974.051 -1027.68 -968.153 -1058.34 -968.153C-1089 -968.153 -1103.48 -973.993 -1120.16 -980.884C-1122.07 -981.74 -1124.07 -982.558 -1126.1 -983.278ZM-1058.3 -817.405C-1027.54 -817.405 -1013.17 -823.245 -996.491 -830.116C-979.088 -837.26 -959.369 -845.339 -921.974 -845.339C-884.579 -845.339 -864.82 -837.26 -847.417 -830.116C-833.791 -824.549 -821.663 -819.585 -800.854 -817.969V-788.322C-828.691 -790.269 -845.276 -796.965 -860.168 -803.058C-876.812 -809.871 -891.217 -815.77 -921.974 -815.77C-952.731 -815.77 -967.116 -809.93 -983.76 -803.058C-1001.16 -795.914 -1020.88 -787.835 -1058.3 -787.835C-1091 -787.835 -1110.17 -794.006 -1126.1 -800.333V-832.55L-1120.12 -830.116C-1103.44 -823.381 -1089.05 -817.483 -1058.3 -817.483V-817.405ZM-1058.3 -892.759C-1027.54 -892.759 -1013.17 -898.599 -996.491 -905.471C-979.088 -912.615 -959.369 -920.694 -921.974 -920.694C-884.579 -920.694 -864.82 -912.615 -847.417 -905.471C-833.791 -899.903 -821.683 -894.939 -800.854 -893.304V-863.676C-828.691 -865.623 -845.276 -872.319 -860.168 -878.412C-876.812 -885.245 -891.217 -891.124 -921.974 -891.124C-952.731 -891.124 -967.116 -885.284 -983.76 -878.412C-1001.16 -871.288 -1020.88 -863.19 -1058.3 -863.19C-1091 -863.19 -1110.17 -869.361 -1126.1 -875.687V-907.904C-1124.15 -907.086 -1122.07 -906.288 -1120.12 -905.471C-1103.44 -898.735 -1089.05 -892.837 -1058.3 -892.837V-892.759ZM-1037.2 -716.822H-1126.1L-1081.66 -769.673L-1037.2 -716.822ZM-963.476 -769.673L-919.015 -716.822H-1007.94L-963.476 -769.673ZM-845.315 -769.673L-800.854 -716.822H-889.757L-845.315 -769.673ZM-1037.2 -629.515H-1126.1L-1081.66 -682.347L-1037.2 -629.515ZM-1008 -629.515L-963.534 -682.347L-919.073 -629.515H-1008ZM-845.373 -682.347L-800.912 -629.515H-889.815L-845.373 -682.347ZM-1037.2 -233.821H-1126.1L-1081.66 -286.672L-1037.2 -233.821ZM-963.476 -286.672L-919.015 -233.821H-1007.94L-963.476 -286.672ZM-845.315 -286.672L-800.854 -233.821H-889.757L-845.315 -286.672ZM-1058.3 -176.531C-1027.54 -176.531 -1013.17 -182.371 -996.491 -189.262C-990.476 -191.735 -984.052 -194.324 -976.693 -196.66C-968.429 -199.285 -959.966 -201.238 -951.387 -202.5H-951.017H-950.765C-941.206 -203.83 -931.566 -204.48 -921.915 -204.446C-884.52 -204.446 -864.781 -196.348 -847.378 -189.224C-833.752 -183.637 -821.644 -178.673 -800.815 -177.057V-147.41C-828.652 -149.356 -845.237 -156.033 -860.148 -162.146C-876.636 -168.92 -890.925 -174.76 -921.117 -174.857H-921.915C-952.692 -174.857 -967.077 -169.017 -983.721 -162.146C-1001.12 -155.002 -1020.86 -146.923 -1058.26 -146.923C-1090.96 -146.923 -1110.14 -153.094 -1126.06 -159.42V-191.696L-1120.08 -189.262C-1103.44 -182.43 -1089.05 -176.531 -1058.3 -176.531ZM-1058.3 -25.803C-1027.54 -25.803 -1013.17 -31.643 -996.491 -38.5146C-979.088 -45.6588 -959.369 -53.7373 -921.974 -53.7373C-884.579 -53.7373 -864.82 -45.6588 -847.417 -38.5146C-833.791 -32.9473 -821.663 -27.9833 -800.854 -26.3676V3.27979C-828.691 1.43048 -845.276 -5.36328 -860.168 -11.4562C-876.812 -18.289 -891.217 -24.1678 -921.974 -24.1678C-952.731 -24.1678 -967.116 -18.3279 -983.76 -11.4562C-1001.16 -4.33154 -1020.88 3.76642 -1058.3 3.76642C-1091 3.76642 -1110.17 -2.40442 -1126.1 -8.73096V-40.9479L-1120.12 -38.5146C-1103.44 -31.7014 -1089.05 -25.803 -1058.3 -25.803ZM-1058.3 -101.158C-1027.54 -101.158 -1013.17 -106.997 -996.491 -113.869C-979.088 -121.013 -959.369 -129.092 -921.974 -129.092C-884.579 -129.092 -864.82 -121.013 -847.417 -113.869C-833.791 -108.302 -821.683 -103.338 -800.854 -101.703V-72.0942C-828.691 -73.924 -845.276 -80.7178 -860.168 -86.8107C-876.812 -93.6434 -891.217 -99.5223 -921.974 -99.5223C-952.731 -99.5223 -967.116 -93.6824 -983.76 -86.8107C-1001.16 -79.686 -1020.88 -71.5881 -1058.3 -71.5881C-1091 -71.5881 -1110.17 -77.7784 -1126.1 -84.0855V-116.302C-1124.15 -115.485 -1122.07 -114.687 -1120.12 -113.869C-1103.44 -107.056 -1089.05 -101.158 -1058.3 -101.158ZM-1037.2 74.7799H-1126.1L-1081.66 21.9286L-1037.2 74.7799ZM-919.015 74.7799H-1007.94L-963.476 21.9286L-919.015 74.7799ZM-800.854 74.7799H-889.757L-845.315 21.9286L-800.854 74.7799ZM-1037.2 162.009H-1126.1L-1081.66 109.158L-1037.2 162.009ZM-919.015 162.009H-1007.94L-963.476 109.158L-919.015 162.009ZM-800.854 162.009H-889.757L-845.315 109.158L-800.854 162.009ZM-912.454 -554.18V-472.187L-858.377 -526.265C-838.713 -514.532 -820.174 -501.011 -802.995 -485.872V-320.661H-1070.76C-1087.18 -347.397 -1100.94 -375.689 -1111.81 -405.126L-1052.3 -464.654H-1126.1V-600.335C-1070.02 -601.542 -988.237 -587.39 -912.454 -554.18ZM303.048 -965.758C333.727 -965.758 348.074 -971.598 364.717 -978.47C370.713 -980.903 377.137 -983.512 384.476 -985.828C392.739 -988.457 401.202 -990.41 409.782 -991.668H410.132H410.405C419.937 -992.998 429.552 -993.648 439.176 -993.615C476.493 -993.615 496.193 -985.556 513.557 -978.45C527.184 -972.864 539.234 -967.9 560.024 -966.284V-936.714C532.245 -938.544 515.699 -945.319 500.826 -951.412C484.358 -958.166 470.108 -963.987 439.974 -964.104H439.176C408.478 -964.104 394.112 -958.264 377.507 -951.412C360.143 -944.287 340.521 -936.228 303.145 -936.228C270.519 -936.228 251.384 -942.379 235.499 -948.686V-980.864L241.456 -978.45C257.963 -971.598 272.33 -965.758 303.048 -965.758ZM303.048 -815.361C333.746 -815.361 348.074 -821.201 364.717 -828.053C382.081 -835.178 401.703 -843.217 439.079 -843.217C476.454 -843.217 496.096 -835.178 513.46 -828.053C527.087 -822.485 539.156 -817.541 559.926 -815.925V-786.356C532.128 -788.186 515.602 -794.96 500.729 -801.033C484.124 -807.847 469.758 -813.726 439.079 -813.726C408.4 -813.726 394.034 -807.886 377.409 -801.033C360.045 -793.928 340.423 -785.85 303.048 -785.85C270.422 -785.85 251.286 -792.021 235.402 -798.308V-830.467L241.378 -828.053C257.963 -821.181 272.31 -815.302 303.048 -815.302V-815.361ZM303.048 -890.54C333.746 -890.54 348.074 -896.38 364.717 -903.232C382.081 -910.376 401.703 -918.416 439.079 -918.416C476.454 -918.416 496.096 -910.376 513.46 -903.232C527.087 -897.665 539.136 -892.72 559.926 -891.105V-861.535C532.128 -863.384 515.602 -870.159 500.729 -876.232C484.124 -883.045 469.758 -888.924 439.079 -888.924C408.4 -888.924 394.034 -883.084 377.409 -876.232C360.045 -869.127 340.423 -861.048 303.048 -861.048C270.422 -861.048 251.286 -867.219 235.402 -873.507V-905.607L241.378 -903.174C257.963 -896.38 272.31 -890.482 303.048 -890.482V-890.54ZM324.071 -714.934H235.363L279.688 -767.668L324.071 -714.934ZM397.615 -767.668L441.979 -714.934H353.271L397.615 -767.668ZM515.524 -767.668L559.887 -714.934H471.16L515.524 -767.668ZM324.071 -627.899H235.363L279.688 -680.634L324.071 -627.899ZM353.271 -627.899L397.615 -680.634L441.979 -627.899H353.271ZM515.524 -680.634L559.887 -627.899H471.16L515.524 -680.634ZM303.048 -570.746C333.727 -570.746 348.074 -576.586 364.717 -583.438C370.713 -585.891 377.137 -588.499 384.476 -590.816C392.737 -593.453 401.201 -595.406 409.782 -596.656H410.132H410.405C419.937 -597.985 429.552 -598.636 439.176 -598.602C476.493 -598.602 496.193 -590.524 513.557 -583.418C527.184 -577.832 539.234 -572.887 560.024 -571.271C564.501 -570.921 569.348 -570.746 574.74 -570.746C605.419 -570.746 619.766 -576.586 636.41 -583.438C642.406 -585.891 648.81 -588.499 656.149 -590.816C664.41 -593.452 672.874 -595.405 681.455 -596.656H681.806H682.059C691.597 -597.984 701.219 -598.635 710.85 -598.602C748.167 -598.602 767.847 -590.524 785.211 -583.418C798.838 -577.832 810.907 -572.887 831.678 -571.271C836.174 -570.921 841.021 -570.746 846.414 -570.746C877.093 -570.746 891.44 -576.586 908.064 -583.438C914.079 -585.891 920.483 -588.499 927.822 -590.816L932.202 -592.139V-560.857C928.309 -559.436 924.63 -557.898 920.775 -556.321C903.411 -549.196 883.789 -541.137 846.414 -541.137C813.788 -541.137 794.633 -547.289 778.748 -553.596V-553.791C776.627 -554.628 774.544 -555.484 772.5 -556.321C756.031 -563.076 741.762 -568.897 711.648 -569.013H710.85C680.151 -569.013 665.785 -563.173 649.18 -556.321C631.816 -549.196 612.194 -541.137 574.818 -541.137C542.193 -541.137 523.038 -547.289 507.153 -553.596V-553.791C505.031 -554.628 502.948 -555.484 500.904 -556.321C484.436 -563.076 470.186 -568.897 440.052 -569.013H439.254C408.556 -569.013 394.19 -563.173 377.585 -556.321C360.221 -549.196 340.598 -541.137 303.223 -541.137C270.597 -541.137 251.462 -547.289 235.577 -553.596V-585.852C237.524 -585.054 239.607 -584.236 241.534 -583.438C257.964 -576.625 272.33 -570.746 303.048 -570.746ZM303.048 -420.329C333.746 -420.329 348.074 -426.169 364.717 -433.021C382.081 -440.165 401.703 -448.205 439.079 -448.205C476.454 -448.205 496.096 -440.165 513.46 -433.021C527.087 -427.473 539.156 -422.529 559.926 -420.913C564.404 -420.582 569.251 -420.387 574.643 -420.387C605.322 -420.387 619.669 -426.227 636.293 -433.079C653.657 -440.223 673.279 -448.263 710.674 -448.263C748.069 -448.263 767.691 -440.223 785.055 -433.079C798.682 -427.531 810.751 -422.587 831.502 -420.971C835.999 -420.64 840.846 -420.446 846.238 -420.446C876.918 -420.446 891.264 -426.286 907.888 -433.138C915.759 -436.527 923.818 -439.458 932.027 -441.917V-410.771C928.134 -409.35 924.454 -407.812 920.6 -406.235C903.236 -399.13 883.614 -391.051 846.238 -391.051C813.593 -391.051 794.458 -397.222 778.573 -403.51V-403.704L772.324 -406.235C755.719 -413.048 741.353 -418.927 710.674 -418.927C679.995 -418.927 665.61 -413.087 649.005 -406.235C631.641 -399.13 612.019 -391.051 574.643 -391.051C542.017 -391.051 522.862 -397.222 506.978 -403.51V-403.704L500.729 -406.235C484.085 -412.912 469.719 -418.752 439.04 -418.752C408.361 -418.752 393.995 -412.912 377.371 -406.06C360.006 -398.955 340.384 -390.876 303.009 -390.876C270.383 -390.876 251.247 -397.047 235.363 -403.335V-435.454L241.339 -433.021C257.964 -426.227 272.31 -420.329 303.048 -420.329ZM303.048 -495.528C333.746 -495.528 348.074 -501.367 364.717 -508.22C382.081 -515.344 401.703 -523.403 439.079 -523.403C476.454 -523.403 496.096 -515.344 513.46 -508.22C527.087 -502.652 539.136 -497.688 559.926 -496.073C564.404 -495.742 569.251 -495.547 574.643 -495.547C605.322 -495.547 619.669 -501.387 636.293 -508.239C653.657 -515.364 673.279 -523.423 710.674 -523.423C748.069 -523.423 767.691 -515.364 785.055 -508.239C798.682 -502.672 810.732 -497.708 831.502 -496.092C835.999 -495.761 840.846 -495.566 846.238 -495.566C876.918 -495.566 891.264 -501.406 907.888 -508.259C915.762 -511.639 923.821 -514.571 932.027 -517.038V-485.736C928.134 -484.334 924.454 -482.797 920.6 -481.22C903.236 -474.095 883.614 -466.036 846.238 -466.036C813.593 -466.036 794.458 -472.187 778.573 -478.495V-478.689C776.451 -479.526 774.368 -480.383 772.324 -481.22C755.719 -488.033 741.353 -493.912 710.674 -493.912C679.995 -493.912 665.61 -488.072 649.005 -481.22C631.641 -474.095 612.019 -466.036 574.643 -466.036C542.017 -466.036 522.862 -472.187 506.978 -478.495V-478.689C504.856 -479.526 502.773 -480.383 500.729 -481.22C484.124 -488.033 469.758 -493.912 439.079 -493.912C408.4 -493.912 394.034 -488.072 377.409 -481.22C360.045 -474.095 340.423 -466.036 303.048 -466.036C270.422 -466.036 251.286 -472.187 235.402 -478.495V-510.653L241.339 -508.298C257.964 -501.426 272.31 -495.528 303.048 -495.528ZM324.11 -319.979H235.402L279.688 -372.714L324.11 -319.979ZM397.654 -372.714L442.018 -319.979H353.31L397.654 -372.714ZM515.563 -372.714L559.926 -319.979H471.199L515.563 -372.714ZM324.11 -232.945H235.402L279.688 -285.68L324.11 -232.945ZM353.31 -232.945L397.654 -285.68L442.018 -232.945H353.31ZM471.199 -232.945L515.563 -285.68L559.926 -232.945H471.199ZM324.11 -146.067H235.402L279.688 -198.782L324.11 -146.067ZM353.31 -146.067L397.615 -198.782L441.979 -146.047L353.31 -146.067ZM471.199 -146.067L515.524 -198.782L559.887 -146.047L471.199 -146.067ZM696.269 -627.899H607.541L651.905 -680.634L696.269 -627.899ZM725.469 -627.899L769.833 -680.634L814.177 -627.899H725.469ZM887.741 -680.634L932.085 -627.899H843.377L887.741 -680.634ZM651.925 -372.714L696.269 -319.979H607.541L651.925 -372.714ZM769.833 -372.714L814.177 -319.979H725.469L769.833 -372.714ZM887.741 -372.714L932.085 -319.979H843.377L887.741 -372.714ZM887.741 -285.31L932.085 -232.575H843.377L887.741 -285.31ZM725.469 -232.575L769.833 -285.31L814.177 -232.575H725.469ZM607.561 -232.575L651.925 -285.31L696.269 -232.575H607.561ZM887.741 -198.256L932.085 -145.521H843.377L887.741 -198.256ZM725.469 -145.521L769.833 -198.256L814.177 -145.521H725.469ZM607.561 -145.521L651.925 -198.256L696.269 -145.521H607.561ZM728.408 -116.322C738.033 -116.365 747.648 -115.715 757.18 -114.375H757.433H757.802C766.38 -113.107 774.843 -111.154 783.109 -108.535C790.448 -106.199 796.872 -103.61 802.867 -101.158C819.511 -94.3248 833.838 -88.446 864.537 -88.446C895.235 -88.446 909.582 -94.2859 926.206 -101.158L932.182 -103.571V-71.3934C916.298 -65.0862 897.143 -58.9349 864.537 -58.9349C827.22 -58.9349 807.52 -67.0134 790.156 -74.1381C773.57 -80.9319 759.204 -86.8107 728.506 -86.8107H727.707C697.573 -86.7134 683.324 -80.8735 666.855 -74.1381C651.983 -68.0452 635.437 -61.2709 607.658 -59.4215V-89.0104C628.429 -90.6067 640.517 -95.5707 654.124 -101.158C671.294 -108.185 690.994 -116.244 728.311 -116.244L728.408 -116.322ZM728.408 34.0757C765.725 34.0757 785.406 42.1348 802.77 49.2594C819.414 56.0532 833.741 61.9515 864.44 61.9515C895.138 61.9515 909.485 56.1116 926.109 49.2594C928.056 48.4613 930.002 47.6437 932.085 46.8456V78.9846C916.201 85.2917 897.046 91.4432 864.44 91.4432C827.122 91.4432 807.442 83.384 790.078 76.2788C773.453 69.446 759.107 63.5867 728.408 63.5867C697.71 63.5867 683.363 69.4266 666.758 76.2788C651.886 82.3523 635.339 89.1267 607.561 90.9565V61.4648C628.332 59.8492 640.44 54.9048 654.027 49.3374C671.294 42.2126 690.994 34.1534 728.311 34.1534L728.408 34.0757ZM728.408 -41.1036C765.725 -41.1036 785.406 -33.064 802.77 -25.9199C819.414 -19.1261 833.741 -13.2277 864.44 -13.2277C895.138 -13.2277 909.485 -19.0677 926.109 -25.9199L932.085 -28.3531V3.80542C916.201 10.093 897.046 16.2639 864.44 16.2639C827.122 16.2639 807.442 8.1853 790.078 1.08008C773.453 -5.73322 759.107 -11.6121 728.408 -11.6121C697.71 -11.6121 683.363 -5.77216 666.758 1.08008C651.886 7.15356 635.359 13.928 607.561 15.7773V-13.7144C628.332 -15.3301 640.42 -20.2941 654.027 -25.842C671.294 -32.9861 690.994 -41.1036 728.311 -41.1036H728.408ZM934.227 162.32H845.518L889.882 109.586L934.227 162.32ZM816.319 162.32H727.415L771.779 109.586L816.319 162.32ZM698.41 162.32H609.702L654.066 109.586L698.41 162.32ZM449.688 -71.2766V10.4824L503.552 -43.2839C523.168 -31.564 541.667 -18.0692 558.817 -2.96893V161.873H291.66C275.259 135.167 261.533 106.907 250.683 77.5052L310.075 18.1132H236.434V-117.178C292.38 -118.385 373.983 -104.253 449.591 -71.1208L449.688 -71.2766ZM623.854 -801.403L683.246 -860.795H609.605V-996.087C665.571 -997.294 747.174 -983.161 822.781 -950.029V-868.27L876.742 -922.231C896.361 -910.524 914.854 -897.029 931.988 -881.916V-717.075H664.831C648.44 -743.773 634.715 -772.018 623.854 -801.403ZM-392.799 -98.549C-445.708 -145.716 -449.388 -191.034 -449.388 -191.034L-281.568 -190.119L-113.748 -191.034C-113.748 -191.034 -117.427 -145.716 -170.337 -98.549L-177.052 -147.877H-386.063L-392.799 -98.549ZM-284.838 4.17523H-208.16L-189.121 -25.4332V40.2465H-373.936V-25.4332L-354.917 4.17523H-284.838ZM-195.292 -595.896L-148.008 -398.896L-122.313 -291.675H-281.568L-148.008 -398.916H-415.107L-367.901 -595.896H-195.292ZM-415.263 -398.838L-281.723 -291.617H-440.958L-415.263 -398.838ZM-92.1205 -595.896L-31.7746 -667.708L26.099 -599.011L82.318 -712.967L164.953 -774.189L118.74 -659.337L64.701 -595.896H-92.1205ZM-376.934 -971.598L-316.588 -899.767H-437.416L-376.934 -971.598ZM-681.953 -659.435L-728.166 -774.189L-645.512 -712.967L-589.234 -599.011L-531.4 -667.766L-470.976 -595.896H-627.836L-681.953 -659.435ZM178.171 -878.938L178.832 -878.412V-998.734H-281.704L-281.587 -685.169L-741.286 -878.919L-428.072 -685.072H-135.083L178.132 -878.919L178.171 -878.938ZM-129.224 -899.826H-250.052L-189.706 -971.657L-129.224 -899.826ZM-651.585 -0.944397L-553.981 164.715H-642.572L-695.131 75.403H-741.851V-54.4965L-710.276 -0.944397H-651.585ZM-639.555 -325.313L-648.801 -289.184C-683.257 -291.442 -703.774 -299.851 -722.19 -307.385C-728.789 -310.11 -735.135 -312.68 -741.948 -314.957V-353.228C-729.817 -350.005 -717.947 -345.867 -706.442 -340.847C-687.656 -333.1 -671.168 -326.462 -639.555 -325.313ZM-630.094 -418.246C-624.916 -418.246 -620.127 -418.402 -615.65 -418.655L-625.13 -381.785C-626.746 -381.785 -628.381 -381.785 -630.094 -381.785C-676.288 -381.785 -700.66 -391.791 -722.19 -400.59C-728.789 -403.296 -735.135 -405.904 -741.948 -408.143V-446.355C-729.817 -443.133 -717.947 -438.994 -706.442 -433.975C-685.846 -425.565 -668.093 -418.265 -630.094 -418.265V-418.246ZM-544.987 -85.5844L-426.047 110.91H-137.107L-18.1481 -85.6038H17.9232L-130.314 164.715H-432.783L-581.019 -85.6038L-544.987 -85.5844ZM-630.094 -511.412C-592.077 -511.412 -574.265 -518.712 -553.708 -527.161C-535.059 -534.772 -514.347 -543.24 -479.229 -545.381L-496.749 -476.82L-544.598 -289.028H-580.455L-568.483 -335.747L-534.008 -470.669L-526.942 -498.136C-530.66 -496.715 -534.3 -495.216 -538.076 -493.678C-559.49 -484.879 -583.978 -474.874 -630.191 -474.874C-676.405 -474.874 -700.757 -484.879 -722.307 -493.678C-728.906 -496.423 -735.271 -498.993 -742.046 -501.27V-539.444C-729.923 -536.201 -718.055 -532.069 -706.539 -527.083C-685.846 -518.732 -668.093 -511.432 -630.094 -511.432V-511.412ZM85.1795 -289.495L75.9525 -325.586C107.566 -326.734 124.054 -333.372 142.839 -341.159C154.5 -346.237 166.533 -350.415 178.832 -353.656V-315.463C171.844 -313.166 165.362 -310.499 158.588 -307.677C140.153 -300.182 119.655 -291.812 85.1795 -289.534V-289.495ZM66.4528 -382.019C64.7787 -382.019 63.1437 -382.019 61.4891 -382.019L51.931 -418.966C56.4277 -418.733 61.2165 -418.596 66.3557 -418.596C104.393 -418.596 122.146 -425.877 142.742 -434.325C154.41 -439.386 166.442 -443.563 178.735 -446.823V-408.591C171.747 -406.294 165.264 -403.627 158.49 -400.804C137.058 -392.064 112.686 -382.058 66.4528 -382.058V-382.019ZM147.316 -0.944397L178.891 -54.4965V75.403H132.171L79.6122 164.715H-8.96002L88.6057 -0.944397H147.316ZM66.4918 -475.205C20.2591 -475.205 -4.1322 -485.191 -25.6232 -494.029C-29.3996 -495.528 -33.079 -497.065 -36.7581 -498.448L-29.8279 -471L4.78339 -336.098L16.7552 -289.378H-19.1019L-66.8141 -477.151L-84.3339 -545.77C-49.2944 -543.59 -28.5042 -535.122 -9.87488 -527.491C10.7011 -519.062 28.4934 -511.763 66.5308 -511.763C104.568 -511.763 122.283 -519.062 142.878 -527.491C154.543 -532.561 166.575 -536.738 178.871 -539.989V-501.737C171.883 -499.46 165.44 -496.793 158.646 -493.951C137.038 -485.191 112.686 -475.205 66.4918 -475.205Z" fill="#006578"/>
<path d="M960.251 -1027H3072.73V192.981H960.251V-1027Z" fill="#0A2240"/>
<path d="M986.315 -983.278V-951.042C1002.22 -944.735 1021.35 -938.564 1054.12 -938.564C1091.51 -938.564 1111.25 -946.642 1128.65 -953.786C1145.28 -960.6 1159.68 -966.498 1190.44 -966.498H1191.24C1221.43 -966.498 1235.74 -960.541 1252.23 -953.786C1267.14 -947.674 1283.7 -940.9 1311.56 -939.05V-968.698C1290.73 -970.313 1278.62 -975.277 1264.98 -980.864C1247.57 -987.989 1227.85 -996.067 1190.44 -996.067C1180.79 -996.11 1171.15 -995.459 1161.59 -994.121H1161.34H1160.99C1152.41 -992.861 1143.94 -990.908 1135.68 -988.281C1128.32 -985.945 1121.88 -983.336 1115.86 -980.884C1099.2 -974.051 1084.83 -968.153 1054.08 -968.153C1023.32 -968.153 1008.94 -973.993 992.252 -980.884C990.403 -981.74 988.398 -982.558 986.315 -983.278ZM1054.12 -817.405C1084.87 -817.405 1099.24 -823.245 1115.9 -830.116C1133.31 -837.26 1153.03 -845.339 1190.44 -845.339C1227.85 -845.339 1247.59 -837.26 1265 -830.116C1278.62 -824.549 1290.75 -819.585 1311.56 -817.969V-788.322C1283.7 -790.269 1267.14 -796.965 1252.25 -803.058C1235.58 -809.871 1221.1 -815.77 1190.44 -815.77C1159.78 -815.77 1145.3 -809.93 1128.63 -803.058C1111.23 -795.914 1091.51 -787.835 1054.12 -787.835C1021.41 -787.835 1002.22 -794.006 986.315 -800.333V-832.55L992.291 -830.116C1009.01 -823.381 1023.42 -817.483 1054.18 -817.483L1054.12 -817.405ZM1054.12 -892.759C1084.87 -892.759 1099.24 -898.599 1115.9 -905.471C1133.31 -912.615 1153.03 -920.694 1190.44 -920.694C1227.85 -920.694 1247.59 -912.615 1265 -905.471C1278.62 -899.903 1290.73 -894.939 1311.56 -893.304V-863.676C1283.7 -865.623 1267.14 -872.319 1252.25 -878.412C1235.58 -885.245 1221.1 -891.124 1190.44 -891.124C1159.78 -891.124 1145.3 -885.284 1128.63 -878.412C1111.23 -871.288 1091.51 -863.19 1054.12 -863.19C1021.41 -863.19 1002.22 -869.361 986.315 -875.687V-907.904C988.262 -907.086 990.345 -906.288 992.291 -905.471C1009.01 -898.735 1023.42 -892.837 1054.18 -892.837L1054.12 -892.759ZM1075.28 -716.9H986.315L1030.76 -769.751L1075.28 -716.9ZM1149 -769.751L1193.44 -716.9H1104.53L1149 -769.751ZM1267.16 -769.751L1311.62 -716.9H1222.7L1267.16 -769.751ZM1075.28 -629.593H986.315L1030.76 -682.425L1075.28 -629.593ZM1104.48 -629.593L1148.94 -682.425L1193.44 -629.671L1104.48 -629.593ZM1267.1 -682.425L1311.56 -629.593H1222.64L1267.1 -682.425ZM1075.28 -233.821H986.315L1030.76 -286.672L1075.28 -233.821ZM1149 -286.672L1193.44 -233.821H1104.53L1149 -286.672ZM1267.16 -286.672L1311.62 -233.821H1222.7L1267.16 -286.672ZM1054.18 -176.531C1084.93 -176.531 1099.3 -182.371 1115.96 -189.262C1121.98 -191.735 1128.42 -194.324 1135.78 -196.66C1144.04 -199.287 1152.51 -201.24 1161.08 -202.5H1161.43H1161.69C1171.25 -203.828 1180.89 -204.479 1190.54 -204.446C1227.95 -204.446 1247.67 -196.348 1265.07 -189.224C1278.7 -183.637 1290.83 -178.673 1311.66 -177.057V-147.41C1283.8 -149.356 1267.24 -156.033 1252.32 -162.146C1235.84 -168.92 1221.53 -174.76 1191.34 -174.857H1190.54C1159.78 -174.857 1145.38 -169.017 1128.75 -162.146C1111.35 -155.002 1091.61 -146.923 1054.21 -146.923C1021.51 -146.923 1002.32 -153.094 986.413 -159.42V-191.696L992.389 -189.262C1009.03 -182.43 1023.42 -176.531 1054.18 -176.531ZM1054.18 -25.803C1084.93 -25.803 1099.3 -31.6429 1115.96 -38.5146C1133.36 -45.6588 1153.08 -53.7372 1190.5 -53.7372C1227.91 -53.7372 1247.65 -45.6588 1265.05 -38.5146C1278.68 -32.9472 1290.81 -27.9832 1311.62 -26.3675V3.27985C1283.76 1.43054 1267.2 -5.36322 1252.3 -11.4562C1235.64 -18.2889 1221.16 -24.1678 1190.5 -24.1678C1159.84 -24.1678 1145.36 -18.3279 1128.69 -11.4562C1111.29 -4.33148 1091.57 3.76648 1054.18 3.76648C1021.47 3.76648 1002.28 -2.40436 986.374 -8.7309V-40.9479L992.35 -38.5146C1009.01 -31.7014 1023.42 -25.803 1054.18 -25.803ZM1054.18 -101.157C1084.93 -101.157 1099.3 -106.997 1115.96 -113.869C1133.36 -121.013 1153.08 -129.092 1190.5 -129.092C1227.91 -129.092 1247.65 -121.013 1265.05 -113.869C1278.68 -108.302 1290.79 -103.338 1311.62 -101.703V-72.0941C1283.76 -73.924 1267.2 -80.7177 1252.3 -86.8107C1235.64 -93.6434 1221.16 -99.5223 1190.5 -99.5223C1159.84 -99.5223 1145.36 -93.6823 1128.69 -86.8107C1111.29 -79.686 1091.57 -71.588 1054.18 -71.588C1021.47 -71.588 1002.28 -77.7783 986.374 -84.0854V-116.302C988.32 -115.485 990.403 -114.687 992.35 -113.869C1009.01 -107.056 1023.42 -101.157 1054.18 -101.157ZM1075.28 74.7799H986.315L1030.76 21.9287L1075.28 74.7799ZM1193.44 74.7799H1104.53L1149 21.9287L1193.44 74.7799ZM1311.62 74.7799H1222.7L1267.16 21.9287L1311.62 74.7799ZM1075.28 162.009H986.315L1030.76 109.158L1075.28 162.009ZM1193.44 162.009H1104.53L1149 109.158L1193.44 162.009ZM1311.62 162.009H1222.7L1267.16 109.158L1311.62 162.009ZM1200 -554.18V-472.187L1254.1 -526.265C1273.75 -514.531 1292.28 -501.01 1309.46 -485.872V-320.661H1041.7C1025.28 -347.402 1011.52 -375.693 1000.64 -405.126L1060.17 -464.654H986.315V-600.335C1042.46 -601.542 1124.23 -587.39 1200 -554.18ZM2415.48 -965.758C2446.16 -965.758 2460.51 -971.598 2477.15 -978.47C2483.15 -980.903 2489.55 -983.512 2496.89 -985.828C2505.15 -988.455 2513.62 -990.408 2522.2 -991.668H2522.55H2522.8C2532.34 -992.997 2541.96 -993.647 2551.59 -993.615C2588.91 -993.615 2608.59 -985.556 2625.95 -978.45C2639.58 -972.864 2651.65 -967.9 2672.42 -966.284V-936.714C2644.64 -938.544 2628.11 -945.319 2613.24 -951.412C2596.77 -958.166 2582.5 -963.987 2552.39 -964.104H2551.41C2520.72 -964.104 2506.35 -958.264 2489.75 -951.412C2472.38 -944.287 2452.76 -936.228 2415.38 -936.228C2382.76 -936.228 2363.6 -942.379 2347.72 -948.686V-980.864L2353.69 -978.45C2370.38 -971.598 2384.78 -965.758 2415.48 -965.758ZM2415.48 -815.361C2446.16 -815.361 2460.51 -821.201 2477.13 -828.053C2494.5 -835.178 2514.12 -843.217 2551.51 -843.217C2588.91 -843.217 2608.53 -835.178 2625.89 -828.053C2639.52 -822.485 2651.59 -817.541 2672.34 -815.925V-786.356C2644.56 -788.186 2628.02 -794.96 2613.16 -801.033C2596.56 -807.847 2582.19 -813.726 2551.51 -813.726C2520.83 -813.726 2506.45 -807.886 2489.84 -801.033C2472.48 -793.928 2452.86 -785.85 2415.48 -785.85C2382.86 -785.85 2363.7 -792.021 2347.82 -798.308V-830.467L2353.79 -828.053C2370.38 -821.181 2384.78 -815.302 2415.48 -815.302V-815.361ZM2415.48 -890.54C2446.16 -890.54 2460.51 -896.38 2477.13 -903.232C2494.5 -910.376 2514.12 -918.416 2551.51 -918.416C2588.91 -918.416 2608.53 -910.376 2625.89 -903.232C2639.52 -897.665 2651.57 -892.72 2672.34 -891.105V-861.535C2644.56 -863.384 2628.02 -870.159 2613.16 -876.232C2596.56 -883.045 2582.19 -888.924 2551.51 -888.924C2520.83 -888.924 2506.45 -883.084 2489.84 -876.232C2472.48 -869.127 2452.86 -861.048 2415.48 -861.048C2382.86 -861.048 2363.7 -867.219 2347.82 -873.507V-905.607L2353.79 -903.174C2370.38 -896.38 2384.78 -890.482 2415.48 -890.482V-890.54ZM2436.56 -714.934H2347.84L2392.18 -767.668L2436.56 -714.934ZM2510.09 -767.668L2554.45 -714.934H2465.76L2510.09 -767.668ZM2628 -767.668L2672.34 -714.934H2583.63L2628 -767.668ZM2436.56 -627.899H2347.84L2392.18 -680.634L2436.56 -627.899ZM2465.76 -627.899L2510.09 -680.634L2554.45 -627.899H2465.76ZM2628 -680.634L2672.34 -627.899H2583.63L2628 -680.634ZM2415.48 -570.746C2446.16 -570.746 2460.51 -576.586 2477.15 -583.438C2483.15 -585.891 2489.55 -588.499 2496.89 -590.816C2505.15 -593.452 2513.61 -595.405 2522.2 -596.656H2522.55H2522.8C2532.28 -597.983 2541.84 -598.64 2551.41 -598.622C2588.73 -598.622 2608.41 -590.543 2625.78 -583.438C2639.4 -577.851 2651.47 -572.907 2672.24 -571.291C2676.74 -570.94 2681.59 -570.765 2686.98 -570.765C2717.66 -570.765 2732 -576.605 2748.63 -583.457C2754.62 -585.91 2761.05 -588.519 2768.39 -590.835C2776.62 -593.467 2785.05 -595.42 2793.6 -596.675H2793.97H2794.22C2803.76 -598.005 2813.38 -598.655 2823.01 -598.622C2860.33 -598.622 2880.01 -590.543 2897.37 -583.438C2911 -577.851 2923.07 -572.907 2943.84 -571.291C2948.32 -570.94 2953.18 -570.765 2958.55 -570.765C2989.25 -570.765 3003.58 -576.605 3020.22 -583.457C3026.4 -585.891 3032.74 -588.499 3040.02 -590.816C3041.44 -591.263 3042.9 -591.711 3044.4 -592.139V-560.857C3040.51 -559.436 3036.83 -557.898 3032.98 -556.321C3015.61 -549.196 2995.99 -541.137 2958.59 -541.137C2925.99 -541.137 2906.83 -547.289 2890.95 -553.596V-553.791C2888.81 -554.628 2886.72 -555.484 2884.68 -556.321C2868.23 -563.076 2853.96 -568.896 2823.85 -569.013H2823.05C2792.33 -569.013 2777.98 -563.173 2761.38 -556.321C2744.02 -549.196 2724.39 -541.137 2687.02 -541.137C2654.39 -541.137 2635.24 -547.289 2619.35 -553.596V-553.791C2617.23 -554.628 2615.15 -555.484 2613.1 -556.321C2596.64 -563.076 2582.37 -568.896 2552.25 -569.013H2551.41C2520.72 -569.013 2506.35 -563.173 2489.75 -556.321C2472.38 -549.196 2452.76 -541.137 2415.38 -541.137C2382.76 -541.137 2363.6 -547.289 2347.72 -553.596V-585.852C2349.76 -585.054 2351.75 -584.236 2353.69 -583.438C2370.38 -576.625 2384.78 -570.746 2415.48 -570.746ZM2415.48 -420.329C2446.16 -420.329 2460.51 -426.169 2477.13 -433.021C2494.5 -440.165 2514.12 -448.205 2551.51 -448.205C2588.91 -448.205 2608.53 -440.165 2625.89 -433.021C2639.52 -427.473 2651.59 -422.529 2672.34 -420.913C2676.84 -420.582 2681.68 -420.387 2687.08 -420.387C2717.76 -420.387 2732.1 -426.227 2748.73 -433.079C2766.09 -440.223 2785.71 -448.263 2823.09 -448.263C2860.46 -448.263 2880.11 -440.223 2897.47 -433.079C2911.1 -427.531 2923.18 -422.587 2943.94 -420.971C2948.41 -420.64 2953.28 -420.446 2958.65 -420.446C2989.35 -420.446 3003.7 -426.286 3020.32 -433.138C3028.19 -436.527 3036.25 -439.458 3044.46 -441.917V-410.771C3040.57 -409.35 3036.89 -407.812 3033.03 -406.235C3015.67 -399.13 2996.05 -391.051 2958.65 -391.051C2926.03 -391.051 2906.89 -397.222 2891.01 -403.51V-403.704L2884.76 -406.235C2868.13 -412.912 2853.79 -418.752 2823.09 -418.752C2792.39 -418.752 2778.04 -412.912 2761.44 -406.06C2744.07 -398.955 2724.45 -390.876 2687.08 -390.876C2654.43 -390.876 2635.3 -397.047 2619.41 -403.335V-403.529L2613.16 -406.06C2596.56 -412.912 2582.19 -418.752 2551.41 -418.752C2520.64 -418.752 2506.35 -412.912 2489.75 -406.06C2472.38 -398.955 2452.76 -390.876 2415.38 -390.876C2382.76 -390.876 2363.6 -397.047 2347.72 -403.335V-435.454L2353.69 -433.021C2370.38 -426.227 2384.78 -420.329 2415.48 -420.329ZM2415.48 -495.528C2446.16 -495.528 2460.51 -501.367 2477.13 -508.22C2494.5 -515.344 2514.12 -523.403 2551.51 -523.403C2588.91 -523.403 2608.53 -515.344 2625.89 -508.22C2639.52 -502.652 2651.57 -497.688 2672.34 -496.073C2676.84 -495.742 2681.68 -495.547 2687.08 -495.547C2717.76 -495.547 2732.1 -501.387 2748.73 -508.239C2766.09 -515.364 2785.71 -523.423 2823.09 -523.423C2860.46 -523.423 2880.11 -515.364 2897.47 -508.239C2911.1 -502.672 2923.17 -497.708 2943.94 -496.092C2948.41 -495.761 2953.28 -495.566 2958.65 -495.566C2989.35 -495.566 3003.7 -501.406 3020.32 -508.259C3028.2 -511.639 3036.25 -514.571 3044.46 -517.038V-485.736C3040.57 -484.334 3036.89 -482.797 3033.03 -481.22C3015.67 -474.095 2996.05 -466.036 2958.65 -466.036C2926.03 -466.036 2906.89 -472.187 2891.01 -478.494V-478.689C2888.88 -479.526 2886.8 -480.383 2884.76 -481.22C2868.13 -488.033 2853.79 -493.912 2823.09 -493.912C2792.39 -493.912 2778.04 -488.072 2761.44 -481.22C2744.07 -474.095 2724.45 -466.036 2687.08 -466.036C2654.43 -466.036 2635.3 -472.187 2619.41 -478.494V-478.689C2617.29 -479.526 2615.21 -480.383 2613.16 -481.22C2596.56 -488.033 2582.19 -493.912 2551.51 -493.912C2520.83 -493.912 2506.45 -488.072 2489.84 -481.22C2472.48 -474.095 2452.86 -466.036 2415.48 -466.036C2382.86 -466.036 2363.7 -472.187 2347.82 -478.494V-510.653L2353.79 -508.298C2370.38 -501.426 2384.78 -495.528 2415.48 -495.528ZM2436.56 -319.979H2347.84L2392.18 -372.714L2436.56 -319.979ZM2510.11 -372.714L2554.47 -319.979H2465.76L2510.11 -372.714ZM2628.02 -372.714L2672.36 -319.979H2583.65L2628.02 -372.714ZM2436.56 -232.945H2347.84L2392.18 -285.68L2436.56 -232.945ZM2465.76 -232.945L2510.13 -285.68L2554.49 -232.945H2465.76ZM2583.67 -232.945L2628.03 -285.68L2672.38 -232.945H2583.67ZM2436.56 -146.066H2347.84L2392.18 -198.782L2436.56 -146.066ZM2465.76 -146.066L2510.09 -198.782L2554.45 -146.047L2465.76 -146.066ZM2583.67 -146.066L2628 -198.782L2672.34 -146.047L2583.67 -146.066ZM2808.64 -627.899H2719.94L2764.3 -680.634L2808.64 -627.899ZM2837.84 -627.899L2882.21 -680.634L2926.55 -627.899H2837.84ZM3000.1 -680.634L3044.46 -627.899H2955.75L3000.1 -680.634ZM2764.3 -372.714L2808.64 -319.979H2719.94L2764.3 -372.714ZM2882.21 -372.714L2926.55 -319.979H2837.84L2882.21 -372.714ZM3000.1 -372.714L3044.46 -319.979H2955.75L3000.1 -372.714ZM3000.1 -285.31L3044.46 -232.575H2955.75L3000.1 -285.31ZM2837.84 -232.575L2882.21 -285.31L2926.55 -232.575H2837.84ZM2719.94 -232.575L2764.3 -285.31L2808.64 -232.575H2719.94ZM3000.1 -198.256L3044.46 -145.521H2955.75L3000.1 -198.256ZM2837.84 -145.521L2882.21 -198.256L2926.55 -145.521H2837.84ZM2719.94 -145.521L2764.3 -198.256L2808.64 -145.521H2719.94ZM2840.78 -116.322C2850.41 -116.365 2860.02 -115.714 2869.55 -114.375H2869.81H2870.18C2878.72 -113.102 2887.15 -111.149 2895.39 -108.535C2902.73 -106.199 2909.15 -103.61 2915.14 -101.157C2931.79 -94.3248 2946.12 -88.4459 2976.81 -88.4459C3007.51 -88.4459 3021.84 -94.2858 3038.48 -101.157L3044.46 -103.396V-71.2181C3028.58 -64.911 3009.42 -58.7596 2976.81 -58.7596C2939.48 -58.7596 2919.8 -66.8382 2902.43 -73.9629C2885.83 -80.7567 2871.48 -86.6356 2840.78 -86.6356H2839.99C2809.85 -86.5382 2795.58 -80.6983 2779.13 -73.9629C2764.26 -67.8699 2747.71 -61.0956 2719.94 -59.2463V-88.8353C2740.71 -90.4315 2752.79 -95.3954 2766.4 -100.982C2783.77 -108.185 2803.45 -116.244 2840.78 -116.244V-116.322ZM2840.78 34.0757C2878.1 34.0757 2897.78 42.1348 2915.14 49.2595C2931.79 56.2285 2946.12 62.0684 2976.81 62.0684C3007.51 62.0684 3021.86 56.2285 3038.48 49.3763C3040.43 48.5782 3042.38 47.7606 3044.46 46.9624V79.1016C3028.58 85.4087 3009.42 91.5599 2976.81 91.5599C2939.48 91.5599 2919.82 83.5009 2902.43 76.3956C2885.83 69.563 2871.46 63.7036 2840.78 63.7036C2810.1 63.7036 2795.74 69.5435 2779.11 76.3956C2764.26 82.4692 2747.71 89.2434 2719.94 91.0734V61.465C2740.69 59.8492 2752.79 54.9048 2766.4 49.3374C2783.77 42.2128 2803.47 34.1536 2840.78 34.1536V34.0757ZM2840.78 -41.1036C2878.1 -41.1036 2897.78 -33.064 2915.14 -25.9198C2931.79 -19.126 2946.12 -13.2277 2976.81 -13.2277C3007.51 -13.2277 3021.86 -19.0676 3038.48 -25.9198C3040.43 -26.7374 3042.38 -27.5355 3044.46 -28.3531V3.80548C3028.58 10.0931 3009.42 16.264 2976.81 16.264C2939.48 16.264 2919.82 8.18536 2902.43 1.08014C2885.83 -5.73315 2871.46 -11.612 2840.78 -11.612C2810.1 -11.612 2795.74 -5.77209 2779.11 1.08014C2764.26 7.15363 2747.71 13.928 2719.94 15.7773V-13.7143C2740.71 -15.33 2752.79 -20.294 2766.4 -25.8419C2783.77 -32.9861 2803.47 -41.1036 2840.78 -41.1036ZM3046.6 162.398H2957.89L3002.24 109.664L3046.6 162.398ZM2928.69 162.398H2839.99L2884.29 109.664L2928.69 162.398ZM2810.79 162.398H2722.08L2766.42 109.664L2810.79 162.398ZM2562.06 -71.1986V10.5602L2616.02 -43.4006C2635.64 -31.6853 2654.13 -18.1901 2671.27 -3.08569V161.756H2404.11C2387.73 135.042 2374 106.784 2363.14 77.3884L2422.53 17.9964H2348.96V-117.295C2404.85 -118.385 2486.46 -104.253 2562.06 -71.1208V-71.1986ZM2736.35 -801.403L2795.72 -860.795H2722.08V-996.087C2778.04 -997.294 2859.63 -983.161 2935.23 -950.029V-868.27L2989.2 -922.231C3008.82 -910.529 3027.32 -897.033 3044.46 -881.916V-717.075H2777.23C2760.87 -743.777 2747.18 -772.022 2736.35 -801.403ZM1719.67 -98.549C1666.74 -145.716 1663.08 -190.995 1663.08 -190.995L1830.9 -190.08L1998.72 -190.995C1998.72 -190.995 1995.05 -145.677 1942.14 -98.51L1935.4 -147.838H1726.39L1719.67 -98.549ZM1827.58 4.17529H1904.27L1923.31 -25.4332V40.2466H1738.5V-25.4332L1757.54 4.17529H1827.58ZM1917.26 -595.896L1964.46 -398.896L1990.16 -291.675H1830.9L1964.46 -398.916H1697.36L1744.57 -595.896H1917.26ZM1697.29 -398.838L1830.83 -291.617H1671.61L1697.29 -398.838ZM2020.31 -595.896L2080.66 -667.708L2138.57 -599.011L2194.77 -712.967L2277.43 -774.189L2231.21 -659.337L2177.17 -595.896H2020.31ZM1735.52 -971.598L1795.86 -899.767H1675.04L1735.52 -971.598ZM1430.6 -659.435L1384.38 -774.189L1467.02 -712.967L1523.24 -599.011L1581.07 -667.766L1641.48 -595.896H1484.66L1430.6 -659.435ZM2290.56 -878.938L2291.25 -878.412V-998.734H1830.75L1830.89 -685.169L1371.19 -878.919L1684.4 -685.072H1977.39L2290.56 -878.919V-878.938ZM1983.19 -899.826H1862.36L1922.71 -971.657L1983.19 -899.826ZM1460.89 -0.944336L1558.49 164.715H1469.9L1417.34 75.403H1370.62V-54.4965L1402.22 -0.944336H1460.89ZM1472.98 -325.313L1463.73 -289.184C1429.25 -291.442 1408.76 -299.851 1390.34 -307.385C1383.74 -310.11 1377.4 -312.68 1370.56 -314.957V-353.228C1382.7 -350.008 1394.58 -345.869 1406.09 -340.847C1424.82 -333.1 1441.3 -326.462 1472.98 -325.313ZM1482.42 -418.246C1487.61 -418.246 1492.4 -418.402 1496.88 -418.655L1487.34 -381.766C1485.71 -381.766 1484.09 -381.766 1482.36 -381.766C1436.16 -381.766 1411.79 -391.772 1390.28 -400.57C1383.68 -403.276 1377.34 -405.885 1370.5 -408.123V-446.355C1382.64 -443.136 1394.52 -438.997 1406.03 -433.975C1426.59 -425.565 1444.36 -418.265 1482.36 -418.265L1482.42 -418.246ZM1567.48 -85.6038L1686.42 110.89H1975.36L2094.32 -85.6038H2130.4L1982.18 164.715H1679.65L1531.37 -85.6038H1567.48ZM1482.36 -511.432C1520.4 -511.432 1538.21 -518.732 1558.76 -527.18C1577.39 -534.791 1598.13 -543.259 1633.22 -545.401L1615.7 -476.84L1567.84 -289.047H1532L1543.97 -335.767L1578.56 -470.669L1585.63 -498.136C1581.91 -496.715 1578.25 -495.216 1574.47 -493.678C1553.06 -484.879 1528.59 -474.874 1482.36 -474.874C1436.13 -474.874 1411.79 -484.879 1390.24 -493.678C1383.64 -496.423 1377.3 -498.993 1370.5 -501.27V-539.444C1382.63 -536.204 1394.51 -532.072 1406.03 -527.083C1426.59 -518.732 1444.36 -511.432 1482.36 -511.432ZM2197.65 -289.514L2188.41 -325.605C2220.04 -326.754 2236.51 -333.392 2255.29 -341.178C2266.96 -346.253 2279 -350.431 2291.3 -353.676V-315.483C2284.3 -313.186 2277.83 -310.519 2271.04 -307.696C2252.62 -300.182 2232.17 -291.812 2197.65 -289.534V-289.514ZM2178.93 -382.038C2177.23 -382.038 2175.62 -382.038 2173.96 -382.038L2164.5 -418.888C2168.98 -418.655 2173.77 -418.518 2178.93 -418.518C2216.96 -418.518 2234.7 -425.799 2255.29 -434.247C2266.97 -439.305 2279.01 -443.482 2291.3 -446.745V-408.591C2284.3 -406.294 2277.83 -403.627 2271.04 -400.804C2249.53 -392.064 2225.16 -382.058 2178.93 -382.058V-382.038ZM2259.71 -0.924866L2291.3 -54.477V75.4224H2244.59L2192.03 164.734H2103.45L2201.02 -0.924866H2259.71ZM2178.96 -475.205C2132.73 -475.205 2108.34 -485.191 2086.85 -494.029C2083.07 -495.528 2079.39 -497.065 2075.69 -498.448L2082.72 -471L2117.31 -336.098L2129.29 -289.378H2093.43L2045.6 -477.151L2028.08 -545.77C2063.12 -543.59 2083.91 -535.122 2102.54 -527.491C2123.11 -519.062 2140.91 -511.763 2178.94 -511.763C2216.98 -511.763 2234.68 -519.062 2255.27 -527.491C2266.95 -532.557 2278.98 -536.735 2291.29 -539.989V-501.737C2284.28 -499.46 2277.83 -496.793 2271.06 -493.951C2249.49 -485.191 2225.16 -475.205 2178.96 -475.205Z" fill="#006578"/>
</g>
<rect y="1" width="1920" height="1321" fill="url(#paint0_linear_239_6528)"/>
<defs>
<linearGradient id="paint0_linear_239_6528" x1="1465" y1="1114" x2="1350.58" y2="641.77" gradientUnits="userSpaceOnUse">
<stop stop-color="#092543" stop-opacity="0"/>
<stop offset="1" stop-color="#092543"/>
</linearGradient>
</defs>
</svg>
