<svg width="375" height="726" viewBox="0 0 375 726" fill="none" xmlns="http://www.w3.org/2000/svg">
<g clip-path="url(#clip0_251_4532)">
<mask id="mask0_251_4532" style="mask-type:luminance" maskUnits="userSpaceOnUse" x="-269" y="-230" width="1159" height="1340">
<path d="M-268.649 -229.487H889.912V1109.46H-268.649V-229.487Z" fill="white"/>
</mask>
<g mask="url(#mask0_251_4532)">
<path d="M-268.636 105.243H889.925V774.71H-268.636V105.243Z" fill="#0A2240"/>
<path d="M-254.321 129.192V146.882C-245.588 150.343 -235.104 153.74 -217.136 153.74C-196.617 153.74 -185.802 149.296 -176.258 145.376C-167.13 141.637 -159.24 138.4 -142.361 138.4H-141.923C-125.365 138.465 -117.528 141.669 -108.475 145.376C-100.297 148.73 -91.2117 152.458 -75.9449 153.462V137.204C-87.3576 136.317 -93.9982 133.593 -101.482 130.517C-111.027 126.607 -121.852 122.174 -142.361 122.174C-147.654 122.156 -152.941 122.513 -158.183 123.242H-158.322H-158.525C-163.229 123.94 -167.87 125.012 -172.403 126.447C-176.439 127.729 -179.962 129.16 -183.261 130.506C-192.411 134.256 -200.343 137.492 -217.158 137.492C-233.973 137.492 -241.916 134.288 -251.054 130.506C-252.111 130.079 -253.2 129.63 -254.321 129.192ZM-217.136 220.226C-200.268 220.226 -192.379 217.022 -183.24 213.24C-173.695 209.32 -162.88 204.897 -142.361 204.897C-121.841 204.897 -111.027 209.32 -101.482 213.24C-94.0089 216.306 -87.3469 219.019 -75.9449 219.906V236.175C-91.2117 235.107 -100.308 231.443 -108.475 228.099C-117.603 224.35 -125.493 221.113 -142.361 221.113C-159.229 221.113 -167.13 224.318 -176.258 228.099C-185.802 232.009 -196.617 236.442 -217.136 236.442C-235.072 236.442 -245.588 233.056 -254.321 229.595V211.905L-251.033 213.24C-241.894 216.979 -234.005 220.226 -217.136 220.226ZM-217.136 178.865C-200.268 178.865 -192.379 175.66 -183.24 171.889C-173.695 167.969 -162.88 163.536 -142.361 163.536C-121.841 163.536 -111.027 167.969 -101.482 171.889C-94.0089 174.955 -87.3576 177.679 -75.9449 178.566V194.824C-91.2117 193.809 -100.308 190.081 -108.475 186.738C-117.603 182.988 -125.493 179.762 -142.361 179.762C-159.229 179.762 -167.13 182.967 -176.258 186.738C-185.802 190.647 -196.617 195.091 -217.136 195.091C-235.072 195.091 -245.588 191.705 -254.321 188.233V170.554L-251.033 171.889C-241.894 175.628 -234.005 178.865 -217.136 178.865ZM-205.553 275.422H-254.321L-229.937 246.419L-205.553 275.422ZM-165.101 246.419L-140.717 275.422H-189.475L-165.101 246.419ZM-100.286 246.419L-75.9128 275.422H-124.671L-100.286 246.419ZM-205.521 323.331H-254.289L-229.905 294.329L-205.521 323.331ZM-189.507 323.331L-165.101 294.286L-140.717 323.289L-189.507 323.331ZM-100.318 294.329L-75.9449 323.331H-124.703L-100.318 294.329ZM-205.553 540.544H-254.321L-229.937 511.542L-205.553 540.544ZM-165.101 511.499L-140.717 540.502H-189.475L-165.101 511.499ZM-100.286 511.499L-75.9128 540.502H-124.671L-100.286 511.499ZM-217.104 571.939C-200.236 571.939 -192.357 568.735 -183.208 564.953C-179.909 563.607 -176.386 562.176 -172.35 560.894C-167.816 559.459 -163.175 558.387 -158.471 557.689H-158.268H-158.13C-152.888 556.955 -147.6 556.598 -142.308 556.621C-121.799 556.621 -110.973 561.054 -101.429 564.964C-93.9554 568.04 -87.3042 570.764 -75.8914 571.651V587.909C-91.1583 586.905 -100.244 583.177 -108.422 579.823C-117.475 576.116 -125.311 572.912 -141.87 572.847H-142.308C-159.187 572.847 -167.076 576.052 -176.204 579.823C-185.749 583.743 -196.563 588.177 -217.083 588.177C-235.008 588.177 -245.535 584.79 -254.268 581.329V563.629C-253.2 564.067 -252.058 564.515 -250.98 564.953C-241.894 568.703 -234.005 571.939 -217.136 571.939H-217.104ZM-217.104 654.663C-200.236 654.663 -192.346 651.458 -183.208 647.677C-173.663 643.756 -162.849 639.334 -142.329 639.334C-121.81 639.334 -110.995 643.756 -101.45 647.677C-93.9768 650.742 -87.3149 653.456 -75.9128 654.342V670.611C-91.1796 669.543 -100.276 665.879 -108.443 662.536C-117.571 658.786 -125.461 655.549 -142.329 655.549C-159.197 655.549 -167.098 658.754 -176.226 662.536C-185.77 666.445 -196.585 670.878 -217.104 670.878C-235.04 670.878 -245.556 667.492 -254.289 664.031V646.341L-251.001 647.677C-241.894 651.415 -234.005 654.663 -217.136 654.663H-217.104ZM-217.104 613.301C-200.236 613.301 -192.346 610.096 -183.208 606.326C-173.663 602.405 -162.849 597.972 -142.329 597.972C-121.81 597.972 -110.995 602.405 -101.45 606.326C-93.9768 609.381 -87.3256 612.115 -75.9128 613.002V629.26C-91.1796 628.246 -100.276 624.517 -108.443 621.174C-117.571 617.424 -125.461 614.198 -142.329 614.198C-159.197 614.198 -167.098 617.403 -176.226 621.174C-185.77 625.084 -196.585 629.527 -217.104 629.527C-235.04 629.527 -245.556 626.141 -254.289 622.669V604.99L-251.001 606.326C-241.894 610.064 -234.005 613.301 -217.136 613.301H-217.104ZM-205.521 709.847H-254.289L-229.905 680.856L-205.521 709.847ZM-140.717 709.847H-189.475L-165.101 680.856L-140.717 709.847ZM-75.9128 709.847H-124.671L-100.286 680.856L-75.9128 709.847ZM-205.521 757.725H-254.289L-229.905 728.723L-205.521 757.725ZM-140.717 757.725H-189.475L-165.101 728.723L-140.717 757.725ZM-75.9128 757.725H-124.671L-100.286 728.723L-75.9128 757.725ZM-137.119 364.715V409.698L-107.45 380.022C-96.6642 386.458 -86.4964 393.878 -77.0766 402.188V492.848H-223.926C-232.929 478.157 -240.471 462.619 -246.442 446.455L-213.795 413.789H-254.279V339.376C-223.563 338.714 -178.713 346.491 -137.151 364.715H-137.119ZM529.455 138.881C546.291 138.881 554.149 135.676 563.277 131.916C566.565 130.57 570.088 129.15 574.113 127.868C578.645 126.426 583.286 125.354 587.992 124.663H588.195H588.333C593.565 123.933 598.841 123.576 604.123 123.595C624.59 123.595 635.383 128.028 644.906 131.927C652.379 134.993 658.999 137.706 670.39 138.593V154.819C655.155 153.815 646.081 150.097 637.924 146.754C628.903 143.047 621.077 139.853 604.55 139.789H604.123C587.277 139.789 579.408 142.994 570.302 146.754C560.778 150.664 550.017 155.086 529.508 155.086C511.626 155.086 501.12 151.711 492.409 148.249V130.613C493.476 131.051 494.618 131.5 495.686 131.938C504.761 135.655 512.629 138.881 529.455 138.881ZM529.455 221.423C546.291 221.423 554.159 218.218 563.277 214.458C572.8 210.538 583.561 206.126 604.059 206.126C624.557 206.126 635.33 210.538 644.853 214.458C652.326 217.502 658.956 220.216 670.337 221.102V237.339C655.102 236.325 646.027 232.607 637.881 229.274C628.764 225.536 620.896 222.309 604.059 222.309C587.223 222.309 579.355 225.514 570.248 229.274C560.725 233.173 549.963 237.606 529.455 237.606C511.561 237.606 501.067 234.22 492.355 230.77V213.123L495.633 214.458C504.75 218.208 512.629 221.412 529.455 221.412V221.423ZM529.455 180.157C546.291 180.157 554.159 176.953 563.277 173.193C572.8 169.283 583.561 164.86 604.059 164.86C624.557 164.86 635.33 169.283 644.853 173.193C652.326 176.248 658.945 178.972 670.337 179.858V196.074C655.102 195.07 646.027 191.352 637.881 188.009C628.764 184.27 620.896 181.044 604.059 181.044C587.223 181.044 579.355 184.249 570.248 188.009C560.725 191.919 549.963 196.341 529.455 196.341C511.561 196.341 501.067 192.965 492.355 189.504V171.857L495.633 173.193C504.75 176.921 512.629 180.157 529.455 180.157ZM541.006 276.49H492.355L516.686 247.552L541.006 276.49ZM581.351 247.552L605.714 276.49H557.063L581.351 247.552ZM646.006 247.552L670.337 276.49H621.728L646.006 247.552ZM541.006 324.25H492.355L516.686 295.312L541.006 324.25ZM557.02 324.25L581.351 295.312L605.714 324.25H557.02ZM646.006 295.312L670.337 324.25H621.728L646.006 295.312ZM529.455 355.624C546.291 355.624 554.149 352.419 563.277 348.648C566.565 347.302 570.088 345.882 574.113 344.6C578.646 343.163 583.287 342.091 587.992 341.395H588.195H588.333C593.565 340.665 598.841 340.308 604.123 340.327C624.59 340.327 635.383 344.76 644.906 348.659C652.379 351.725 658.999 354.438 670.39 355.325C672.846 355.506 675.515 355.613 678.461 355.613C695.297 355.613 703.155 352.409 712.283 348.638C715.571 347.292 719.094 345.871 723.119 344.589C727.653 343.152 732.294 342.081 736.998 341.385H737.201H737.34C742.568 340.655 747.841 340.298 753.119 340.316C773.596 340.316 784.39 344.749 793.913 348.648C801.386 351.714 808.005 354.428 819.397 355.314C821.852 355.496 824.51 355.603 827.468 355.603C844.293 355.603 852.162 352.398 861.29 348.627C864.578 347.281 868.101 345.86 872.126 344.578C872.905 344.333 873.706 344.098 874.528 343.863V360.954C872.393 361.734 870.364 362.567 868.25 363.433C858.727 367.342 847.966 371.776 827.468 371.776C809.575 371.776 799.08 368.389 790.368 364.928V364.821C789.194 364.362 788.051 363.892 786.93 363.433C777.909 359.726 770.084 356.532 753.557 356.479H753.044C736.208 356.479 728.34 359.683 719.233 363.433C709.71 367.342 698.949 371.776 678.44 371.776C660.547 371.776 650.052 368.389 641.34 364.928V364.821C640.166 364.362 639.024 363.892 637.903 363.433C628.881 359.726 621.056 356.532 604.529 356.479H604.102C587.255 356.479 579.387 359.683 570.28 363.433C560.757 367.342 549.995 371.776 529.487 371.776C511.604 371.776 501.099 368.389 492.387 364.928V347.324L495.665 348.648C504.761 352.387 512.629 355.624 529.455 355.624ZM529.455 438.155C546.291 438.155 554.159 434.95 563.277 431.19C572.8 427.28 583.561 422.858 604.059 422.858C624.557 422.858 635.33 427.28 644.853 431.19C652.326 434.245 658.956 436.959 670.337 437.845C672.792 438.027 675.461 438.134 678.408 438.134C695.244 438.134 703.102 434.929 712.23 431.169C721.753 427.259 732.514 422.837 753.012 422.837C773.511 422.837 784.283 427.259 793.806 431.169C801.279 434.224 807.909 436.937 819.29 437.824C821.745 438.005 824.404 438.112 827.361 438.112C844.197 438.112 852.055 434.908 861.183 431.147C865.5 429.29 869.92 427.682 874.421 426.33V443.485C872.286 444.255 870.257 445.098 868.144 445.964C858.621 449.873 847.859 454.296 827.361 454.296C809.468 454.296 798.973 450.92 790.261 447.459V447.352C789.087 446.893 787.945 446.423 786.824 445.964C777.717 442.225 769.849 438.999 753.012 438.999C736.176 438.999 728.308 442.204 719.191 445.964C709.667 449.873 698.906 454.296 678.408 454.296C660.515 454.296 650.02 450.92 641.308 447.459V447.352C640.134 446.893 639.002 446.423 637.881 445.964C628.764 442.225 620.896 438.999 604.059 438.999C587.223 438.999 579.355 442.204 570.248 445.964C560.725 449.873 549.963 454.296 529.455 454.296C511.561 454.296 501.067 450.92 492.355 447.459V429.855L495.633 431.19C504.75 434.918 512.629 438.155 529.455 438.155ZM529.455 396.889C546.291 396.889 554.159 393.685 563.277 389.925C572.8 386.015 583.561 381.592 604.059 381.592C624.557 381.592 635.33 386.015 644.853 389.925C652.326 392.98 658.945 395.704 670.337 396.59C672.792 396.772 675.461 396.879 678.408 396.879C695.244 396.879 703.102 393.674 712.23 389.914C721.753 386.004 732.514 381.582 753.012 381.582C773.511 381.582 784.283 386.004 793.806 389.914C801.279 392.969 807.898 395.693 819.29 396.58C821.745 396.761 824.404 396.868 827.361 396.868C844.197 396.868 852.055 393.663 861.183 389.903C865.501 388.05 869.921 386.445 874.421 385.096V402.188C872.286 402.968 870.257 403.801 868.144 404.677C858.621 408.576 847.859 412.998 827.361 412.998C809.468 412.998 798.973 409.623 790.261 406.162V406.066L786.824 404.677C777.717 400.927 769.849 397.712 753.012 397.712C736.176 397.712 728.308 400.917 719.191 404.677C709.667 408.576 698.906 412.998 678.408 412.998C660.515 412.998 650.02 409.623 641.308 406.162V406.066L637.881 404.677C628.764 400.927 620.896 397.712 604.059 397.712C587.223 397.712 579.355 400.917 570.248 404.677C560.725 408.576 549.963 412.998 529.455 412.998C511.561 412.998 501.067 409.623 492.355 406.162V388.6C493.423 389.038 494.565 389.487 495.633 389.925C504.75 393.653 512.629 396.889 529.455 396.889ZM541.006 493.222H492.355L516.686 464.284L541.006 493.222ZM581.351 464.284L605.714 493.222H557.063L581.351 464.284ZM646.006 464.284L670.337 493.222H621.728L646.006 464.284ZM541.006 540.982H492.355L516.686 512.055L541.006 540.982ZM557.02 540.982L581.351 512.055L605.714 540.982H557.02ZM621.686 540.982L646.006 512.055L670.337 540.982H621.686ZM541.006 588.657H492.355L516.686 559.719L541.006 588.657ZM557.02 588.657L581.351 559.719L605.714 588.657H557.02ZM621.686 588.657L646.006 559.719L670.337 588.657H621.686ZM745.091 324.25H696.461L720.781 295.312L745.091 324.25ZM761.105 324.25L785.425 295.312L809.756 324.25H761.105ZM850.09 295.312L874.421 324.25H825.759L850.09 295.312ZM720.76 464.284L745.091 493.222H696.461L720.76 464.284ZM785.425 464.284L809.756 493.222H761.105L785.425 464.284ZM850.09 464.284L874.421 493.222H825.759L850.09 464.284ZM850.09 512.258L874.421 541.196H825.759L850.09 512.258ZM761.105 541.196L785.425 512.258L809.756 541.196H761.105ZM696.44 541.196L720.76 512.258L745.091 541.196H696.44ZM850.09 560.039L874.421 588.978H825.759L850.09 560.039ZM761.105 588.978L785.425 560.039L809.756 588.978H761.105ZM696.44 588.978L720.76 560.039L745.091 588.978H696.44ZM762.706 605.001C767.988 604.983 773.265 605.34 778.496 606.069H778.635H778.827C783.533 606.759 788.174 607.831 792.706 609.274C796.731 610.545 800.244 611.977 803.542 613.323C812.66 617.061 820.528 620.287 837.354 620.287C854.179 620.287 862.058 617.083 871.186 613.323C872.254 612.885 873.322 612.436 874.464 611.998V629.645C865.752 633.106 855.247 636.482 837.354 636.482C816.888 636.482 806.094 632.059 796.571 628.149C787.464 624.411 779.585 621.185 762.749 621.185H762.311C745.795 621.249 737.97 624.443 728.938 628.149C720.781 631.493 711.717 635.21 696.482 636.215V620.02C707.874 619.134 714.504 616.42 721.966 613.355C731.447 609.445 742.24 605.022 762.653 605.022L762.706 605.001ZM762.706 687.543C783.172 687.543 793.966 691.955 803.489 695.864C812.606 699.603 820.475 702.829 837.3 702.829C854.126 702.829 862.005 699.624 871.133 695.864L874.41 694.54V712.187C865.699 715.637 855.193 719.023 837.3 719.023C816.834 719.023 806.041 714.59 796.518 710.691C787.411 706.952 779.532 703.726 762.706 703.726C745.881 703.726 737.991 706.931 728.884 710.691C720.739 714.024 711.664 717.742 696.429 718.756V702.541C707.81 701.654 714.45 698.941 721.902 695.886C731.436 691.976 742.24 687.564 762.717 687.564L762.706 687.543ZM762.706 646.277C783.172 646.277 793.966 650.7 803.489 654.609C812.606 658.338 820.475 661.574 837.3 661.574C854.126 661.574 862.005 658.37 871.133 654.609L874.41 653.274V670.921C865.699 674.372 855.193 677.758 837.3 677.758C816.834 677.758 806.041 673.325 796.518 669.426C787.411 665.687 779.532 662.461 762.706 662.461C745.881 662.461 737.991 665.666 728.884 669.426C720.739 672.759 711.664 676.476 696.429 677.491V661.286C707.82 660.399 714.45 657.686 721.902 654.631C731.436 650.721 742.24 646.299 762.717 646.299L762.706 646.277ZM875.574 757.907H826.923L851.265 728.99L875.574 757.907ZM810.92 757.907H762.258L786.589 728.969L810.92 757.907ZM746.254 757.907H697.593L721.924 728.969L746.254 757.907ZM609.835 629.72V674.585L639.44 645.07C650.209 651.49 660.363 658.893 669.771 667.182V757.661H523.252C514.284 742.999 506.774 727.493 500.832 711.364L533.405 678.762H493.017V604.52C523.636 603.837 568.348 611.603 609.846 629.784L609.835 629.72ZM705.429 229.039L738.002 196.448H697.603V122.217C728.297 121.544 773.052 129.299 814.518 147.48V192.346L844.112 162.767C854.872 169.191 865.018 176.593 874.421 184.879V275.347H727.892C718.906 260.684 711.383 245.174 705.429 229.039ZM147.858 614.733C118.83 588.849 116.823 563.981 116.823 563.981L208.851 564.483L300.89 563.981C300.89 563.981 298.883 588.849 269.854 614.733L266.171 587.664H151.542L147.858 614.733ZM207.036 671.135H249.132L259.584 654.876V690.897H158.161V654.855L168.623 671.135H207.036ZM256.21 341.801L282.111 449.938L296.192 508.765H208.862L282.1 449.927H135.613L161.503 341.79L256.21 341.801ZM135.57 449.938L208.851 508.765H121.52L135.57 449.938ZM312.74 341.79L345.836 302.373L377.566 340.103L408.388 277.569L453.708 243.984L428.373 306.945L398.736 341.79H312.708H312.74ZM156.549 135.623L189.645 175.041H123.378L156.549 135.623ZM-10.6924 306.956L-36.0269 243.994L9.29315 277.579L40.1151 340.113L71.8339 302.384L104.93 341.801H18.9017L-10.6924 306.956ZM460.989 186.492L461.362 186.78V120.753H208.776L208.84 292.834L-43.2653 186.513L128.492 292.876H289.167L460.946 186.513L460.989 186.492ZM292.413 175.03H226.146L259.242 135.612L292.413 175.03ZM5.91949 668.304L59.4602 759.21H10.8732L-17.9523 710.189H-43.575V638.906L-26.3116 668.304H5.91949ZM12.5174 490.295L7.45691 510.121C-11.4505 508.871 -22.6924 504.257 -32.792 500.133C-36.4112 498.627 -39.9023 497.217 -43.6389 495.967V474.977C-36.9864 476.748 -30.4769 479.019 -24.1657 481.771C-13.8526 485.979 -4.82062 489.665 12.5174 490.295ZM17.7059 439.33C20.5565 439.33 23.1829 439.245 25.6384 439.116L20.4284 459.338C19.5423 459.338 18.6454 459.338 17.7059 459.338C-7.62848 459.338 -20.9949 453.837 -32.792 449.008C-36.4112 447.523 -39.9023 446.092 -43.6389 444.863V423.873C-36.9864 425.645 -30.4769 427.916 -24.1657 430.667C-12.881 435.281 -3.13379 439.33 17.7059 439.33ZM64.4353 621.847L129.666 729.663H288.078L353.331 621.847H373.114L291.836 759.21H125.919L44.6311 621.847H64.4353ZM17.7487 388.162C38.6098 388.162 48.3678 384.156 59.6525 379.531C69.8694 375.343 81.2289 370.697 100.489 369.522L90.8801 407.155L64.6381 510.207H44.9728L51.5386 484.569L70.4673 410.488L74.3321 395.415C72.3036 396.195 70.2966 397.018 68.2254 397.862C56.4817 402.69 43.0617 408.181 17.7059 408.181C-7.64978 408.181 -20.9949 402.69 -32.8134 397.862C-36.4326 396.366 -39.913 394.945 -43.6389 393.696V372.737C-36.9921 374.507 -30.4865 376.771 -24.1764 379.509C-12.8811 384.156 -3.13379 388.162 17.7059 388.162H17.7487ZM410.042 509.94L404.971 490.135C422.309 489.515 431.352 485.862 441.654 481.589C448.055 478.807 454.658 476.515 461.405 474.731V495.69C457.562 496.95 454.007 498.414 450.291 499.962C440.149 504.086 428.896 508.69 410 509.929L410.042 509.94ZM399.772 459.178C398.843 459.178 397.957 459.178 397.039 459.178L391.861 438.945C394.316 439.074 396.943 439.148 399.772 439.148C420.633 439.148 430.359 435.153 441.654 430.517C448.059 427.749 454.661 425.46 461.405 423.67V444.639C457.562 445.9 454.007 447.363 450.291 448.912C438.452 453.676 425.085 459.167 399.729 459.167L399.772 459.178ZM444.078 668.315L461.405 638.917V710.2H435.782L406.957 759.221H358.37L411.889 668.315H444.078ZM399.783 408.052C374.438 408.052 361.05 402.583 349.263 397.733C347.192 396.9 345.174 396.056 343.156 395.298L347.011 410.36L366.003 484.388L372.569 510.025H352.904L326.662 406.974L317.053 369.329C336.27 370.526 347.683 375.172 357.9 379.349C369.174 383.975 378.943 387.991 399.793 387.991C420.644 387.991 430.37 383.975 441.665 379.349C448.066 376.568 454.669 374.275 461.416 372.491V393.482C457.572 394.721 454.039 396.195 450.313 397.755C438.43 402.572 425.085 408.042 399.74 408.042L399.783 408.052Z" fill="#006578"/>
<path d="M-847.91 -564.225H310.65V105.242H-847.91V-564.225Z" fill="#0A2240"/>
<path d="M-833.594 -540.234V-522.544C-824.861 -519.083 -814.377 -515.696 -796.409 -515.696C-775.901 -515.696 -765.075 -520.13 -755.53 -524.05C-746.402 -527.789 -738.513 -531.026 -721.634 -531.026H-721.196C-704.637 -531.026 -696.801 -527.757 -687.758 -524.05C-679.581 -520.696 -670.485 -516.978 -655.218 -515.964V-532.233C-666.641 -533.119 -673.282 -535.843 -680.755 -538.909C-690.299 -542.819 -701.125 -547.252 -721.634 -547.252C-726.927 -547.276 -732.214 -546.919 -737.456 -546.184H-737.594H-737.797C-742.502 -545.491 -747.144 -544.419 -751.676 -542.979C-755.712 -541.697 -759.235 -540.266 -762.534 -538.92C-771.683 -535.17 -779.616 -531.934 -796.431 -531.934C-813.245 -531.934 -821.189 -535.138 -830.338 -538.92C-831.384 -539.39 -832.484 -539.838 -833.594 -540.234ZM-796.409 -449.21C-779.541 -449.21 -771.662 -452.415 -762.513 -456.186C-752.968 -460.106 -742.153 -464.539 -721.644 -464.539C-701.136 -464.539 -690.299 -460.106 -680.755 -456.186C-673.282 -453.131 -666.63 -450.407 -655.218 -449.52V-433.251C-670.485 -434.319 -679.581 -437.994 -687.748 -441.337C-696.876 -445.076 -704.776 -448.313 -721.644 -448.313C-738.513 -448.313 -746.402 -445.108 -755.53 -441.337C-765.075 -437.417 -775.89 -432.984 -796.409 -432.984C-814.345 -432.984 -824.861 -436.37 -833.594 -439.842V-457.521L-830.317 -456.186C-821.167 -452.49 -813.278 -449.253 -796.409 -449.253V-449.21ZM-796.409 -490.561C-779.541 -490.561 -771.662 -493.766 -762.513 -497.537C-752.968 -501.457 -742.153 -505.89 -721.644 -505.89C-701.136 -505.89 -690.299 -501.457 -680.755 -497.537C-673.282 -494.482 -666.641 -491.758 -655.218 -490.86V-474.602C-670.485 -475.67 -679.581 -479.345 -687.748 -482.688C-696.876 -486.438 -704.776 -489.664 -721.644 -489.664C-738.513 -489.664 -746.402 -486.459 -755.53 -482.688C-765.075 -478.779 -775.89 -474.335 -796.409 -474.335C-814.345 -474.335 -824.861 -477.721 -833.594 -481.193V-498.872C-832.526 -498.423 -831.384 -497.985 -830.317 -497.537C-821.167 -493.841 -813.278 -490.604 -796.409 -490.604V-490.561ZM-784.836 -394.015H-833.594L-809.221 -423.017L-784.836 -394.015ZM-744.406 -423.017L-720.022 -394.015H-768.79L-744.406 -423.017ZM-679.602 -423.017L-655.218 -394.015H-703.975L-679.602 -423.017ZM-784.836 -346.105H-833.594L-809.221 -375.097L-784.836 -346.105ZM-768.822 -346.105L-744.438 -375.097L-720.054 -346.105H-768.822ZM-679.634 -375.097L-655.25 -346.105H-704.008L-679.634 -375.097ZM-784.836 -128.967H-833.594L-809.221 -157.969L-784.836 -128.967ZM-744.406 -157.969L-720.022 -128.967H-768.79L-744.406 -157.969ZM-679.602 -157.969L-655.218 -128.967H-703.975L-679.602 -157.969ZM-796.409 -97.5291C-779.541 -97.5291 -771.662 -100.734 -762.513 -104.515C-759.214 -105.872 -755.69 -107.293 -751.655 -108.575C-747.122 -110.015 -742.481 -111.087 -737.776 -111.779H-737.573H-737.434C-732.192 -112.509 -726.905 -112.866 -721.612 -112.847C-701.104 -112.847 -690.278 -108.404 -680.734 -104.494C-673.26 -101.428 -666.62 -98.7042 -655.196 -97.8175V-81.5485C-670.463 -82.6167 -679.559 -86.2807 -687.737 -89.6349C-696.78 -93.3524 -704.616 -96.5571 -721.175 -96.6105H-721.612C-738.491 -96.6105 -746.381 -93.4058 -755.509 -89.6349C-765.053 -85.7145 -775.879 -81.2814 -796.388 -81.2814C-814.324 -81.2814 -824.84 -84.6677 -833.573 -88.1394V-105.851L-830.295 -104.515C-821.167 -100.766 -813.278 -97.5291 -796.409 -97.5291ZM-796.409 -14.8165C-779.541 -14.8165 -771.662 -18.0212 -762.513 -21.792C-752.968 -25.7123 -742.153 -30.1455 -721.644 -30.1455C-701.136 -30.1455 -690.299 -25.7123 -680.755 -21.792C-673.282 -18.7369 -666.63 -16.0129 -655.218 -15.1262V1.14282C-670.485 0.127991 -679.581 -3.6001 -687.748 -6.9436C-696.876 -10.6931 -704.776 -13.9191 -721.644 -13.9191C-738.513 -13.9191 -746.402 -10.7145 -755.53 -6.9436C-765.075 -3.03394 -775.89 1.40985 -796.409 1.40985C-814.345 1.40985 -824.861 -1.97638 -833.594 -5.44812V-23.1273L-830.317 -21.792C-821.167 -18.0532 -813.278 -14.8165 -796.409 -14.8165ZM-796.409 -56.1674C-779.541 -56.1674 -771.662 -59.3721 -762.513 -63.143C-752.968 -67.0634 -742.153 -71.4965 -721.644 -71.4965C-701.136 -71.4965 -690.299 -67.0634 -680.755 -63.143C-673.282 -60.0878 -666.641 -57.3639 -655.218 -56.4666V-40.2189C-670.485 -41.223 -679.581 -44.9511 -687.748 -48.2946C-696.876 -52.0441 -704.776 -55.2701 -721.644 -55.2701C-738.513 -55.2701 -746.402 -52.0655 -755.53 -48.2946C-765.075 -44.3849 -775.89 -39.9411 -796.409 -39.9411C-814.345 -39.9411 -824.861 -43.3381 -833.594 -46.7991V-64.4782C-832.526 -64.0296 -831.384 -63.5916 -830.317 -63.143C-821.167 -59.4042 -813.278 -56.1674 -796.409 -56.1674ZM-784.836 40.3787H-833.594L-809.221 11.3764L-784.836 40.3787ZM-720.022 40.3787H-768.79L-744.406 11.3764L-720.022 40.3787ZM-655.218 40.3787H-703.975L-679.602 11.3764L-655.218 40.3787ZM-784.836 88.2459H-833.594L-809.221 59.2436L-784.836 88.2459ZM-720.022 88.2459H-768.79L-744.406 59.2436L-720.022 88.2459ZM-655.218 88.2459H-703.975L-679.602 59.2436L-655.218 88.2459ZM-716.424 -304.765V-259.771L-686.765 -289.446C-675.981 -283.008 -665.814 -275.588 -656.392 -267.281V-176.62H-803.242C-812.252 -191.292 -819.794 -206.817 -825.758 -222.971L-793.121 -255.637H-833.594V-330.092C-802.836 -330.755 -757.986 -322.989 -716.424 -304.765ZM-49.7969 -530.62C-32.9713 -530.62 -25.103 -533.824 -15.9749 -537.595C-12.6867 -538.93 -9.16367 -540.362 -5.13879 -541.633C-0.606781 -543.075 4.03479 -544.147 8.74014 -544.838H8.93237H9.08188C14.3097 -545.567 19.5828 -545.924 24.8612 -545.906C45.3273 -545.906 56.1315 -541.483 65.6546 -537.584C73.1278 -534.519 79.7363 -531.795 91.1384 -530.908V-514.682C75.9036 -515.686 66.8289 -519.403 58.6723 -522.747C49.6404 -526.454 41.8254 -529.648 25.2988 -529.712H24.8612C8.02496 -529.712 0.145935 -526.507 -8.96078 -522.747C-18.4839 -518.837 -29.2453 -514.415 -49.7435 -514.415C-67.6366 -514.415 -78.1312 -517.79 -86.843 -521.251V-538.909L-83.5761 -537.584C-74.5228 -533.824 -66.6438 -530.62 -49.7969 -530.62ZM-49.7969 -448.089C-32.9607 -448.089 -25.103 -451.293 -15.9749 -455.053C-6.45184 -458.963 4.30963 -463.375 24.8077 -463.375C45.3059 -463.375 56.078 -458.963 65.6011 -455.053C73.0744 -451.998 79.6936 -449.285 91.085 -448.398V-432.172C75.8395 -433.176 66.7756 -436.894 58.619 -440.226C49.5123 -443.965 41.6333 -447.191 24.8077 -447.191C7.98221 -447.191 0.10318 -443.987 -9.01422 -440.226C-18.5373 -436.327 -29.2988 -431.894 -49.7969 -431.894C-67.6901 -431.894 -78.1847 -435.281 -86.8964 -438.731V-456.378L-83.6189 -455.053C-74.5228 -451.283 -66.6545 -448.056 -49.7969 -448.056V-448.089ZM-49.7969 -489.343C-32.9607 -489.343 -25.103 -492.548 -15.9749 -496.308C-6.45184 -500.229 4.30963 -504.64 24.8077 -504.64C45.3059 -504.64 56.078 -500.229 65.6011 -496.308C73.0744 -493.253 79.6829 -490.54 91.085 -489.653V-473.427C75.8395 -474.442 66.7756 -478.159 58.619 -481.492C49.5123 -485.231 41.6333 -488.457 24.8077 -488.457C7.98221 -488.457 0.10318 -485.252 -9.01422 -481.492C-18.5373 -477.593 -29.2988 -473.16 -49.7969 -473.16C-67.6901 -473.16 -78.1847 -476.546 -86.8964 -479.996V-497.611L-83.6189 -496.276C-74.5228 -492.548 -66.6545 -489.311 -49.7969 -489.311V-489.343ZM-38.2667 -392.979H-86.9178L-62.6082 -421.917L-38.2667 -392.979ZM2.0676 -421.917L26.3985 -392.979H-22.2525L2.0676 -421.917ZM66.7328 -421.917L91.0636 -392.979H42.402L66.7328 -421.917ZM-38.2667 -345.218H-86.9178L-62.6082 -374.157L-38.2667 -345.218ZM-22.2525 -345.218L2.0676 -374.157L26.3985 -345.218H-22.2525ZM66.7328 -374.157L91.0636 -345.218H42.402L66.7328 -374.157ZM-49.7969 -313.855C-32.9713 -313.855 -25.103 -317.06 -15.9749 -320.82C-12.6867 -322.166 -9.16367 -323.598 -5.13879 -324.869C-0.608093 -326.316 4.03387 -327.388 8.74014 -328.073H8.93237H9.08188C14.3097 -328.803 19.5828 -329.16 24.8612 -329.142C45.3273 -329.142 56.1315 -324.709 65.6546 -320.81C73.1278 -317.744 79.7363 -315.03 91.1384 -314.144C93.5939 -313.952 96.2522 -313.855 99.2095 -313.855C116.035 -313.855 123.903 -317.06 133.031 -320.82C136.32 -322.166 139.832 -323.598 143.857 -324.869C148.388 -326.315 153.03 -327.387 157.736 -328.073H157.928H158.067C163.298 -328.803 168.575 -329.16 173.857 -329.142C194.323 -329.142 205.116 -324.709 214.64 -320.81C222.113 -317.744 228.732 -315.03 240.124 -314.144C242.59 -313.952 245.248 -313.855 248.205 -313.855C265.031 -313.855 272.899 -317.06 282.017 -320.82C285.316 -322.166 288.828 -323.598 292.853 -324.869L295.255 -325.595V-308.429C293.12 -307.649 291.102 -306.805 288.988 -305.94C279.465 -302.03 268.703 -297.608 248.205 -297.608C230.312 -297.608 219.807 -300.983 211.095 -304.444V-304.551C209.931 -305.01 208.789 -305.48 207.668 -305.94C198.636 -309.647 190.811 -312.841 174.295 -312.905H173.857C157.021 -312.905 149.142 -309.7 140.035 -305.94C130.512 -302.03 119.75 -297.608 99.2522 -297.608C81.3591 -297.608 70.8538 -300.983 62.1421 -304.444V-304.551C60.9784 -305.01 59.8361 -305.48 58.7151 -305.94C49.6831 -309.647 41.8682 -312.841 25.3416 -312.905H24.9038C8.06757 -312.905 0.18869 -309.7 -8.91803 -305.94C-18.4411 -302.03 -29.2027 -297.608 -49.7009 -297.608C-67.594 -297.608 -78.0886 -300.983 -86.8003 -304.444V-322.145C-85.7327 -321.707 -84.5903 -321.258 -83.5334 -320.82C-74.5227 -317.081 -66.6438 -313.855 -49.7969 -313.855ZM-49.7969 -231.314C-32.9607 -231.314 -25.103 -234.518 -15.9749 -238.278C-6.45184 -242.199 4.30963 -246.611 24.8077 -246.611C45.3059 -246.611 56.078 -242.199 65.6011 -238.278C73.0744 -235.234 79.6936 -232.521 91.085 -231.634C93.5405 -231.452 96.1989 -231.346 99.1562 -231.346C115.982 -231.346 123.85 -234.55 132.967 -238.31C142.49 -242.231 153.252 -246.643 173.761 -246.643C194.27 -246.643 205.031 -242.231 214.554 -238.31C222.027 -235.266 228.647 -232.553 240.027 -231.666C242.494 -231.485 245.152 -231.378 248.109 -231.378C264.935 -231.378 272.803 -234.582 281.92 -238.343C286.237 -240.202 290.657 -241.811 295.159 -243.16V-226.069C293.024 -225.289 291.006 -224.445 288.892 -223.58C279.369 -219.681 268.607 -215.247 248.109 -215.247C230.205 -215.247 219.711 -218.634 210.999 -222.084V-222.191L207.572 -223.58C198.465 -227.318 190.586 -230.544 173.761 -230.544C156.935 -230.544 149.046 -227.34 139.939 -223.58C130.416 -219.681 119.654 -215.247 99.1562 -215.247C81.263 -215.247 70.7577 -218.634 62.046 -222.084V-222.191L58.619 -223.58C49.491 -227.244 41.6119 -230.448 24.7864 -230.448C7.96085 -230.448 0.0819397 -227.244 -9.03546 -223.484C-18.5586 -219.585 -29.3201 -215.151 -49.8183 -215.151C-67.7114 -215.151 -78.2061 -218.538 -86.9178 -221.988V-239.614L-83.6401 -238.278C-74.5227 -234.55 -66.6545 -231.314 -49.7969 -231.314ZM-49.7969 -272.579C-32.9607 -272.579 -25.103 -275.784 -15.9749 -279.544C-6.45184 -283.454 4.30963 -287.876 24.8077 -287.876C45.3059 -287.876 56.078 -283.454 65.6011 -279.544C73.0744 -276.489 79.6829 -273.765 91.085 -272.878C93.5405 -272.697 96.1989 -272.59 99.1562 -272.59C115.982 -272.59 123.85 -275.795 132.967 -279.555C142.49 -283.464 153.252 -287.887 173.761 -287.887C194.27 -287.887 205.031 -283.464 214.554 -279.555C222.027 -276.5 228.636 -273.776 240.027 -272.889C242.494 -272.707 245.152 -272.601 248.109 -272.601C264.935 -272.601 272.803 -275.805 281.92 -279.565C286.239 -281.421 290.658 -283.029 295.159 -284.383V-267.206C293.024 -266.437 291.006 -265.593 288.892 -264.728C279.369 -260.818 268.607 -256.396 248.109 -256.396C230.205 -256.396 219.711 -259.771 210.999 -263.232V-263.339C209.835 -263.798 208.693 -264.268 207.572 -264.728C198.465 -268.466 190.586 -271.693 173.761 -271.693C156.935 -271.693 149.046 -268.488 139.939 -264.728C130.416 -260.818 119.654 -256.396 99.1562 -256.396C81.263 -256.396 70.7577 -259.771 62.046 -263.232V-263.339C60.8823 -263.798 59.74 -264.268 58.619 -264.728C49.5123 -268.466 41.6333 -271.693 24.8077 -271.693C7.98221 -271.693 0.10318 -268.488 -9.01422 -264.728C-18.5373 -260.818 -29.2988 -256.396 -49.7969 -256.396C-67.6901 -256.396 -78.1847 -259.771 -86.8964 -263.232V-280.879L-83.6401 -279.587C-74.5227 -275.816 -66.6545 -272.579 -49.7969 -272.579ZM-38.2454 -176.247H-86.8964L-62.6082 -205.185L-38.2454 -176.247ZM2.08896 -205.185L26.4199 -176.247H-22.2312L2.08896 -205.185ZM66.7542 -205.185L91.085 -176.247H42.4233L66.7542 -205.185ZM-38.2454 -128.486H-86.8964L-62.6082 -157.425L-38.2454 -128.486ZM-22.2312 -128.486L2.08896 -157.425L26.4199 -128.486H-22.2312ZM42.4233 -128.486L66.7542 -157.425L91.085 -128.486H42.4233ZM-38.2454 -80.8114H-86.8964L-62.6082 -109.739L-38.2454 -80.8114ZM-22.2312 -80.8114L2.0676 -109.739L26.3985 -80.8007L-22.2312 -80.8114ZM42.4233 -80.8114L66.7328 -109.739L91.0636 -80.8007L42.4233 -80.8114ZM165.86 -345.218H117.199L141.53 -374.157L165.86 -345.218ZM181.875 -345.218L206.206 -374.157L230.526 -345.218H181.875ZM270.871 -374.157L295.191 -345.218H246.54L270.871 -374.157ZM141.54 -205.185L165.86 -176.247H117.199L141.54 -205.185ZM206.206 -205.185L230.526 -176.247H181.875L206.206 -205.185ZM270.871 -205.185L295.191 -176.247H246.54L270.871 -205.185ZM270.871 -157.222L295.191 -128.283H246.54L270.871 -157.222ZM181.875 -128.283L206.206 -157.222L230.526 -128.283H181.875ZM117.21 -128.283L141.54 -157.222L165.86 -128.283H117.21ZM270.871 -109.451L295.191 -80.5123H246.54L270.871 -109.451ZM181.875 -80.5123L206.206 -109.451L230.526 -80.5123H181.875ZM117.21 -80.5123L141.54 -109.451L165.86 -80.5123H117.21ZM183.487 -64.489C188.765 -64.5126 194.039 -64.1556 199.266 -63.4207H199.405H199.608C204.312 -62.7246 208.953 -61.653 213.487 -60.216C217.511 -58.9342 221.035 -57.5134 224.323 -56.1674C233.451 -52.418 241.308 -49.192 258.145 -49.192C274.981 -49.192 282.849 -52.3966 291.967 -56.1674L295.244 -57.492V-39.8343C286.532 -36.3732 276.027 -32.9977 258.145 -32.9977C237.679 -32.9977 226.874 -37.4308 217.351 -41.3405C208.255 -45.0686 200.376 -48.2946 183.54 -48.2946H183.102C166.576 -48.2412 158.761 -45.0366 149.729 -41.3405C141.572 -37.9969 132.498 -34.2795 117.263 -33.2647V-49.5017C128.654 -50.3777 135.284 -53.1017 142.747 -56.1674C152.163 -60.0237 162.967 -64.4462 183.433 -64.4462L183.487 -64.489ZM183.487 18.0421C203.953 18.0421 214.746 22.4646 224.269 26.3743C233.398 30.1024 241.255 33.3391 258.091 33.3391C274.928 33.3391 282.796 30.1344 291.913 26.3743C292.981 25.9363 294.049 25.4877 295.191 25.0497V42.6861C286.479 46.1472 275.974 49.5228 258.091 49.5228C237.625 49.5228 226.832 45.1003 217.309 41.2012C208.191 37.4518 200.323 34.2364 183.487 34.2364C166.651 34.2364 158.782 37.4411 149.675 41.2012C141.519 44.5341 132.444 48.2516 117.21 49.2557V33.0721C128.601 32.1854 135.241 29.4722 142.693 26.4171C152.163 22.5073 162.967 18.0848 183.433 18.0848L183.487 18.0421ZM183.487 -23.2127C203.953 -23.2127 214.746 -18.801 224.269 -14.8806C233.398 -11.1525 241.255 -7.91571 258.091 -7.91571C274.928 -7.91571 282.796 -11.1204 291.913 -14.8806L295.191 -16.2158V1.43127C286.479 4.88159 275.974 8.26794 258.091 8.26794C237.625 8.26794 226.832 3.83472 217.309 -0.06427C208.191 -3.8031 200.323 -7.02911 183.487 -7.02911C166.651 -7.02911 158.782 -3.82446 149.675 -0.06427C141.519 3.26855 132.455 6.98602 117.21 8.00085V-8.1828C128.601 -9.0694 135.231 -11.7934 142.693 -14.8378C152.163 -18.7582 162.967 -23.2127 183.433 -23.2127H183.487ZM296.365 88.4168H247.714L272.045 59.4786L296.365 88.4168ZM231.7 88.4168H182.942L207.273 59.4786L231.7 88.4168ZM167.035 88.4168H118.384L142.715 59.4786L167.035 88.4168ZM30.6262 -39.7702V5.09528L60.167 -24.4091C70.9251 -17.9778 81.0708 -10.5724 90.4765 -2.28619V88.1711H-56.0424C-65.0373 73.5161 -72.5649 58.0087 -78.5157 41.8742L-45.9428 9.28265H-86.3305V-64.959C-55.6474 -65.6213 -10.8931 -57.8659 30.5729 -39.6848L30.6262 -39.7702ZM126.145 -440.429L158.718 -473.021H118.33V-547.263C149.024 -547.925 193.779 -540.17 235.245 -521.988V-477.123L264.839 -506.734C275.598 -500.31 285.741 -492.904 295.137 -484.611V-394.154H148.619C139.629 -408.804 132.102 -424.304 126.145 -440.429ZM-431.425 -54.7361C-460.443 -80.6191 -462.461 -105.487 -462.461 -105.487L-370.422 -104.985L-278.383 -105.487C-278.383 -105.487 -280.401 -80.6191 -309.419 -54.7361L-313.102 -81.8049H-427.731L-431.425 -54.7361ZM-372.215 1.63422H-330.162L-319.721 -14.6135V21.4284H-421.08V-14.6135L-410.649 1.63422H-372.215ZM-323.105 -327.657L-297.173 -219.552L-283.081 -160.715H-370.422L-297.173 -219.563H-443.66L-417.77 -327.657H-323.105ZM-443.745 -219.52L-370.507 -160.683H-457.838L-443.745 -219.52ZM-266.522 -327.657L-233.426 -367.064L-201.686 -329.366L-170.853 -391.9L-125.533 -425.496L-150.878 -362.47L-180.515 -327.657H-266.522ZM-422.724 -533.824L-389.628 -494.407H-455.895L-422.724 -533.824ZM-590.008 -362.524L-615.353 -425.496L-570.022 -391.9L-539.158 -329.366L-507.439 -367.096L-474.3 -327.657H-560.328L-590.008 -362.524ZM-118.284 -482.977L-117.921 -482.688V-548.715H-370.497L-370.432 -376.646L-622.549 -482.966L-450.77 -376.592H-290.084L-118.306 -482.966L-118.284 -482.977ZM-286.871 -494.439H-353.137L-320.041 -533.856L-286.871 -494.439ZM-573.353 -1.17523L-519.823 89.7308H-568.41L-597.236 40.7206H-622.858V-30.5621L-605.542 -1.17523H-573.353ZM-566.755 -179.174L-571.827 -159.347C-590.723 -160.586 -601.976 -165.201 -612.075 -169.335C-615.695 -170.831 -619.175 -172.241 -622.912 -173.491V-194.492C-616.258 -192.723 -609.749 -190.452 -603.439 -187.698C-593.136 -183.446 -584.093 -179.804 -566.755 -179.174ZM-561.567 -230.171C-558.727 -230.171 -556.101 -230.256 -553.645 -230.395L-558.844 -210.163C-559.731 -210.163 -560.627 -210.163 -561.567 -210.163C-586.901 -210.163 -600.268 -215.653 -612.075 -220.482C-615.695 -221.967 -619.175 -223.398 -622.912 -224.627V-245.596C-616.258 -243.827 -609.749 -241.556 -603.439 -238.802C-592.143 -234.187 -582.407 -230.181 -561.567 -230.181V-230.171ZM-514.891 -47.6217L-449.66 60.205H-291.194L-225.953 -47.6323H-206.17L-287.468 89.7308H-453.354L-534.652 -47.6323L-514.891 -47.6217ZM-561.567 -281.296C-540.716 -281.296 -530.948 -285.302 -519.674 -289.938C-509.446 -294.115 -498.087 -298.761 -478.827 -299.936L-488.435 -262.314L-514.677 -159.262H-534.343L-527.777 -184.899L-508.87 -258.938L-504.994 -274.011C-507.033 -273.231 -509.03 -272.408 -511.101 -271.564C-522.845 -266.736 -536.275 -261.245 -561.62 -261.245C-586.965 -261.245 -600.321 -266.736 -612.14 -271.564C-615.759 -273.071 -619.25 -274.481 -622.965 -275.73V-296.678C-616.317 -294.899 -609.808 -292.631 -603.492 -289.895C-592.143 -285.312 -582.407 -281.307 -561.567 -281.307V-281.296ZM-169.284 -159.518L-174.344 -179.323C-157.006 -179.953 -147.964 -183.596 -137.661 -187.869C-131.266 -190.655 -124.666 -192.948 -117.921 -194.727V-173.768C-121.754 -172.508 -125.309 -171.044 -129.024 -169.495C-139.135 -165.383 -150.377 -160.789 -169.284 -159.54V-159.518ZM-179.554 -210.291C-180.473 -210.291 -181.369 -210.291 -182.277 -210.291L-187.519 -230.566C-185.053 -230.438 -182.426 -230.363 -179.608 -230.363C-158.747 -230.363 -149.01 -234.358 -137.715 -238.994C-131.315 -241.771 -124.717 -244.064 -117.975 -245.852V-224.872C-121.807 -223.612 -125.362 -222.148 -129.078 -220.599C-140.832 -215.803 -154.199 -210.312 -179.554 -210.312V-210.291ZM-135.206 -1.17523L-117.889 -30.5621V40.7206H-143.512L-172.337 89.7308H-220.914L-167.405 -1.17523H-135.206ZM-179.533 -261.427C-204.889 -261.427 -218.266 -266.907 -230.052 -271.757C-232.123 -272.579 -234.141 -273.423 -236.159 -274.181L-232.358 -259.12L-213.376 -185.092L-206.81 -159.454H-226.476L-252.643 -262.495L-262.251 -300.15C-243.034 -298.954 -231.632 -294.307 -221.415 -290.119C-210.131 -285.494 -200.373 -281.488 -179.512 -281.488C-158.651 -281.488 -148.935 -285.494 -137.64 -290.119C-131.243 -292.901 -124.644 -295.194 -117.9 -296.977V-275.987C-121.733 -274.737 -125.266 -273.273 -128.992 -271.714C-140.843 -266.907 -154.199 -261.427 -179.533 -261.427Z" fill="#006578"/>
<path d="M310.638 -564.225H1469.2V105.242H310.638V-564.225Z" fill="#0A2240"/>
<path d="M324.934 -540.234V-522.544C333.656 -519.083 344.151 -515.696 362.119 -515.696C382.627 -515.696 393.453 -520.13 402.998 -524.05C412.115 -527.789 420.015 -531.026 436.884 -531.026H437.321C453.88 -531.026 461.727 -527.757 470.769 -524.05C478.947 -520.696 488.033 -516.978 503.31 -515.964V-532.233C491.887 -533.119 485.246 -535.843 477.762 -538.909C468.218 -542.819 457.403 -547.252 436.884 -547.252C431.591 -547.275 426.303 -546.918 421.062 -546.184H420.923H420.731C416.025 -545.492 411.384 -544.421 406.852 -542.979C402.816 -541.697 399.282 -540.266 395.983 -538.92C386.845 -535.17 378.966 -531.934 362.097 -531.934C345.229 -531.934 337.339 -535.138 328.19 -538.92C327.176 -539.39 326.076 -539.838 324.934 -540.234ZM362.119 -449.21C378.987 -449.21 386.866 -452.415 396.005 -456.186C405.549 -460.106 416.364 -464.539 436.884 -464.539C457.403 -464.539 468.229 -460.106 477.773 -456.186C485.246 -453.131 491.897 -450.407 503.31 -449.52V-433.251C488.033 -434.319 478.947 -437.994 470.78 -441.337C461.641 -445.076 453.698 -448.313 436.884 -448.313C420.069 -448.313 412.126 -445.108 402.987 -441.337C393.442 -437.417 382.627 -432.984 362.119 -432.984C344.183 -432.984 333.656 -436.37 324.934 -439.842V-457.521L328.211 -456.186C337.382 -452.49 345.282 -449.253 362.151 -449.253L362.119 -449.21ZM362.119 -490.561C378.987 -490.561 386.866 -493.766 396.005 -497.537C405.549 -501.457 416.364 -505.89 436.884 -505.89C457.403 -505.89 468.229 -501.457 477.773 -497.537C485.246 -494.482 491.887 -491.758 503.31 -490.86V-474.602C488.033 -475.67 478.947 -479.345 470.78 -482.688C461.641 -486.438 453.698 -489.664 436.884 -489.664C420.069 -489.664 412.126 -486.459 402.987 -482.688C393.442 -478.779 382.627 -474.335 362.119 -474.335C344.183 -474.335 333.656 -477.721 324.934 -481.193V-498.872C326.001 -498.423 327.144 -497.985 328.211 -497.537C337.382 -493.841 345.282 -490.604 362.151 -490.604L362.119 -490.561ZM373.724 -394.058H324.934L349.307 -423.06L373.724 -394.058ZM414.154 -423.06L438.528 -394.058H389.77L414.154 -423.06ZM478.958 -423.06L503.342 -394.058H454.574L478.958 -423.06ZM373.724 -346.148H324.934L349.307 -375.139L373.724 -346.148ZM389.738 -346.148L414.122 -375.139L438.528 -346.191L389.738 -346.148ZM478.926 -375.139L503.31 -346.148H454.542L478.926 -375.139ZM373.724 -128.967H324.934L349.307 -157.969L373.724 -128.967ZM414.154 -157.969L438.528 -128.967H389.77L414.154 -157.969ZM478.958 -157.969L503.342 -128.967H454.574L478.958 -157.969ZM362.151 -97.5291C379.019 -97.5291 386.898 -100.734 396.037 -104.515C399.336 -105.872 402.87 -107.293 406.905 -108.575C411.437 -110.016 416.079 -111.088 420.784 -111.779H420.976H421.115C426.357 -112.508 431.644 -112.865 436.937 -112.847C457.456 -112.847 468.271 -108.404 477.816 -104.494C485.289 -101.428 491.94 -98.7042 503.364 -97.8175V-81.5485C488.086 -82.6167 479.001 -86.2807 470.823 -89.6349C461.78 -93.3524 453.933 -96.5571 437.375 -96.6105H436.937C420.069 -96.6105 412.168 -93.4058 403.051 -89.6349C393.507 -85.7145 382.681 -81.2814 362.172 -81.2814C344.236 -81.2814 333.71 -84.6677 324.987 -88.1394V-105.851L328.265 -104.515C337.393 -100.766 345.282 -97.5291 362.151 -97.5291ZM362.151 -14.8165C379.019 -14.8165 386.898 -18.0212 396.037 -21.792C405.581 -25.7123 416.396 -30.1455 436.916 -30.1455C457.435 -30.1455 468.261 -25.7123 477.805 -21.792C485.278 -18.7369 491.93 -16.0129 503.342 -15.1262V1.14282C488.065 0.127991 478.979 -3.6001 470.812 -6.9436C461.673 -10.6931 453.73 -13.9191 436.916 -13.9191C420.101 -13.9191 412.158 -10.7145 403.019 -6.9436C393.474 -3.03394 382.66 1.40985 362.151 1.40985C344.215 1.40985 333.688 -1.97638 324.966 -5.44812V-23.1273L328.243 -21.792C337.382 -18.0532 345.282 -14.8165 362.151 -14.8165ZM362.151 -56.1674C379.019 -56.1674 386.898 -59.3721 396.037 -63.143C405.581 -67.0634 416.396 -71.4965 436.916 -71.4965C457.435 -71.4965 468.261 -67.0634 477.805 -63.143C485.278 -60.0878 491.919 -57.3639 503.342 -56.4666V-40.2189C488.065 -41.223 478.979 -44.9511 470.812 -48.2946C461.673 -52.0441 453.73 -55.2701 436.916 -55.2701C420.101 -55.2701 412.158 -52.0655 403.019 -48.2946C393.474 -44.3849 382.66 -39.9411 362.151 -39.9411C344.215 -39.9411 333.688 -43.3381 324.966 -46.7991V-64.4782C326.033 -64.0296 327.176 -63.5916 328.243 -63.143C337.382 -59.4042 345.282 -56.1674 362.151 -56.1674ZM373.724 40.3787H324.934L349.307 11.3764L373.724 40.3787ZM438.528 40.3787H389.77L414.154 11.3764L438.528 40.3787ZM503.342 40.3787H454.574L478.958 11.3764L503.342 40.3787ZM373.724 88.2459H324.934L349.307 59.2436L373.724 88.2459ZM438.528 88.2459H389.77L414.154 59.2436L438.528 88.2459ZM503.342 88.2459H454.574L478.958 59.2436L503.342 88.2459ZM442.126 -304.765V-259.771L471.794 -289.446C482.575 -283.008 492.739 -275.588 502.157 -267.281V-176.62H355.307C346.301 -191.295 338.76 -206.819 332.791 -222.971L365.439 -255.637H324.934V-330.092C355.724 -330.755 400.574 -322.989 442.126 -304.765ZM1108.74 -530.62C1125.57 -530.62 1133.44 -533.824 1142.56 -537.595C1145.85 -538.93 1149.36 -540.362 1153.39 -541.633C1157.92 -543.075 1162.56 -544.146 1167.27 -544.838H1167.46H1167.6C1172.83 -545.567 1178.11 -545.924 1183.39 -545.906C1203.86 -545.906 1214.65 -541.483 1224.17 -537.584C1231.65 -534.519 1238.26 -531.795 1249.66 -530.908V-514.682C1234.42 -515.686 1225.36 -519.403 1217.2 -522.747C1208.17 -526.454 1200.34 -529.648 1183.83 -529.712H1183.29C1166.46 -529.712 1158.58 -526.507 1149.47 -522.747C1139.95 -518.837 1129.19 -514.415 1108.69 -514.415C1090.8 -514.415 1080.29 -517.79 1071.58 -521.251V-538.909L1074.86 -537.584C1084.01 -533.824 1091.91 -530.62 1108.74 -530.62ZM1108.74 -448.089C1125.57 -448.089 1133.44 -451.293 1142.55 -455.053C1152.08 -458.963 1162.84 -463.375 1183.35 -463.375C1203.86 -463.375 1214.62 -458.963 1224.14 -455.053C1231.61 -451.998 1238.23 -449.285 1249.61 -448.398V-432.172C1234.38 -433.176 1225.3 -436.894 1217.16 -440.226C1208.05 -443.965 1200.17 -447.191 1183.35 -447.191C1166.52 -447.191 1158.63 -443.987 1149.52 -440.226C1140 -436.327 1129.24 -431.894 1108.74 -431.894C1090.85 -431.894 1080.34 -435.281 1071.63 -438.731V-456.378L1074.91 -455.053C1084.01 -451.283 1091.91 -448.056 1108.74 -448.056V-448.089ZM1108.74 -489.343C1125.57 -489.343 1133.44 -492.548 1142.55 -496.308C1152.08 -500.229 1162.84 -504.64 1183.35 -504.64C1203.86 -504.64 1214.62 -500.229 1224.14 -496.308C1231.61 -493.253 1238.22 -490.54 1249.61 -489.653V-473.427C1234.38 -474.442 1225.3 -478.159 1217.16 -481.492C1208.05 -485.231 1200.17 -488.457 1183.35 -488.457C1166.52 -488.457 1158.63 -485.252 1149.52 -481.492C1140 -477.593 1129.24 -473.16 1108.74 -473.16C1090.85 -473.16 1080.34 -476.546 1071.63 -479.996V-497.611L1074.91 -496.276C1084.01 -492.548 1091.91 -489.311 1108.74 -489.311V-489.343ZM1120.3 -392.979H1071.64L1095.96 -421.917L1120.3 -392.979ZM1160.63 -421.917L1184.96 -392.979H1136.32L1160.63 -421.917ZM1225.29 -421.917L1249.61 -392.979H1200.96L1225.29 -421.917ZM1120.3 -345.218H1071.64L1095.96 -374.157L1120.3 -345.218ZM1136.32 -345.218L1160.63 -374.157L1184.96 -345.218H1136.32ZM1225.29 -374.157L1249.61 -345.218H1200.96L1225.29 -374.157ZM1108.74 -313.855C1125.57 -313.855 1133.44 -317.06 1142.56 -320.82C1145.85 -322.166 1149.36 -323.598 1153.39 -324.869C1157.92 -326.315 1162.56 -327.387 1167.27 -328.073H1167.46H1167.6C1172.8 -328.802 1178.04 -329.162 1183.29 -329.152C1203.76 -329.152 1214.55 -324.719 1224.08 -320.82C1231.55 -317.754 1238.17 -315.041 1249.56 -314.154C1252.03 -313.962 1254.68 -313.866 1257.64 -313.866C1274.47 -313.866 1282.34 -317.071 1291.45 -320.831C1294.74 -322.177 1298.26 -323.608 1302.29 -324.879C1306.8 -326.324 1311.43 -327.396 1316.11 -328.084H1316.32H1316.46C1321.69 -328.814 1326.96 -329.171 1332.25 -329.152C1352.71 -329.152 1363.51 -324.719 1373.03 -320.82C1380.5 -317.754 1387.12 -315.041 1398.51 -314.154C1400.97 -313.962 1403.64 -313.866 1406.58 -313.866C1423.42 -313.866 1431.28 -317.071 1440.41 -320.831C1443.79 -322.166 1447.27 -323.598 1451.26 -324.869C1452.04 -325.114 1452.84 -325.36 1453.67 -325.595V-308.429C1451.53 -307.649 1449.51 -306.805 1447.4 -305.94C1437.88 -302.03 1427.11 -297.608 1406.61 -297.608C1388.72 -297.608 1378.22 -300.983 1369.51 -304.444V-304.551C1368.33 -305.01 1367.19 -305.48 1366.07 -305.94C1357.05 -309.647 1349.22 -312.841 1332.71 -312.905H1332.27C1315.42 -312.905 1307.55 -309.7 1298.45 -305.94C1288.92 -302.03 1278.16 -297.608 1257.66 -297.608C1239.77 -297.608 1229.26 -300.983 1220.55 -304.444V-304.551C1219.39 -305.01 1218.25 -305.48 1217.13 -305.94C1208.09 -309.647 1200.27 -312.841 1183.75 -312.905H1183.29C1166.46 -312.905 1158.58 -309.7 1149.47 -305.94C1139.95 -302.03 1129.19 -297.608 1108.69 -297.608C1090.8 -297.608 1080.29 -300.983 1071.58 -304.444V-322.145C1072.7 -321.707 1073.79 -321.258 1074.86 -320.82C1084.01 -317.081 1091.91 -313.855 1108.74 -313.855ZM1108.74 -231.314C1125.57 -231.314 1133.44 -234.518 1142.55 -238.278C1152.08 -242.199 1162.84 -246.611 1183.35 -246.611C1203.86 -246.611 1214.62 -242.199 1224.14 -238.278C1231.61 -235.234 1238.23 -232.521 1249.61 -231.634C1252.08 -231.452 1254.74 -231.346 1257.69 -231.346C1274.52 -231.346 1282.39 -234.55 1291.51 -238.31C1301.03 -242.231 1311.79 -246.643 1332.29 -246.643C1352.79 -246.643 1363.56 -242.231 1373.08 -238.31C1380.56 -235.266 1387.19 -232.553 1398.57 -231.666C1401.02 -231.485 1403.69 -231.378 1406.64 -231.378C1423.47 -231.378 1431.34 -234.582 1440.46 -238.343C1444.78 -240.202 1449.2 -241.811 1453.7 -243.16V-226.069C1451.56 -225.289 1449.54 -224.445 1447.43 -223.58C1437.91 -219.681 1427.15 -215.247 1406.64 -215.247C1388.74 -215.247 1378.25 -218.634 1369.54 -222.084V-222.191L1366.11 -223.58C1356.99 -227.244 1349.13 -230.448 1332.29 -230.448C1315.45 -230.448 1307.58 -227.244 1298.48 -223.484C1288.95 -219.585 1278.19 -215.151 1257.69 -215.151C1239.79 -215.151 1229.3 -218.538 1220.58 -221.988V-222.095L1217.16 -223.484C1208.05 -227.244 1200.17 -230.448 1183.29 -230.448C1166.41 -230.448 1158.58 -227.244 1149.47 -223.484C1139.95 -219.585 1129.19 -215.151 1108.69 -215.151C1090.8 -215.151 1080.29 -218.538 1071.58 -221.988V-239.614L1074.86 -238.278C1084.01 -234.55 1091.91 -231.314 1108.74 -231.314ZM1108.74 -272.579C1125.57 -272.579 1133.44 -275.784 1142.55 -279.544C1152.08 -283.454 1162.84 -287.876 1183.35 -287.876C1203.86 -287.876 1214.62 -283.454 1224.14 -279.544C1231.61 -276.489 1238.22 -273.765 1249.61 -272.878C1252.08 -272.697 1254.74 -272.59 1257.69 -272.59C1274.52 -272.59 1282.39 -275.795 1291.51 -279.555C1301.03 -283.464 1311.79 -287.887 1332.29 -287.887C1352.79 -287.887 1363.56 -283.464 1373.08 -279.555C1380.56 -276.5 1387.17 -273.776 1398.57 -272.889C1401.02 -272.707 1403.69 -272.601 1406.64 -272.601C1423.47 -272.601 1431.34 -275.805 1440.46 -279.565C1444.78 -281.421 1449.2 -283.029 1453.7 -284.383V-267.206C1451.56 -266.437 1449.54 -265.593 1447.43 -264.728C1437.91 -260.818 1427.15 -256.396 1406.64 -256.396C1388.74 -256.396 1378.25 -259.771 1369.54 -263.232V-263.339C1368.37 -263.798 1367.23 -264.268 1366.11 -264.728C1356.99 -268.466 1349.13 -271.693 1332.29 -271.693C1315.45 -271.693 1307.58 -268.488 1298.48 -264.728C1288.95 -260.818 1278.19 -256.396 1257.69 -256.396C1239.79 -256.396 1229.3 -259.771 1220.58 -263.232V-263.339C1219.42 -263.798 1218.28 -264.268 1217.16 -264.728C1208.05 -268.466 1200.17 -271.693 1183.35 -271.693C1166.52 -271.693 1158.63 -268.488 1149.52 -264.728C1140 -260.818 1129.24 -256.396 1108.74 -256.396C1090.85 -256.396 1080.34 -259.771 1071.63 -263.232V-280.879L1074.91 -279.587C1084.01 -275.816 1091.91 -272.579 1108.74 -272.579ZM1120.3 -176.247H1071.64L1095.96 -205.185L1120.3 -176.247ZM1160.64 -205.185L1184.97 -176.247H1136.32L1160.64 -205.185ZM1225.3 -205.185L1249.62 -176.247H1200.97L1225.3 -205.185ZM1120.3 -128.486H1071.64L1095.96 -157.425L1120.3 -128.486ZM1136.32 -128.486L1160.65 -157.425L1184.98 -128.486H1136.32ZM1200.98 -128.486L1225.31 -157.425L1249.63 -128.486H1200.98ZM1120.3 -80.8114H1071.64L1095.96 -109.739L1120.3 -80.8114ZM1136.32 -80.8114L1160.63 -109.739L1184.96 -80.8007L1136.32 -80.8114ZM1200.98 -80.8114L1225.29 -109.739L1249.61 -80.8007L1200.98 -80.8114ZM1324.37 -345.218H1275.72L1300.05 -374.157L1324.37 -345.218ZM1340.38 -345.218L1364.71 -374.157L1389.03 -345.218H1340.38ZM1429.37 -374.157L1453.7 -345.218H1405.05L1429.37 -374.157ZM1300.05 -205.185L1324.37 -176.247H1275.72L1300.05 -205.185ZM1364.71 -205.185L1389.03 -176.247H1340.38L1364.71 -205.185ZM1429.37 -205.185L1453.7 -176.247H1405.05L1429.37 -205.185ZM1429.37 -157.222L1453.7 -128.283H1405.05L1429.37 -157.222ZM1340.38 -128.283L1364.71 -157.222L1389.03 -128.283H1340.38ZM1275.72 -128.283L1300.05 -157.222L1324.37 -128.283H1275.72ZM1429.37 -109.451L1453.7 -80.5123H1405.05L1429.37 -109.451ZM1340.38 -80.5123L1364.71 -109.451L1389.03 -80.5123H1340.38ZM1275.72 -80.5123L1300.05 -109.451L1324.37 -80.5123H1275.72ZM1341.99 -64.489C1347.27 -64.5126 1352.55 -64.1556 1357.77 -63.4207H1357.91H1358.11C1362.8 -62.7219 1367.42 -61.6502 1371.94 -60.216C1375.96 -58.9342 1379.49 -57.5134 1382.78 -56.1674C1391.9 -52.418 1399.76 -49.192 1416.6 -49.192C1433.43 -49.192 1441.29 -52.3966 1450.42 -56.1674L1453.7 -57.3959V-39.7382C1444.99 -36.2771 1434.48 -32.9015 1416.6 -32.9015C1396.12 -32.9015 1385.33 -37.3347 1375.8 -41.2444C1366.7 -44.9725 1358.83 -48.1985 1341.99 -48.1985H1341.56C1325.03 -48.1451 1317.2 -44.9404 1308.18 -41.2444C1300.03 -37.9008 1290.95 -34.1834 1275.72 -33.1686V-49.4056C1287.11 -50.2816 1293.74 -53.0055 1301.2 -56.0713C1310.72 -60.0237 1321.52 -64.4462 1341.99 -64.4462V-64.489ZM1341.99 18.0421C1362.46 18.0421 1373.25 22.4646 1382.78 26.3743C1391.9 30.1985 1399.76 33.4032 1416.6 33.4032C1433.43 33.4032 1441.3 30.1986 1450.42 26.4384C1451.49 26.0005 1452.56 25.5518 1453.7 25.1138V42.7502C1444.99 46.2112 1434.48 49.5868 1416.6 49.5868C1396.12 49.5868 1385.34 45.1644 1375.8 41.2653C1366.7 37.5159 1358.82 34.3005 1341.99 34.3005C1325.17 34.3005 1317.29 37.5052 1308.17 41.2653C1300.03 44.5982 1290.95 48.3156 1275.72 49.3197V33.0721C1287.1 32.1854 1293.74 29.4722 1301.2 26.4171C1310.72 22.5073 1321.53 18.0848 1341.99 18.0848V18.0421ZM1341.99 -23.2127C1362.46 -23.2127 1373.25 -18.801 1382.78 -14.8806C1391.9 -11.1525 1399.76 -7.91571 1416.6 -7.91571C1433.43 -7.91571 1441.3 -11.1204 1450.42 -14.8806C1451.49 -15.3292 1452.56 -15.7672 1453.7 -16.2158V1.43127C1444.99 4.88159 1434.48 8.26794 1416.6 8.26794C1396.12 8.26794 1385.34 3.83472 1375.8 -0.06427C1366.7 -3.8031 1358.82 -7.02911 1341.99 -7.02911C1325.17 -7.02911 1317.29 -3.82446 1308.17 -0.06427C1300.03 3.26855 1290.95 6.98602 1275.72 8.00085V-8.1828C1287.11 -9.0694 1293.74 -11.7934 1301.2 -14.8378C1310.72 -18.7582 1321.53 -23.2127 1341.99 -23.2127ZM1454.87 88.4595H1406.22L1430.54 59.5213L1454.87 88.4595ZM1390.21 88.4595H1341.56L1365.85 59.5213L1390.21 88.4595ZM1325.54 88.4595H1276.89L1301.21 59.5213L1325.54 88.4595ZM1189.13 -39.7274V5.13794L1218.73 -24.4732C1229.48 -18.0444 1239.63 -10.6389 1249.03 -2.35028V88.1071H1102.51C1093.52 73.4474 1085.99 57.9408 1080.03 41.8101L1112.61 9.21857H1072.26V-65.023C1102.91 -65.6212 1147.67 -57.8659 1189.13 -39.6848V-39.7274ZM1284.72 -440.429L1317.28 -473.021H1276.89V-547.263C1307.58 -547.925 1352.33 -540.17 1393.79 -521.988V-477.123L1423.39 -506.734C1434.15 -500.312 1444.3 -492.906 1453.7 -484.611V-394.154H1307.14C1298.17 -408.807 1290.66 -424.306 1284.72 -440.429ZM727.135 -54.7361C698.107 -80.6191 696.099 -105.466 696.099 -105.466L788.138 -104.964L880.177 -105.466C880.177 -105.466 878.159 -80.5977 849.142 -54.7147L845.448 -81.7835H730.818L727.135 -54.7361ZM786.313 1.63422H828.377L838.818 -14.6135V21.4284H737.459V-14.6135L747.9 1.63422H786.313ZM835.497 -327.657L861.387 -219.552L875.479 -160.715H788.138L861.387 -219.563H714.9L740.79 -327.657H835.497ZM714.857 -219.52L788.096 -160.683H700.776L714.857 -219.52ZM892.017 -327.657L925.113 -367.064L956.874 -329.366L987.696 -391.9L1033.03 -425.496L1007.68 -362.47L978.045 -327.657H892.017ZM735.825 -533.824L768.921 -494.407H702.655L735.825 -533.824ZM568.595 -362.524L543.25 -425.496L588.57 -391.9L619.402 -329.366L651.121 -367.096L684.249 -327.657H598.242L568.595 -362.524ZM1040.23 -482.977L1040.61 -482.688V-548.715H788.053L788.128 -376.646L536.011 -482.966L707.79 -376.592H868.476L1040.23 -482.966V-482.977ZM871.657 -494.439H805.391L838.487 -533.856L871.657 -494.439ZM585.207 -1.17523L638.737 89.7308H590.15L561.324 40.7206H535.702V-30.5621L553.029 -1.17523H585.207ZM591.837 -179.174L586.765 -159.347C567.858 -160.586 556.616 -165.201 546.517 -169.335C542.897 -170.831 539.417 -172.241 535.67 -173.491V-194.492C542.327 -192.725 548.841 -190.454 555.154 -187.698C565.424 -183.446 574.467 -179.804 591.837 -179.174ZM597.014 -230.171C599.865 -230.171 602.491 -230.256 604.947 -230.395L599.716 -210.152C598.819 -210.152 597.933 -210.152 596.982 -210.152C571.648 -210.152 558.282 -215.643 546.484 -220.471C542.865 -221.956 539.385 -223.387 535.638 -224.616V-245.596C542.295 -243.829 548.808 -241.558 555.121 -238.802C566.395 -234.187 576.143 -230.181 596.982 -230.181L597.014 -230.171ZM643.669 -47.6323L708.9 60.1943H867.366L932.607 -47.6323H952.39L871.102 89.7308H705.185L623.865 -47.6323H643.669ZM596.982 -281.307C617.844 -281.307 627.612 -285.312 638.886 -289.948C649.103 -294.125 660.473 -298.772 679.722 -299.947L670.114 -262.324L643.861 -159.273H624.207L630.772 -184.91L649.744 -258.938L653.619 -274.011C651.58 -273.231 649.573 -272.408 647.502 -271.564C635.758 -266.736 622.338 -261.245 596.982 -261.245C571.627 -261.245 558.282 -266.736 546.463 -271.564C542.844 -273.071 539.364 -274.481 535.638 -275.73V-296.678C542.29 -294.9 548.803 -292.633 555.121 -289.895C566.395 -285.312 576.143 -281.307 596.982 -281.307ZM989.276 -159.529L984.205 -179.334C1001.55 -179.964 1010.59 -183.607 1020.89 -187.88C1027.29 -190.664 1033.89 -192.957 1040.64 -194.738V-173.779C1036.8 -172.519 1033.25 -171.055 1029.53 -169.506C1019.43 -165.383 1008.2 -160.789 989.276 -159.54V-159.529ZM979.006 -210.302C978.077 -210.302 977.191 -210.302 976.283 -210.302L971.095 -230.523C973.55 -230.395 976.177 -230.32 979.006 -230.32C999.867 -230.32 1009.59 -234.315 1020.89 -238.951C1027.29 -241.727 1033.89 -244.019 1040.64 -245.809V-224.872C1036.8 -223.612 1033.25 -222.148 1029.53 -220.599C1017.73 -215.803 1004.36 -210.312 979.006 -210.312V-210.302ZM1023.31 -1.16455L1040.64 -30.5514V40.7312H1015.02L986.191 89.7414H937.615L991.123 -1.16455H1023.31ZM979.027 -261.427C953.671 -261.427 940.294 -266.907 928.508 -271.757C926.437 -272.579 924.419 -273.423 922.39 -274.181L926.244 -259.12L945.216 -185.092L951.782 -159.454H932.116L905.885 -262.495L896.277 -300.15C915.494 -298.954 926.896 -294.307 937.113 -290.119C948.397 -285.494 958.155 -281.488 979.016 -281.488C999.878 -281.488 1009.58 -285.494 1020.88 -290.119C1027.28 -292.899 1033.88 -295.192 1040.63 -296.977V-275.987C1036.78 -274.737 1033.25 -273.273 1029.54 -271.714C1017.71 -266.907 1004.36 -261.427 979.027 -261.427Z" fill="#006578"/>
</g>
<rect x="-244" width="1064" height="732" fill="url(#paint0_linear_251_4532)"/>
</g>
<defs>
<linearGradient id="paint0_linear_251_4532" x1="657.133" y1="692.548" x2="133.271" y2="261.544" gradientUnits="userSpaceOnUse">
<stop stop-color="#092543" stop-opacity="0"/>
<stop offset="1" stop-color="#092543"/>
</linearGradient>
<clipPath id="clip0_251_4532">
<rect width="1053" height="726" fill="white" transform="translate(-216)"/>
</clipPath>
</defs>
</svg>
