<svg width="1920" height="1042" viewBox="0 0 1920 1042" fill="none" xmlns="http://www.w3.org/2000/svg">
<path d="M1990.12 1150.56V1118.26C1974.2 1111.94 1955.08 1105.74 1922.32 1105.74C1884.91 1105.74 1865.19 1113.86 1847.78 1121.01C1831.14 1127.84 1816.75 1133.75 1785.98 1133.75H1785.18C1754.99 1133.63 1740.7 1127.78 1724.19 1121.01C1709.3 1114.89 1692.71 1108.08 1664.88 1106.25V1135.93C1685.71 1137.55 1697.81 1142.53 1711.44 1148.14C1728.84 1155.28 1748.58 1163.38 1785.98 1163.38C1795.63 1163.41 1805.27 1162.76 1814.83 1161.43H1815.08H1815.45C1824.03 1160.15 1832.49 1158.2 1840.76 1155.58C1848.11 1153.23 1854.54 1150.62 1860.55 1148.16C1877.24 1141.32 1891.7 1135.41 1922.36 1135.41C1953.02 1135.41 1967.5 1141.26 1984.19 1148.16C1986.09 1148.94 1988.1 1149.76 1990.12 1150.56ZM1922.32 984.351C1891.56 984.351 1877.2 990.202 1860.51 997.106C1843.11 1004.26 1823.39 1012.34 1786 1012.34C1748.6 1012.34 1728.84 1004.26 1711.44 997.106C1697.81 991.509 1685.69 986.555 1664.88 984.936V955.232C1692.71 957.182 1709.3 963.872 1724.19 969.976C1740.84 976.822 1755.34 982.732 1786 982.732C1816.66 982.732 1831.14 976.881 1847.78 969.976C1865.19 962.838 1884.91 954.744 1922.32 954.744C1955.02 954.744 1974.2 960.927 1990.12 967.246V999.544L1984.15 997.106C1967.46 990.28 1953.08 984.351 1922.32 984.351ZM1922.32 1059.87C1891.56 1059.87 1877.2 1065.72 1860.51 1072.61C1843.11 1079.76 1823.39 1087.86 1786 1087.86C1748.6 1087.86 1728.84 1079.76 1711.44 1072.61C1697.81 1067.01 1685.71 1062.03 1664.88 1060.42V1030.73C1692.71 1032.58 1709.3 1039.39 1724.19 1045.5C1740.84 1052.34 1755.34 1058.23 1786 1058.23C1816.66 1058.23 1831.14 1052.38 1847.78 1045.5C1865.19 1038.36 1884.91 1030.24 1922.32 1030.24C1955.02 1030.24 1974.2 1036.43 1990.12 1042.76V1075.04L1984.15 1072.61C1967.46 1065.78 1953.08 1059.87 1922.32 1059.87ZM1901.22 883.574H1990.12L1945.66 936.527L1901.22 883.574ZM1827.5 936.527L1783.04 883.574H1871.96L1827.5 936.527ZM1709.34 936.527L1664.88 883.574H1753.84L1709.34 936.527ZM1901.22 796.1H1990.12L1945.66 849.053L1901.22 796.1ZM1872.02 796.1L1827.56 849.053L1783.04 796.178L1872.02 796.1ZM1709.4 849.053L1664.88 796.178H1753.84L1709.4 849.053ZM1901.28 399.508H1990.18L1945.72 452.461L1901.28 399.508ZM1827.56 452.461L1783.04 399.586H1871.96L1827.56 452.461ZM1709.4 452.461L1664.88 399.586H1753.84L1709.4 452.461ZM1922.38 342.109C1891.62 342.109 1877.26 347.96 1860.57 354.864C1854.56 357.322 1848.13 359.935 1840.78 362.276C1832.51 364.896 1824.05 366.853 1815.47 368.127H1815.1H1814.85C1805.29 369.469 1795.65 370.121 1786 370.077C1748.6 370.077 1728.86 361.983 1711.46 354.844C1697.83 349.227 1685.73 344.254 1664.9 342.635V312.95C1692.73 314.784 1709.32 321.591 1724.21 327.715C1740.7 334.658 1754.99 340.509 1785.18 340.509H1785.98C1816.75 340.509 1831.14 334.658 1847.78 327.773C1865.19 320.615 1884.91 312.521 1922.32 312.521C1955.02 312.521 1974.2 318.704 1990.12 325.023V357.361C1988.18 356.561 1986.09 355.742 1984.15 354.942C1967.46 348.096 1953.08 342.187 1922.32 342.187L1922.38 342.109ZM1922.38 191.071C1891.62 191.071 1877.26 196.922 1860.57 203.826C1843.17 210.984 1823.45 219.059 1786.06 219.059C1748.66 219.059 1728.9 210.984 1711.5 203.826C1697.87 198.229 1685.75 193.275 1664.94 191.656V161.951C1692.77 163.902 1709.36 170.592 1724.25 176.696C1740.89 183.542 1755.4 189.452 1786.06 189.452C1816.72 189.452 1831.2 183.601 1847.84 176.696C1865.25 169.558 1884.96 161.464 1922.38 161.464C1955.08 161.464 1974.26 167.647 1990.18 173.966V206.342L1984.15 203.982C1967.46 197.078 1953.08 191.149 1922.32 191.149L1922.38 191.071ZM1922.38 266.59C1891.62 266.59 1877.26 272.441 1860.57 279.326C1843.17 286.484 1823.45 294.578 1786.06 294.578C1748.66 294.578 1728.9 286.484 1711.5 279.326C1697.87 273.748 1685.76 268.755 1664.94 267.136V237.529C1692.77 239.382 1709.36 246.189 1724.25 252.293C1740.89 259.139 1755.4 265.029 1786.06 265.029C1816.72 265.029 1831.2 259.178 1847.84 252.293C1865.25 245.155 1884.96 237.041 1922.38 237.041C1955.08 237.041 1974.26 243.224 1990.18 249.563V281.842L1984.2 279.404C1967.46 272.577 1953.08 266.668 1922.32 266.668L1922.38 266.59ZM1901.28 90.3138H1990.18L1945.66 143.325L1901.28 90.3138ZM1783.1 90.3138H1872.02L1827.5 143.325L1783.1 90.3138ZM1664.94 90.3138H1753.84L1709.34 143.325L1664.94 90.3138ZM1901.28 2.89771H1990.18L1945.72 55.8505L1901.28 2.89771ZM1783.1 2.89771H1872.02L1827.56 55.8505L1783.1 2.89771ZM1664.94 2.89771H1753.84L1709.4 55.8505L1664.94 2.89771ZM1776.54 720.464V638.333L1722.46 692.515C1702.79 680.764 1684.25 667.216 1667.08 652.044V486.593H1934.88C1951.24 513.418 1964.93 541.79 1975.76 571.298L1916.23 630.941H1990.04V766.805C1934.04 768.014 1852.26 753.815 1776.48 720.542L1776.54 720.464ZM561.015 1132.87C530.316 1132.87 515.989 1138.72 499.345 1145.59C493.35 1148.05 486.926 1150.64 479.587 1152.98C471.323 1155.61 462.86 1157.57 454.281 1158.83H453.911H453.658C444.125 1160.16 434.511 1160.82 424.886 1160.78C387.569 1160.78 367.869 1152.69 350.505 1145.57C336.879 1139.97 324.809 1135.02 304.039 1133.4V1103.77C331.817 1105.61 348.364 1112.39 363.236 1118.5C379.685 1125.27 393.954 1131.1 424.088 1131.21H424.886C455.585 1131.21 469.951 1125.36 486.536 1118.5C503.9 1111.36 523.523 1103.29 560.918 1103.29C593.543 1103.29 612.679 1109.45 628.563 1115.77V1147.97C626.617 1147.17 624.534 1146.35 622.587 1145.55C606.06 1138.76 591.694 1132.87 561.015 1132.87ZM561.015 982.166C530.316 982.166 515.989 988.018 499.345 994.883C481.981 1002.04 462.359 1010.1 424.984 1010.1C387.608 1010.1 367.966 1002.04 350.602 994.883C336.976 989.324 324.907 984.37 304.136 982.752V953.106C331.915 954.959 348.461 961.746 363.333 967.831C379.938 974.657 394.305 980.548 424.984 980.548C455.663 980.548 470.029 974.696 486.653 967.831C504.017 960.712 523.639 952.618 561.015 952.618C593.641 952.618 612.776 958.801 628.661 965.101V997.321L622.685 994.883C606.06 988.037 591.694 982.186 561.015 982.186V982.166ZM561.015 1057.51C530.316 1057.51 515.989 1063.36 499.345 1070.23C481.981 1077.36 462.359 1085.44 424.984 1085.44C387.608 1085.44 367.966 1077.36 350.602 1070.23C336.976 1064.65 324.907 1059.67 304.136 1058.06V1028.45C331.915 1030.28 348.461 1037.07 363.333 1043.17C379.938 1050 394.305 1055.89 424.984 1055.89C455.663 1055.89 470.029 1050.04 486.653 1043.17C504.017 1036.04 523.639 1027.96 561.015 1027.96C593.641 1027.96 612.776 1034.12 628.661 1040.44V1072.66L622.685 1070.23C606.06 1063.42 591.694 1057.51 561.015 1057.51ZM539.952 881.624L628.68 881.624L584.336 934.46L539.952 881.624ZM466.408 934.46L422.044 881.624H510.753L466.408 934.46ZM348.5 934.46L304.136 881.624H392.845L348.5 934.46ZM539.952 794.422L628.68 794.422L584.336 847.258L539.952 794.422ZM510.753 794.422L466.408 847.258L422.044 794.422H510.753ZM348.5 847.258L304.136 794.422H392.845L348.5 847.258ZM561.015 737.139C530.316 737.139 515.989 742.991 499.345 749.876C493.35 752.333 486.926 754.927 479.587 757.267C471.321 759.891 462.858 761.848 454.281 763.119H453.911H453.658C444.125 764.451 434.511 765.103 424.886 765.069C387.569 765.069 367.869 756.975 350.505 749.856C336.879 744.258 324.809 739.305 304.039 737.686C299.562 737.354 294.714 737.159 289.322 737.159C258.643 737.159 244.296 743.01 227.653 749.895C221.657 752.353 215.252 754.947 207.894 757.287C199.66 759.908 191.23 761.864 182.685 763.138H182.335H182.082C172.543 764.47 162.922 765.121 153.291 765.089C115.974 765.089 96.2932 756.994 78.9292 749.876C65.3027 744.278 53.2335 739.324 32.4434 737.705C27.9661 737.374 23.119 737.179 17.7268 737.179C-12.9523 737.179 -27.299 743.03 -43.9233 749.914C-49.9384 752.372 -56.3429 754.966 -63.6818 757.307C-65.1028 757.755 -66.5823 758.184 -68.0617 758.613V727.407C-64.1684 725.983 -60.4892 724.462 -56.6349 722.882C-39.2708 715.744 -19.6487 707.65 17.7268 707.65C50.3525 707.65 69.5075 713.832 85.3921 720.152V720.347C87.5139 721.185 89.5968 722.044 91.6408 722.882C108.109 729.65 122.359 735.482 152.493 735.579H153.291C183.989 735.579 198.356 729.728 214.96 722.882C232.325 715.744 251.947 707.65 289.322 707.65C321.948 707.65 341.083 713.832 356.968 720.152V720.347C359.109 721.185 361.192 722.044 363.236 722.882C379.685 729.65 393.954 735.482 424.088 735.579H424.886C455.585 735.579 469.951 729.728 486.536 722.882C503.9 715.744 523.523 707.65 560.918 707.65C593.543 707.65 612.679 713.832 628.563 720.152V752.294L622.587 749.876C606.06 743.049 591.694 737.139 561.015 737.139ZM561.015 586.453C530.316 586.453 515.989 592.304 499.345 599.169C481.981 606.308 462.359 614.382 424.984 614.382C387.608 614.382 367.966 606.308 350.602 599.169C336.976 593.591 324.907 588.637 304.136 587.018C299.659 586.687 294.812 586.492 289.42 586.492C258.721 586.492 244.394 592.343 227.75 599.208C210.386 606.347 190.764 614.421 153.388 614.421C116.013 614.421 96.3711 606.347 79.0071 599.208C65.3806 593.63 53.3114 588.676 32.5408 587.057C28.0635 586.726 23.2163 586.531 17.8242 586.531C-12.8549 586.531 -27.2017 592.382 -43.826 599.247C-51.7007 602.632 -59.7596 605.568 -67.9643 608.044V576.72C-64.0711 575.316 -60.3919 573.775 -56.5376 572.195C-39.1735 565.057 -19.5514 556.982 17.8242 556.982C50.4499 556.982 69.6048 563.146 85.4894 569.465V569.66C87.6112 570.499 89.6942 571.357 91.7381 572.195C108.343 579.022 122.709 584.912 153.388 584.912C184.067 584.912 198.434 579.061 215.058 572.195C232.422 565.057 252.044 556.982 289.42 556.982C322.045 556.982 341.181 563.146 357.065 569.465V569.66C359.207 570.499 361.29 571.357 363.333 572.195C379.938 579.022 394.305 584.912 424.984 584.912C455.663 584.912 470.029 579.061 486.653 572.195C504.017 565.057 523.639 556.982 561.015 556.982C593.641 556.982 612.776 563.146 628.661 569.465V601.607L622.685 599.169C606.06 592.362 591.694 586.453 561.015 586.453ZM561.015 661.796C530.316 661.796 515.989 667.647 499.345 674.513C481.981 681.651 462.359 689.726 424.984 689.726C387.608 689.726 367.966 681.651 350.602 674.513C336.976 668.935 324.907 663.961 304.136 662.342C299.659 662.011 294.812 661.816 289.42 661.816C258.721 661.816 244.394 667.667 227.75 674.532C210.386 681.671 190.764 689.745 153.388 689.745C116.013 689.745 96.3711 681.671 79.0071 674.532C65.3806 668.954 53.3309 663.981 32.5408 662.362C28.0635 662.03 23.2163 661.835 17.8242 661.835C-12.8549 661.835 -27.2017 667.686 -43.826 674.552C-51.7013 677.929 -59.7602 680.859 -67.9643 683.328V652.122C-64.0711 650.699 -60.3919 649.177 -56.5376 647.578C-39.1735 640.459 -19.5514 632.384 17.8242 632.384C50.4499 632.384 69.6048 638.548 85.4894 644.867V645.042L91.7381 647.578C108.343 654.424 122.709 660.294 153.388 660.294C184.067 660.294 198.434 654.443 215.058 647.578C232.422 640.459 252.044 632.384 289.42 632.384C322.045 632.384 341.181 638.548 357.065 644.867V645.042L363.333 647.578C379.938 654.424 394.305 660.294 424.984 660.294C455.663 660.294 470.029 654.443 486.653 647.578C504.017 640.459 523.639 632.384 561.015 632.384C593.641 632.384 612.776 638.548 628.661 644.867V676.931C626.714 676.131 624.651 675.312 622.685 674.513C606.06 667.706 591.694 661.796 561.015 661.796ZM539.952 485.91H628.68L584.336 538.746L539.952 485.91ZM466.408 538.746L422.044 485.91H510.753L466.408 538.746ZM348.5 538.746L304.136 485.91L392.845 485.91L348.5 538.746ZM539.952 398.709H628.68L584.336 451.525L539.952 398.709ZM510.753 398.709L466.408 451.525L422.044 398.709H510.753ZM392.845 398.709L348.5 451.525L304.136 398.709L392.845 398.709ZM539.952 311.663H628.68L584.316 364.499L539.952 311.663ZM510.753 311.663L466.408 364.499L422.044 311.663H510.753ZM392.845 311.663L348.5 364.499L304.136 311.663L392.845 311.663ZM167.832 794.422H256.56L212.196 847.258L167.832 794.422ZM138.633 794.422L94.2687 847.258L49.9048 794.422H138.633ZM-23.6393 847.258L-67.9838 794.422H20.7246L-23.6393 847.258ZM212.177 538.746L167.813 485.91H256.541L212.177 538.746ZM94.2687 538.746L49.9048 485.91H138.633L94.2687 538.746ZM-23.6393 538.746L-67.9838 485.91H20.7246L-23.6393 538.746ZM-23.6393 451.155L-67.9838 398.319H20.7246L-23.6393 451.155ZM138.633 398.319L94.2687 451.155L49.9048 398.319H138.633ZM256.541 398.319L212.177 451.155L167.813 398.319H256.541ZM-23.6199 363.914L-67.9643 311.078H20.7441L-23.6199 363.914ZM138.652 311.078L94.2882 363.914L49.9242 311.078H138.652ZM256.56 311.078L212.196 363.914L167.832 311.078H256.56ZM135.713 281.822C126.082 281.855 116.461 281.203 106.922 279.872H106.669H106.318C97.7384 278.613 89.2749 276.656 81.0121 274.021C73.6538 271.7 67.2494 269.086 61.2537 266.629C44.6099 259.802 30.2631 253.912 -0.415932 253.912C-31.095 253.912 -45.4612 259.763 -62.1049 266.629C-64.0516 267.428 -65.9983 268.247 -68.0617 269.047V236.827C-52.1771 230.508 -33.0222 224.344 -0.415932 224.344C36.9012 224.344 56.5817 232.419 73.9458 239.557C90.5506 246.384 104.917 252.274 135.615 252.274H136.413C166.548 252.157 180.797 246.325 197.266 239.557C212.138 233.453 228.665 226.665 256.463 224.832V254.4C235.673 256.018 223.604 260.973 209.977 266.57C192.633 273.709 173.03 281.783 135.713 281.783V281.822ZM135.713 131.116C98.3762 131.116 78.7151 123.061 61.351 115.922C44.7072 109.096 30.38 103.206 -0.318565 103.206C-31.0171 103.206 -45.3638 109.057 -62.0076 115.922L-67.9643 118.341V86.1205C-52.0798 79.8207 -32.9248 73.6381 -0.318565 73.6381C36.9986 73.6381 56.6791 81.7322 74.0431 88.8511C90.6674 95.6774 105.014 101.568 135.713 101.568C166.411 101.568 180.758 95.7164 197.363 88.8511C212.235 82.7659 228.762 75.9784 256.56 74.1255V103.733C235.79 105.351 223.681 110.305 210.094 115.883C192.73 123.022 173.03 131.077 135.713 131.077V131.116ZM135.713 206.459C98.3762 206.459 78.7151 198.385 61.351 191.246C44.7072 184.439 30.38 178.53 -0.318565 178.53C-31.0171 178.53 -45.3638 184.381 -62.0076 191.246L-67.9643 193.684L-67.9643 161.464C-52.0798 155.164 -32.9248 148.981 -0.318565 148.981C36.9986 148.981 56.6791 157.076 74.0431 164.194C90.6674 171.021 105.014 176.911 135.713 176.911C166.411 176.911 180.758 171.06 197.363 164.194C212.235 158.109 228.762 151.322 256.56 149.469V179.056C235.77 180.675 223.701 185.629 210.094 191.207C192.73 198.346 173.03 206.42 135.713 206.42V206.459ZM-70.1641 2.6051H18.5444L-25.8196 55.4409L-70.1641 2.6051ZM47.744 2.6051H136.452L92.0885 55.4409L47.744 2.6051ZM165.652 2.6051H254.361L210.152 55.4409L165.652 2.6051ZM414.374 236.651V154.735L360.414 208.8C340.791 197.075 322.29 183.56 305.148 168.427V3.09265H572.364C588.757 29.8542 602.482 58.1672 613.341 87.6223L553.949 147.148H627.59V282.7C571.624 283.948 490.04 269.769 414.433 236.573L414.374 236.651ZM240.111 968.338L180.719 1027.84H254.361V1163.3C198.395 1164.53 116.791 1150.37 41.1838 1117.17L41.1838 1035.26L-12.7771 1089.32C-32.3909 1077.59 -50.8844 1064.08 -68.0227 1048.95L-68.0227 883.769H199.134C215.541 910.519 229.285 938.818 240.169 968.26L240.111 968.338ZM1256.82 264.054C1309.73 311.312 1313.39 356.717 1313.39 356.717L1145.59 355.8L977.771 356.717C977.771 356.717 981.431 311.253 1034.36 264.054L1041.08 313.477H1250.09L1256.82 264.054ZM1148.9 161.074H1072.22L1053.18 190.759V124.992H1237.98V190.798L1218.94 161.074H1148.9ZM1059.24 762.377L1012.03 564.979L986.337 457.532H1145.57L1012.03 564.96H1279.13L1231.92 762.417L1059.24 762.377ZM1279.21 564.94L1145.59 457.532H1304.83L1279.21 564.94ZM956.164 762.397L895.818 834.366L837.925 765.479L781.706 879.654L699.071 940.974L745.265 826.019L799.303 762.397H956.164ZM1240.98 1138.82L1180.63 1066.85H1301.46L1240.98 1138.82ZM1545.9 826.019L1592.11 940.974L1509.46 879.654L1453.26 765.479L1395.42 834.366L1335.08 762.397H1491.94L1545.9 826.019ZM685.853 1045.94L685.191 1045.42V1165.97L1145.73 1165.97L1145.61 851.783L1605.29 1045.91L1292.1 851.705L999.107 851.705L685.892 1045.91L685.853 1045.94ZM993.228 1066.87H1114.06L1053.71 1138.84L993.228 1066.87ZM1515.61 166.242L1418 0.264526H1506.62L1559.17 89.7677H1605.89V219.917L1574.32 166.242H1515.61ZM1503.58 491.254L1512.81 455.055C1547.28 457.337 1567.8 465.763 1586.21 473.292C1592.81 476.042 1599.16 478.616 1605.97 480.898V519.223C1593.84 515.985 1581.97 511.839 1570.47 506.819C1551.68 499.134 1535.19 492.405 1503.58 491.254ZM1494.12 584.307C1488.94 584.307 1484.15 584.463 1479.67 584.698L1489.1 547.855C1490.71 547.855 1492.35 547.855 1494.06 547.855C1540.25 547.855 1564.63 557.899 1586.16 566.715C1592.75 569.426 1599.1 572.039 1605.91 574.282V612.529C1593.78 609.292 1581.92 605.145 1570.41 600.125C1549.89 591.699 1532.12 584.307 1494.12 584.307ZM1409.01 250.987L1290.05 54.2122H1001.13L882.152 251.065H846.081L994.318 0.264526H1296.85L1445.06 251.065L1409.01 250.987ZM1494.12 677.731C1456.1 677.731 1438.29 685.045 1417.73 693.49C1399.08 701.135 1378.37 709.62 1343.25 711.765L1360.77 643.053L1408.62 454.899H1444.48L1432.51 501.709L1397.92 636.968L1390.87 664.488C1394.59 663.064 1398.23 661.562 1402 660.021C1423.42 651.206 1447.9 641.181 1494.12 641.181C1540.33 641.181 1564.68 651.206 1586.23 660.021C1592.83 662.752 1599.2 665.346 1605.97 667.628V705.894C1593.85 702.66 1581.98 698.527 1570.47 693.529C1549.89 685.045 1532.12 677.731 1494.12 677.731ZM778.844 455.387L788.071 491.547C756.458 492.678 739.97 499.349 721.185 507.15C709.5 512.225 697.448 516.404 685.133 519.652V481.386C692.121 479.084 698.604 476.412 705.378 473.584C723.851 466.075 744.369 457.669 778.844 455.406V455.387ZM797.551 548.069C799.245 548.069 800.88 548.069 802.535 548.069L811.995 585.009C807.499 584.775 802.71 584.639 797.551 584.639C759.533 584.639 741.78 591.933 721.185 600.398C709.496 605.482 697.445 609.687 685.133 612.978V574.692C692.121 572.391 698.604 569.718 705.378 566.89C726.966 558.114 751.319 548.089 797.551 548.089V548.069ZM716.766 166.242L685.133 219.917V89.7677H731.852L784.411 0.264526L873.003 0.264526L775.418 166.242H716.766ZM797.532 641.434C843.765 641.434 868.156 651.42 889.647 660.275C893.423 661.796 897.103 663.337 900.782 664.722L893.754 637.221L859.143 502.06L847.171 455.25H883.028L930.877 643.404L948.397 712.136C913.357 709.951 892.567 701.467 873.938 693.841C853.362 685.357 835.569 677.926 797.532 677.926C759.494 677.926 741.78 685.259 721.185 693.704C709.504 698.819 697.452 703.038 685.133 706.323L685.133 667.998C692.121 665.736 698.565 663.044 705.358 660.197C726.986 651.42 751.319 641.434 797.532 641.434Z" fill="url(#paint0_linear_239_6620)"/>
<defs>
<linearGradient id="paint0_linear_239_6620" x1="1239" y1="369.209" x2="1873.02" y2="1183.59" gradientUnits="userSpaceOnUse">
<stop offset="0.0410682" stop-color="#092543"/>
<stop offset="1" stop-color="#006578"/>
</linearGradient>
</defs>
</svg>
