<svg width="375" height="1170" viewBox="0 0 375 1170" fill="none" xmlns="http://www.w3.org/2000/svg">
<path d="M1758.29 1153.6V1121.21C1742.3 1114.88 1723.09 1108.66 1690.18 1108.66C1652.59 1108.66 1632.78 1116.79 1615.3 1123.97C1598.58 1130.81 1584.13 1136.74 1553.21 1136.74H1552.41C1522.08 1136.62 1507.72 1130.75 1491.14 1123.97C1476.18 1117.83 1459.52 1111 1431.55 1109.16V1138.93C1452.48 1140.55 1464.64 1145.54 1478.33 1151.17C1495.81 1158.33 1515.64 1166.44 1553.21 1166.44C1562.91 1166.48 1572.59 1165.82 1582.19 1164.49H1582.45H1582.82C1591.44 1163.21 1599.94 1161.25 1608.24 1158.62C1615.63 1156.27 1622.09 1153.65 1628.13 1151.19C1644.89 1144.33 1659.42 1138.4 1690.22 1138.4C1721.02 1138.4 1735.57 1144.27 1752.33 1151.19C1754.25 1151.97 1756.26 1152.79 1758.29 1153.6ZM1690.18 986.941C1659.28 986.941 1644.85 992.808 1628.09 999.73C1610.61 1006.91 1590.8 1015 1553.23 1015C1515.66 1015 1495.81 1006.91 1478.33 999.73C1464.64 994.118 1452.46 989.151 1431.55 987.527V957.744C1459.52 959.699 1476.18 966.407 1491.14 972.528C1507.86 979.392 1522.43 985.318 1553.23 985.318C1584.03 985.318 1598.58 979.451 1615.3 972.528C1632.78 965.371 1652.59 957.255 1690.18 957.255C1723.03 957.255 1742.3 963.454 1758.29 969.79V1002.17L1752.29 999.73C1735.53 992.886 1721.08 986.941 1690.18 986.941ZM1690.18 1062.66C1659.28 1062.66 1644.85 1068.53 1628.09 1075.43C1610.61 1082.61 1590.8 1090.72 1553.23 1090.72C1515.66 1090.72 1495.81 1082.61 1478.33 1075.43C1464.64 1069.82 1452.48 1064.83 1431.55 1063.21V1033.44C1459.52 1035.3 1476.18 1042.13 1491.14 1048.25C1507.86 1055.11 1522.43 1061.02 1553.23 1061.02C1584.03 1061.02 1598.58 1055.15 1615.3 1048.25C1632.78 1041.09 1652.59 1032.96 1690.18 1032.96C1723.03 1032.96 1742.3 1039.15 1758.29 1045.51V1077.88L1752.29 1075.43C1735.53 1068.59 1721.08 1062.66 1690.18 1062.66ZM1668.98 885.896H1758.29L1713.63 938.99L1668.98 885.896ZM1594.92 938.99L1550.26 885.896H1639.59L1594.92 938.99ZM1476.22 938.99L1431.55 885.896H1520.92L1476.22 938.99ZM1668.98 798.188H1758.29L1713.63 851.282L1668.98 798.188ZM1639.65 798.188L1594.98 851.282L1550.26 798.266L1639.65 798.188ZM1476.28 851.282L1431.55 798.266H1520.92L1476.28 851.282ZM1669.04 400.539H1758.35L1713.69 453.633L1669.04 400.539ZM1594.98 453.633L1550.26 400.617H1639.59L1594.98 453.633ZM1476.28 453.633L1431.55 400.617H1520.92L1476.28 453.633ZM1690.24 342.986C1659.34 342.986 1644.91 348.853 1628.15 355.776C1622.11 358.24 1615.65 360.86 1608.26 363.207C1599.96 365.834 1591.46 367.796 1582.84 369.073H1582.47H1582.21C1572.61 370.419 1562.93 371.073 1553.23 371.029C1515.66 371.029 1495.83 362.913 1478.35 355.756C1464.66 350.124 1452.5 345.137 1431.57 343.514V313.75C1459.54 315.588 1476.2 322.413 1491.16 328.554C1507.72 335.516 1522.08 341.382 1552.41 341.382H1553.21C1584.13 341.382 1598.58 335.516 1615.3 328.612C1632.78 321.435 1652.59 313.32 1690.18 313.32C1723.03 313.32 1742.3 319.519 1758.29 325.855V358.279C1756.34 357.477 1754.25 356.656 1752.29 355.854C1735.53 348.99 1721.08 343.064 1690.18 343.064L1690.24 342.986ZM1690.24 191.545C1659.34 191.545 1644.91 197.412 1628.15 204.335C1610.67 211.512 1590.86 219.608 1553.29 219.608C1515.72 219.608 1495.87 211.512 1478.39 204.335C1464.7 198.722 1452.52 193.755 1431.61 192.132V162.348C1459.58 164.304 1476.24 171.012 1491.2 177.133C1507.92 183.997 1522.49 189.922 1553.29 189.922C1584.09 189.922 1598.64 184.056 1615.36 177.133C1632.84 169.975 1652.65 161.86 1690.24 161.86C1723.09 161.86 1742.36 168.059 1758.35 174.395V206.858L1752.29 204.491C1735.53 197.569 1721.08 191.624 1690.18 191.624L1690.24 191.545ZM1690.24 267.266C1659.34 267.266 1644.91 273.132 1628.15 280.036C1610.67 287.213 1590.86 295.328 1553.29 295.328C1515.72 295.328 1495.87 287.213 1478.39 280.036C1464.7 274.443 1452.54 269.436 1431.61 267.813L1431.61 238.128C1459.58 239.985 1476.24 246.81 1491.2 252.931C1507.92 259.795 1522.49 265.701 1553.29 265.701C1584.09 265.701 1598.64 259.835 1615.36 252.931C1632.84 245.774 1652.65 237.639 1690.24 237.639C1723.09 237.639 1742.36 243.838 1758.35 250.193V282.558L1752.35 280.114C1735.53 273.269 1721.08 267.344 1690.18 267.344L1690.24 267.266ZM1669.04 90.5199H1758.35L1713.63 143.673L1669.04 90.5199ZM1550.32 90.5199H1639.65L1594.92 143.673L1550.32 90.5199ZM1431.61 90.5199H1520.92L1476.22 143.673L1431.61 90.5199ZM1669.04 2.87073H1758.35L1713.69 55.9646L1669.04 2.87073ZM1550.32 2.87073H1639.65L1594.98 55.9646L1550.32 2.87073ZM1431.61 2.87073H1520.92L1476.28 55.9646L1431.61 2.87073ZM1543.73 722.35V640L1489.4 694.326C1469.64 682.545 1451.02 668.961 1433.76 653.748V487.856H1702.79C1719.23 514.752 1732.99 543.199 1743.86 572.787L1684.06 632.589H1758.22V768.815C1701.95 770.027 1619.8 755.79 1543.67 722.428L1543.73 722.35ZM322.62 1135.86C291.78 1135.86 277.387 1141.73 260.667 1148.61C254.644 1151.07 248.191 1153.67 240.818 1156.02C232.516 1158.66 224.014 1160.62 215.395 1161.89H215.024H214.77C205.193 1163.22 195.535 1163.88 185.866 1163.84C148.377 1163.84 128.587 1155.73 111.143 1148.59C97.4539 1142.98 85.3293 1138.01 64.4632 1136.39V1106.68C92.3694 1108.52 108.992 1115.32 123.933 1121.45C140.457 1128.23 154.792 1134.08 185.064 1134.2H185.866C216.706 1134.2 231.138 1128.33 247.799 1121.45C265.243 1114.29 284.956 1106.19 322.522 1106.19C355.298 1106.19 374.521 1112.37 390.479 1118.71V1150.99C388.523 1150.19 386.431 1149.37 384.475 1148.57C367.872 1141.76 353.44 1135.86 322.62 1135.86ZM322.62 984.751C291.78 984.751 277.387 990.617 260.667 997.501C243.223 1004.68 223.511 1012.75 185.964 1012.75C148.417 1012.75 128.685 1004.68 111.241 997.501C97.5517 991.928 85.4271 986.96 64.561 985.337V955.612C92.4672 957.47 109.09 964.276 124.03 970.377C140.712 977.222 155.144 983.127 185.964 983.127C216.784 983.127 231.216 977.261 247.917 970.377C265.361 963.239 285.073 955.123 322.62 955.123C355.396 955.123 374.619 961.323 390.577 967.639V999.945L384.573 997.501C367.872 990.637 353.44 984.77 322.62 984.77V984.751ZM322.62 1060.29C291.78 1060.29 277.387 1066.16 260.667 1073.05C243.223 1080.2 223.511 1088.3 185.964 1088.3C148.417 1088.3 128.685 1080.2 111.241 1073.05C97.5517 1067.45 85.4271 1062.47 64.561 1060.84V1031.16C92.4672 1032.99 109.09 1039.8 124.03 1045.92C140.712 1052.77 155.144 1058.67 185.964 1058.67C216.784 1058.67 231.216 1052.8 247.917 1045.92C265.361 1038.76 285.073 1030.67 322.62 1030.67C355.396 1030.67 374.619 1036.85 390.577 1043.18V1075.49L384.573 1073.05C367.872 1066.22 353.44 1060.29 322.62 1060.29ZM301.461 883.94L390.596 883.94L346.048 936.917L301.461 883.94ZM227.579 936.917L183.011 883.94H272.127L227.579 936.917ZM109.129 936.917L64.561 883.94H153.677L109.129 936.917ZM301.461 796.506L390.596 796.506L346.048 849.483L301.461 796.506ZM272.127 796.506L227.579 849.483L183.011 796.506H272.127ZM109.129 849.483L64.561 796.506H153.677L109.129 849.483ZM322.62 739.07C291.78 739.07 277.387 744.937 260.667 751.84C254.644 754.304 248.191 756.905 240.818 759.252C232.514 761.883 224.012 763.844 215.395 765.119H215.024H214.77C205.193 766.454 195.535 767.108 185.866 767.074C148.377 767.074 128.587 758.959 111.143 751.821C97.4539 746.208 85.3293 741.241 64.4632 739.618C59.9654 739.285 55.096 739.09 49.679 739.09C18.859 739.09 4.44635 744.957 -12.2739 751.86C-18.2971 754.324 -24.731 756.925 -32.1231 759.272C-40.3948 761.899 -48.8634 763.861 -57.448 765.138H-57.8H-58.0542C-67.6369 766.473 -77.3022 767.127 -86.9773 767.094C-124.466 767.094 -144.237 758.978 -161.681 751.84C-175.37 746.228 -187.494 741.261 -208.38 739.637C-212.878 739.305 -217.747 739.109 -223.164 739.109C-253.984 739.109 -268.397 744.976 -285.098 751.879C-291.14 754.343 -297.574 756.944 -304.947 759.291C-306.374 759.741 -307.861 760.171 -309.347 760.601V729.312C-305.436 727.884 -301.74 726.359 -297.868 724.775C-280.424 717.617 -260.712 709.502 -223.164 709.502C-190.389 709.502 -171.146 715.701 -155.188 722.037V722.233C-153.057 723.074 -150.964 723.934 -148.911 724.775C-132.366 731.561 -118.052 737.408 -87.7791 737.506H-86.9773C-56.1377 737.506 -41.7055 731.639 -25.0244 724.775C-7.58057 717.617 12.1317 709.502 49.679 709.502C82.4546 709.502 101.678 715.701 117.636 722.037V722.233C119.787 723.074 121.879 723.934 123.933 724.775C140.457 731.561 154.792 737.408 185.064 737.506H185.866C216.706 737.506 231.138 731.639 247.799 724.775C265.243 717.617 284.956 709.502 322.522 709.502C355.298 709.502 374.521 715.701 390.479 722.037V754.265L384.475 751.84C367.872 744.996 353.44 739.07 322.62 739.07ZM322.62 587.982C291.78 587.982 277.387 593.849 260.667 600.732C243.223 607.89 223.511 615.986 185.964 615.986C148.417 615.986 128.685 607.89 111.241 600.732C97.5517 595.139 85.4271 590.172 64.561 588.549C60.0632 588.216 55.1938 588.021 49.7768 588.021C18.9372 588.021 4.54407 593.888 -12.1762 600.771C-29.62 607.929 -49.3323 616.025 -86.8795 616.025C-124.427 616.025 -144.159 607.929 -161.602 600.771C-175.292 595.178 -187.416 590.211 -208.282 588.588C-212.78 588.255 -217.65 588.06 -223.066 588.06C-253.887 588.06 -268.299 593.927 -285 600.81C-292.911 604.204 -301.007 607.148 -309.249 609.63V578.223C-305.338 576.815 -301.642 575.27 -297.77 573.686C-280.326 566.529 -260.614 558.433 -223.066 558.433C-190.291 558.433 -171.048 564.612 -155.09 570.949V571.144C-152.959 571.985 -150.866 572.846 -148.813 573.686C-132.132 580.531 -117.7 586.437 -86.8795 586.437C-56.0595 586.437 -41.6273 580.57 -24.9266 573.686C-7.48276 566.529 12.2296 558.433 49.7768 558.433C82.5524 558.433 101.776 564.612 117.733 570.949V571.144C119.885 571.985 121.977 572.846 124.03 573.686C140.712 580.531 155.144 586.437 185.964 586.437C216.784 586.437 231.216 580.57 247.917 573.686C265.361 566.529 285.073 558.433 322.62 558.433C355.396 558.433 374.619 564.612 390.577 570.949V603.177L384.573 600.732C367.872 593.907 353.44 587.982 322.62 587.982ZM322.62 663.526C291.78 663.526 277.387 669.393 260.667 676.276C243.223 683.434 223.511 691.53 185.964 691.53C148.417 691.53 128.685 683.434 111.241 676.276C97.5517 670.683 85.4271 665.697 64.561 664.074C60.0632 663.741 55.1938 663.546 49.7768 663.546C18.9372 663.546 4.54407 669.412 -12.1762 676.296C-29.62 683.453 -49.3323 691.55 -86.8795 691.55C-124.427 691.55 -144.159 683.453 -161.602 676.296C-175.292 670.703 -187.397 665.716 -208.282 664.093C-212.78 663.761 -217.65 663.565 -223.066 663.565C-253.887 663.565 -268.299 669.432 -285 676.316C-292.911 679.702 -301.007 682.64 -309.249 685.116V653.826C-305.338 652.399 -301.642 650.873 -297.77 649.27C-280.326 642.132 -260.614 634.036 -223.066 634.036C-190.291 634.036 -171.048 640.215 -155.09 646.552V646.728L-148.813 649.27C-132.132 656.134 -117.7 662.02 -86.8795 662.02C-56.0595 662.02 -41.6273 656.154 -24.9266 649.27C-7.48276 642.132 12.2296 634.036 49.7768 634.036C82.5524 634.036 101.776 640.215 117.733 646.552V646.728L124.03 649.27C140.712 656.134 155.144 662.02 185.964 662.02C216.784 662.02 231.216 656.154 247.917 649.27C265.361 642.132 285.073 634.036 322.62 634.036C355.396 634.036 374.619 640.215 390.577 646.552V678.701C388.621 677.9 386.548 677.078 384.573 676.276C367.872 669.451 353.44 663.526 322.62 663.526ZM301.461 487.171H390.596L346.048 540.148L301.461 487.171ZM227.579 540.148L183.011 487.171H272.127L227.579 540.148ZM109.129 540.148L64.561 487.171L153.677 487.171L109.129 540.148ZM301.461 399.737H390.596L346.048 452.694L301.461 399.737ZM272.127 399.737L227.579 452.694L183.011 399.737H272.127ZM153.677 399.737L109.129 452.694L64.561 399.737L153.677 399.737ZM301.461 312.459H390.596L346.029 365.436L301.461 312.459ZM272.127 312.459L227.579 365.436L183.011 312.459H272.127ZM153.677 312.459L109.129 365.436L64.561 312.459L153.677 312.459ZM-72.3691 796.506H16.7665L-27.8013 849.483L-72.3691 796.506ZM-101.703 796.506L-146.271 849.483L-190.838 796.506H-101.703ZM-264.721 849.483L-309.269 796.506H-220.153L-264.721 849.483ZM-27.8209 540.148L-72.3886 487.171H16.7469L-27.8209 540.148ZM-146.271 540.148L-190.838 487.171H-101.703L-146.271 540.148ZM-264.721 540.148L-309.269 487.171H-220.153L-264.721 540.148ZM-264.721 452.323L-309.269 399.346H-220.153L-264.721 452.323ZM-101.703 399.346L-146.271 452.323L-190.838 399.346H-101.703ZM16.7469 399.346L-27.8209 452.323L-72.3886 399.346H16.7469ZM-264.701 364.849L-309.249 311.873H-220.133L-264.701 364.849ZM-101.683 311.873L-146.251 364.849L-190.819 311.873H-101.683ZM16.7665 311.873L-27.8013 364.849L-72.3691 311.873H16.7665ZM-104.636 282.539C-114.311 282.572 -123.977 281.918 -133.559 280.583H-133.814H-134.166C-142.785 279.321 -151.287 277.359 -159.588 274.716C-166.98 272.389 -173.414 269.769 -179.437 267.305C-196.158 260.46 -210.57 254.554 -241.39 254.554C-272.21 254.554 -286.643 260.421 -303.363 267.305C-305.318 268.107 -307.274 268.928 -309.347 269.73V237.424C-293.389 231.087 -274.146 224.908 -241.39 224.908C-203.902 224.908 -184.131 233.004 -166.687 240.161C-150.006 247.006 -135.574 252.912 -104.734 252.912H-103.932C-73.6598 252.794 -59.3449 246.947 -42.8006 240.161C-27.86 234.04 -11.2571 227.235 16.6687 225.397V255.043C-4.21695 256.666 -16.3415 261.634 -30.0306 267.246C-47.4549 274.404 -67.1477 282.5 -104.636 282.5V282.539ZM-104.636 131.431C-142.144 131.431 -161.896 123.354 -179.34 116.197C-196.06 109.352 -210.453 103.446 -241.293 103.446C-272.132 103.446 -286.545 109.313 -303.265 116.197L-309.249 118.622V86.3153C-293.292 79.9988 -274.049 73.7996 -241.293 73.7996C-203.804 73.7996 -184.033 81.9153 -166.589 89.0532C-149.889 95.8977 -135.476 101.804 -104.636 101.804C-73.7967 101.804 -59.384 95.9369 -42.7029 89.0532C-27.7622 82.9518 -11.1593 76.1462 16.7665 74.2885V103.974C-4.09961 105.597 -16.2633 110.565 -29.9133 116.158C-47.3571 123.315 -67.1477 131.392 -104.636 131.392V131.431ZM-104.636 206.975C-142.144 206.975 -161.896 198.879 -179.34 191.721C-196.06 184.896 -210.453 178.971 -241.293 178.971C-272.132 178.971 -286.545 184.838 -303.265 191.721L-309.249 194.166V161.86C-293.292 155.543 -274.049 149.344 -241.293 149.344C-203.804 149.344 -184.033 157.46 -166.589 164.597C-149.889 171.442 -135.476 177.348 -104.636 177.348C-73.7967 177.348 -59.384 171.481 -42.7029 164.597C-27.7622 158.496 -11.1593 151.69 16.7665 149.833V179.499C-4.11917 181.122 -16.2438 186.089 -29.9133 191.682C-47.3571 198.84 -67.1477 206.936 -104.636 206.936V206.975ZM-311.459 2.57727H-222.343L-266.911 55.554L-311.459 2.57727ZM-193.009 2.57727H-103.893L-148.461 55.554L-193.009 2.57727ZM-74.5593 2.57727H14.5567L-29.8546 55.554L-74.5593 2.57727ZM175.306 237.247V155.113L121.097 209.322C101.384 197.566 82.7986 184.015 65.5779 168.841L65.5779 3.06616H334.021C350.49 29.899 364.278 58.2875 375.186 87.8212L315.521 147.506H389.501V283.419C333.278 284.67 251.319 270.453 175.365 237.169L175.306 237.247ZM0.241791 970.885L-59.4231 1030.55H14.5567V1166.37C-41.6664 1167.6 -123.645 1153.4 -199.599 1120.12V1037.98L-253.808 1092.19C-273.512 1080.43 -292.091 1066.88 -309.308 1051.71L-309.308 886.091H-40.9233C-24.4415 912.912 -10.6339 941.287 0.300476 970.807L0.241791 970.885ZM1021.62 264.723C1074.78 312.107 1078.45 357.633 1078.45 357.633L909.882 356.714L741.292 357.633C741.292 357.633 744.968 312.049 798.14 264.723L804.887 314.278H1014.86L1021.62 264.723ZM913.207 161.469H836.176L817.051 191.232V125.29H1002.69V191.272L983.569 161.469H913.207ZM823.133 764.376L775.71 566.451L749.896 458.718H909.863L775.71 566.431H1044.04L996.613 764.415L823.133 764.376ZM1044.11 566.412L909.882 458.718H1069.85L1044.11 566.412ZM719.584 764.395L658.961 836.556L600.802 767.485L544.325 881.965L461.31 943.449L507.716 828.186L562.003 764.395H719.584ZM1005.71 1141.82L945.083 1069.66H1066.47L1005.71 1141.82ZM1312.03 828.186L1358.45 943.449L1275.42 881.965L1218.96 767.485L1160.86 836.556L1100.24 764.395H1257.82L1312.03 828.186ZM448.032 1048.7L447.367 1048.17V1169.04L910.019 1169.04L909.902 854.02L1371.69 1048.66L1057.06 853.941L762.725 853.941L448.071 1048.66L448.032 1048.7ZM756.819 1069.68H878.202L817.579 1141.84L756.819 1069.68ZM1281.6 166.651L1183.55 0.230347H1272.57L1325.37 89.9723H1372.3V220.469L1340.58 166.651H1281.6ZM1269.51 492.53L1278.78 456.234C1313.42 458.522 1334.03 466.97 1352.53 474.519C1359.16 477.276 1365.53 479.857 1372.38 482.145V520.573C1360.19 517.326 1348.27 513.169 1336.71 508.135C1317.84 500.43 1301.27 493.683 1269.51 492.53ZM1260.01 585.831C1254.81 585.831 1250 585.987 1245.5 586.222L1254.97 549.281C1256.59 549.281 1258.23 549.281 1259.95 549.281C1306.36 549.281 1330.84 559.352 1352.47 568.191C1359.1 570.909 1365.48 573.53 1372.32 575.779V614.128C1360.14 610.881 1348.21 606.724 1336.65 601.69C1316.04 593.242 1298.18 585.831 1260.01 585.831ZM1174.51 251.621L1055.01 54.3219H764.759L645.233 251.699H608.996L757.914 0.230347H1061.83L1210.73 251.699L1174.51 251.621ZM1260.01 679.503C1221.82 679.503 1203.92 686.837 1183.27 695.304C1164.54 702.97 1143.73 711.477 1108.45 713.628L1126.05 644.733L1174.12 456.078H1210.14L1198.12 503.012L1163.37 638.631L1156.29 666.225C1160.02 664.797 1163.68 663.291 1167.47 661.746C1188.98 652.907 1213.58 642.855 1260.01 642.855C1306.44 642.855 1330.9 652.907 1352.55 661.746C1359.18 664.484 1365.57 667.085 1372.38 669.373V707.742C1360.2 704.499 1348.27 700.355 1336.71 695.343C1316.04 686.837 1298.18 679.503 1260.01 679.503ZM541.45 456.566L550.72 492.823C518.961 493.957 502.397 500.645 483.526 508.468C471.788 513.556 459.68 517.747 447.308 521.003V482.634C454.329 480.327 460.841 477.648 467.646 474.812C486.205 467.283 506.817 458.854 541.45 456.586V456.566ZM560.243 549.496C561.945 549.496 563.587 549.496 565.25 549.496L574.754 586.535C570.236 586.3 565.426 586.163 560.243 586.163C522.051 586.163 504.216 593.477 483.526 601.964C471.783 607.062 459.677 611.278 447.308 614.578V576.19C454.329 573.882 460.841 571.203 467.646 568.367C489.334 559.567 513.798 549.515 560.243 549.515V549.496ZM479.087 166.651L447.308 220.469V89.9723H494.242L547.043 0.230347L636.042 0.230347L538.008 166.651H479.087ZM560.224 643.11C606.669 643.11 631.172 653.122 652.762 662.001C656.556 663.526 660.252 665.071 663.948 666.459L656.888 638.886L622.118 503.364L610.091 456.43H646.113L694.181 645.085L711.782 714C676.581 711.809 655.695 703.303 636.981 695.656C616.31 687.149 598.436 679.699 560.224 679.699C522.012 679.699 504.216 687.052 483.526 695.519C471.791 700.648 459.684 704.878 447.308 708.172L447.308 669.745C454.329 667.476 460.802 664.778 467.627 661.922C489.353 653.122 513.798 643.11 560.224 643.11Z" fill="url(#paint0_linear_251_6518)"/>
<defs>
<linearGradient id="paint0_linear_251_6518" x1="186" y1="630" x2="1000" y2="557.5" gradientUnits="userSpaceOnUse">
<stop offset="0.0410682" stop-color="#092543"/>
<stop offset="1" stop-color="#006578"/>
</linearGradient>
</defs>
</svg>
