<svg width="215" height="90" viewBox="0 0 215 90" fill="none" xmlns="http://www.w3.org/2000/svg">
<g clip-path="url(#clip0_239_6557)">
<path d="M104.863 16.05H102.506L101.638 19.0349H101.281L100.412 16.05H98.0552L99.4895 19.9581L97.8936 24.3378H100.271L101.22 21.117H101.698L102.648 24.3378H105.025L103.429 19.9581L104.863 16.05Z" fill="white"/>
<path d="M122.318 16.05H119.82L118.56 19.1427H117.934V16.05H115.638V24.3378H117.934V21.1305H118.634L119.954 24.3378H122.48L120.581 19.9581L122.318 16.05Z" fill="white"/>
<path d="M135.436 21.0227H137.874H138.143V19.2236H137.874H135.436V17.9434H138.413H138.682V16.05H135.423H133.086V24.3378H135.423H138.783V22.4444H135.436V21.0227Z" fill="white"/>
<path d="M154.13 16.05V19.0349H152.473V16.05H150.137V24.3378H152.473V21.117H154.13V24.3378H154.137H156.467V16.05H154.137H154.13Z" fill="white"/>
<path d="M168.696 16.05H166.359V24.3378H168.696V16.05Z" fill="white"/>
<path d="M161.363 17.8221V16.05H159.026V24.3378H165.141V19.4325L163.68 17.8221H161.363ZM162.831 22.5387H161.363V19.6212H162.831V22.5387Z" fill="white"/>
<path d="M191.519 24.3378H193.902L194.879 18.0781H196.286V24.3378H198.623V16.05H192.98L191.519 24.3378Z" fill="white"/>
<path d="M203.68 19.9378H203.269L202.542 16.05H200.212L201.498 21.7369H203.35L203.202 22.4444H200.555V24.3378H204.892L206.731 16.05H204.394L203.68 19.9378Z" fill="white"/>
<path d="M213.627 19.1764H210.859V17.8288H214.401V16.0298H208.522V24.3176H214.974V20.6858L213.627 19.1764ZM212.664 22.5455H210.859V20.8879H212.664V22.5455Z" fill="white"/>
<path d="M107.06 17.6604V24.3378H111.827L113.437 22.7274V16.05H108.669L107.06 17.6604ZM109.45 18.1321H111.1V22.2557H109.45V18.1321Z" fill="white"/>
<path d="M145.855 15.2954L146.366 13.6041H142.501L143.006 15.2954H145.855Z" fill="white"/>
<path d="M189.929 16.05H187.424L186.165 19.1427H185.545V16.05H183.249V24.3378H185.545V21.1305H186.246L187.566 24.3378H190.084L188.185 19.9581L189.929 16.05Z" fill="white"/>
<path d="M143.666 20.6049V16.05H141.329V24.3378H143.935L145.349 19.7829V24.3378H147.686V16.05H145.08L143.666 20.6049Z" fill="white"/>
<path d="M175.733 15.2954L176.238 13.6041H172.373L172.885 15.2954H175.733Z" fill="white"/>
<path d="M173.545 20.6049V16.05H171.208V24.3378H173.814L175.228 19.7829V24.3378H177.565V16.05H174.959L173.545 20.6049Z" fill="white"/>
<path d="M131.039 16.05H128.54L127.281 19.1427H126.661V16.05H124.358V24.3378H126.661V21.1305H127.362L128.682 24.3378H131.2L129.301 19.9581L131.039 16.05Z" fill="white"/>
<path d="M125.645 28.8792H97.9003V32.3493C97.8886 34.0057 98.4157 35.621 99.402 36.9514C99.6301 37.2563 99.8848 37.5404 100.163 37.8004L97.8936 40.125V67.8723H125.625V48.3791H121.51L116.372 53.5404V59.6047H107.368V37.0996H116.385V42.6989H120.574L125.638 37.6185V28.859L125.645 28.8792Z" fill="white"/>
<path d="M174.697 47.3212H167.013V28.8792H157.922V49.0394L164.016 55.1306L176.885 55.1441L174.697 57.3272V61.6935H183.788V28.8792H174.697V47.3212Z" fill="white"/>
<path d="M129.153 35.2534V61.6935H148.042L154.406 55.326V28.8792H135.51L129.153 35.2534ZM138.615 51.2293V37.1266H145.16V53.4394H136.406L138.615 51.2293Z" fill="white"/>
<path d="M214.973 32.3493V28.8792H203.626L196.164 51.3371V28.8792H187.262V67.8857H198.629L206.097 45.4278V67.8857H214.973V40.1385L212.703 37.8138C212.981 37.5539 213.236 37.2698 213.464 36.9649C214.456 35.6316 214.985 34.0111 214.973 32.3493Z" fill="white"/>
<path d="M77.2605 0.424723C71.3798 0.467286 65.6348 2.19786 60.708 5.41088L50.9368 0.0204468L44.0344 2.23052L37.1386 0.0204468L27.3674 5.41088C22.4407 2.19786 16.6957 0.467286 10.815 0.424723H0V16.596L0.0538741 17.0138C0.670916 21.8956 2.70024 26.4906 5.89235 30.2338L3.87211 34.9976V67.8523L15.246 67.9466L20.3976 76.7061H23.0913L30.9365 90.0339H57.1659L65.0111 76.7061H67.7048L72.8564 67.9466L84.2303 67.8523V35.0111L82.2101 30.2473C85.4058 26.5082 87.4377 21.9149 88.0553 17.034L88.1091 16.6095V0.438202L77.2605 0.424723Z" fill="#0A2240"/>
<path d="M77.2408 3.94176C76.2239 3.94176 67.9073 3.98219 60.9712 9.57477L50.567 3.8407L44.0349 5.92949L37.5095 3.8407L27.0919 9.57477C20.1557 3.98219 11.8458 3.92155 10.8222 3.94176H3.52246V16.3735V16.5823C4.18732 21.4925 6.46649 26.0417 10.0007 29.5126L7.35417 35.7049V64.3416L17.2331 64.4224L22.378 73.1819H25.0716L32.9169 86.5097H55.1394L62.9847 73.1819H65.6783L70.8232 64.4224L80.6954 64.3416V35.7049L78.0489 29.5126C81.5881 26.0445 83.8701 21.4943 84.5338 16.5823V16.3735V3.94176H77.2408Z" fill="#FFB600"/>
<path d="M75.152 27.4238C78.3687 24.4651 80.4586 20.4806 81.0646 16.1511V7.4253H77.2059C77.2059 7.4253 67.8994 7.20968 61.4347 13.8467L50.1617 7.60049L44.0068 9.57473L37.8653 7.60049L26.5924 13.8467C20.1545 7.23664 10.8547 7.43877 10.8547 7.43877H6.99609V16.1645C7.61591 20.4946 9.72023 24.4747 12.949 27.4238L13.1309 27.5855C13.5012 27.9089 13.8851 28.2122 14.2757 28.5019L10.9086 36.4056V46.0612C11.4943 46.1743 12.0901 46.2262 12.6864 46.2162C13.8938 46.2517 15.0928 46.0048 16.1882 45.4952C16.5249 45.3605 16.8616 45.2122 17.306 45.0775C17.7751 44.9311 18.2546 44.8207 18.7404 44.7473H18.774C19.3163 44.6726 19.8631 44.6366 20.4104 44.6395C21.8624 44.6082 23.3029 44.9029 24.626 45.502C25.7215 46.0108 26.9204 46.2577 28.1277 46.2229C29.3351 46.2584 30.5342 46.0116 31.6295 45.502C32.708 45.02 33.8646 44.7369 35.0437 44.6664L34.2423 47.8131L32.047 56.4243H30.4039L30.9493 54.2816L32.5386 48.0961L32.8618 46.8361C32.6867 46.8967 32.5251 46.9709 32.35 47.0382C31.0247 47.6379 29.5819 47.9326 28.1277 47.9007C26.6737 47.931 25.2313 47.6363 23.9055 47.0382C22.8243 46.5365 21.6424 46.2898 20.4508 46.3173H20.3566C19.1495 46.2852 17.9512 46.5319 16.8548 47.0382C15.5295 47.6379 14.0867 47.9326 12.6325 47.9007C11.318 47.932 10.0112 47.6911 8.7941 47.1932V49.6593L9.13081 49.7941C10.2263 50.303 11.4252 50.5498 12.6325 50.5151C13.8399 50.5506 15.039 50.3037 16.1343 49.7941C17.4585 49.1898 18.9014 48.8905 20.3566 48.9181C21.8106 48.8879 23.253 49.1825 24.5789 49.7806C25.6717 50.2904 26.8686 50.5373 28.0739 50.5016H28.7473L28.3163 52.1928H28.0873C26.6333 52.2231 25.1909 51.9285 23.865 51.3304C22.7709 50.8246 21.5749 50.5779 20.37 50.6094C19.1629 50.5773 17.9647 50.824 16.8683 51.3304C15.543 51.93 14.1002 52.2247 12.646 52.1928C11.3315 52.2241 10.0247 51.9833 8.80757 51.4853V53.9312L9.14427 54.066C10.2409 54.5716 11.439 54.8183 12.646 54.787C13.8531 54.819 15.0514 54.5723 16.1477 54.066C17.4731 53.4664 18.9159 53.1717 20.37 53.2035C21.8241 53.1733 23.2665 53.4679 24.5923 54.066C25.5543 54.5108 26.597 54.7539 27.6563 54.7802L27.2321 56.4378C26.0689 56.3625 24.9286 56.0795 23.865 55.6023C22.7719 55.0935 21.5752 54.8466 20.37 54.8813C19.1626 54.8458 17.9636 55.0927 16.8683 55.6023C15.543 56.2019 14.1002 56.4966 12.646 56.4647C12.0511 56.4658 11.4569 56.423 10.8682 56.3367V60.8849L19.2522 60.9523L24.397 69.6511H27.0907L34.9359 82.9789H53.1517L60.9969 69.6511H63.6906L68.8422 60.9388H69.2934L77.2262 60.8714V56.3367C76.6446 56.4261 76.0569 56.4689 75.4685 56.4647C74.0144 56.4966 72.5716 56.2019 71.2463 55.6023C70.151 55.0927 68.9519 54.8458 67.7445 54.8813C66.5394 54.8466 65.3427 55.0935 64.2495 55.6023C63.1859 56.0795 62.0456 56.3625 60.8825 56.4378L60.4582 54.7802C61.518 54.7571 62.5614 54.5139 63.5222 54.066C64.848 53.4679 66.2905 53.1733 67.7445 53.2035C69.1987 53.1717 70.6415 53.4664 71.9668 54.066C73.0621 54.5756 74.2611 54.8225 75.4685 54.787C76.6758 54.8207 77.8744 54.574 78.9703 54.066L79.307 53.9312V51.4853C78.0875 51.9718 76.7807 52.2011 75.4685 52.1591C74.0144 52.191 72.5716 51.8963 71.2463 51.2967C70.1499 50.7904 68.9516 50.5437 67.7445 50.5757C66.5396 50.5442 65.3437 50.7909 64.2495 51.2967C62.9237 51.8948 61.4812 52.1894 60.0272 52.1591H59.7983L59.3673 50.4679C59.5693 50.4679 59.7915 50.4679 60.0407 50.4679C61.2459 50.5036 62.4428 50.2567 63.5357 49.7469C64.8623 49.1518 66.3045 48.8595 67.758 48.8912C69.2116 48.8579 70.6542 49.1503 71.9803 49.7469C73.0756 50.2565 74.2746 50.5034 75.482 50.4679C76.6893 50.5017 77.8879 50.2549 78.9837 49.7469L79.3205 49.6122V47.1663C78.1009 47.6527 76.7942 47.8821 75.482 47.8401C74.0279 47.8719 72.585 47.5772 71.2597 46.9776C70.1633 46.4713 68.9651 46.2246 67.758 46.2566H67.7176C66.5261 46.2292 65.3442 46.4758 64.263 46.9776C62.9372 47.5757 61.4947 47.8703 60.0407 47.8401C58.5865 47.8719 57.1437 47.5772 55.8184 46.9776L55.3066 46.7755L55.6299 48.0355L57.2191 54.221L57.7646 56.3637H56.1214L53.9261 47.7525L53.1248 44.6058C54.3038 44.6763 55.4605 44.9593 56.539 45.4413C57.6335 45.9537 58.8327 46.2029 60.0407 46.169C61.2465 46.2029 62.4435 45.9536 63.5357 45.4413C64.8633 44.8494 66.3048 44.5572 67.758 44.5856C68.3051 44.5807 68.852 44.6145 69.3944 44.6867C69.8802 44.76 70.3597 44.8704 70.8287 45.0168C71.2395 45.1516 71.6099 45.2998 71.9466 45.4346C73.0412 45.947 74.2404 46.1962 75.4483 46.1623C76.0379 46.1687 76.6266 46.1168 77.2059 46.0073V36.3315L73.8389 28.4278C74.2295 28.138 74.6066 27.8348 74.9837 27.5114L75.152 27.4238ZM44.0337 56.3098L50.155 51.391L51.3335 56.3098H36.7407L37.9191 51.391L44.0337 56.3098ZM40.0808 49.3359V42.3553H47.9664V49.3359H40.0808ZM22.9694 29.3846L16.3161 34.5998L19.6832 27.1408C18.1948 26.5804 16.8244 25.7462 15.6427 24.6814L17.838 21.9458H13.2049C12.4693 20.8339 11.8659 19.6399 11.4069 18.3881L13.5888 16.1982H10.8951V11.2525C13.5981 11.2748 16.268 11.8504 18.7404 12.9437V15.9557L20.7269 13.9342C21.6112 14.4623 22.4315 15.0909 23.1714 15.8074C24.094 16.6997 24.8976 17.7075 25.562 18.8059L37.8653 11.9802L44.0337 17.438V38.2855L22.9694 29.3846ZM56.108 65.77H57.7578L50.4042 78.2084H37.67L30.3163 65.77H31.9662L37.4141 74.7787H50.6601L56.108 65.77ZM70.6739 21.9727L72.4449 24.7084C71.2123 25.8137 69.7757 26.6675 68.2159 27.2217L62.5727 18.7654C63.2315 17.6927 64.0234 16.7079 64.9297 15.8344C65.6696 15.1178 66.4899 14.4892 67.3741 13.9612L69.3944 15.9826V12.9707C71.8544 11.8726 74.5124 11.2879 77.2059 11.2525V16.2319H74.5123L76.7009 18.4218C76.2392 19.6724 75.6359 20.8661 74.9029 21.9795L70.6739 21.9727ZM39.8249 20.4701L42.5926 23.765H37.0572L39.8249 20.4701ZM32.3298 20.4701L35.1043 23.765H29.5621L32.3298 20.4701ZM39.8249 25.1868L42.5926 28.4817H37.0572L39.8249 25.1868Z" fill="#0A2240"/>
<path d="M44.0208 17.4178L37.8658 11.9802L44.0208 14.0016L50.1757 11.9802L44.0342 17.438L44.0208 17.4178ZM29.9397 42.2475L27.3606 37.0188L23.576 34.2158L25.6905 39.4714L28.1687 42.3823H35.354L32.5862 39.0941L29.9397 42.2475ZM44.0275 38.299H50.7616L65.112 29.4115L44.0477 38.2923L22.9834 29.4115L37.3405 38.299H44.0275ZM37.9197 51.418H50.1555L47.967 42.3688V49.3494H40.0813V42.3688L37.9197 51.418ZM58.122 42.2475L55.4688 39.0941L52.701 42.3823H59.8931L62.3645 39.4714L64.4857 34.2158L60.6944 37.0188L58.122 42.2475ZM36.3304 60.9523C36.3304 60.9523 36.4988 63.0276 38.9231 65.1905L39.2328 62.9265H48.8087L49.1185 65.1905C51.5428 63.0276 51.7111 60.9523 51.7111 60.9523L44.0208 60.9927L36.3304 60.9523ZM44.1891 69.8735H40.6739L39.8052 68.5259V71.531H48.27V68.5259L47.4013 69.8735H44.1891Z" fill="white"/>
<path d="M51.2063 23.7381H45.6709L48.4386 20.4432L51.2063 23.7381Z" fill="#FFB600"/>
<path d="M58.7015 23.7381H53.166L55.9337 20.4432L58.7015 23.7381Z" fill="#FFB600"/>
<path d="M51.2063 28.4413H45.6709L48.4386 25.1531L51.2063 28.4413Z" fill="#FFB600"/>
</g>
<defs>
<clipPath id="clip0_239_6557">
<rect width="215" height="90" fill="white"/>
</clipPath>
</defs>
</svg>
