<svg width="81" height="78" viewBox="0 0 81 78" fill="none" xmlns="http://www.w3.org/2000/svg">
<path fill-rule="evenodd" clip-rule="evenodd" d="M49.8245 27.4163C53.7982 27.4106 57.0099 23.5084 57.0099 18.7005C57.0042 13.8908 53.7772 9.99621 49.8055 10C45.8337 10.0038 42.6182 13.9059 42.622 18.7157C42.6258 23.5255 45.8509 27.422 49.8245 27.4163ZM31.1541 27.4325C35.1259 27.4287 38.3395 23.5284 38.3395 18.7186C38.3338 13.9088 35.1107 10.0143 31.137 10.0181C27.1633 10.0219 23.9421 13.9221 23.9497 18.7319C23.9574 23.5417 27.1824 27.4363 31.1541 27.4325ZM24.8283 37.6857C24.8283 42.4955 21.6166 46.3976 17.641 46.4014C13.6655 46.4052 10.4442 42.5088 10.4404 37.7009C10.4366 32.893 13.6521 28.9889 17.6239 28.9851C21.5956 28.9813 24.8226 32.8759 24.8283 37.6857ZM62.1012 58.3019C62.1048 59.8462 61.726 61.3676 60.9983 62.731C60.2707 64.0944 59.2167 65.2578 57.93 66.1178C56.6432 66.9779 55.1633 67.5081 53.6217 67.6614C52.0801 67.8147 50.5244 67.5864 49.0925 66.9968C46.5464 65.9168 43.8111 65.3501 41.0442 65.3296H40.2974C37.4463 65.3362 34.6247 65.9061 31.9958 67.0062C29.8942 67.8828 27.5452 67.9706 25.3837 67.2535C23.2221 66.5364 21.3945 65.0628 20.239 63.1057C19.0836 61.1486 18.6787 58.8405 19.0992 56.6086C19.5198 54.3768 20.7373 52.3724 22.5264 50.9666C25.8239 48.3728 28.1269 44.7194 29.2146 40.673C30.4757 35.9733 33.4721 31.0173 40.4917 31.0116C47.439 31.0116 50.4469 35.9752 51.7308 40.6806C52.8664 44.7526 55.2623 48.3635 58.5771 50.9989C59.6759 51.8753 60.563 52.9865 61.173 54.2506C61.783 55.5147 62.1002 56.8992 62.1012 58.3019ZM70.5601 37.639C70.5601 42.4488 67.3483 46.3509 63.3766 46.3547C59.4048 46.3585 56.1779 42.464 56.1722 37.6542C56.1665 32.8444 59.3839 28.9423 63.3575 28.9385C67.3312 28.9347 70.5562 32.8235 70.5601 37.639Z" fill="white"/>
</svg>
