<svg width="201" height="201" viewBox="0 0 201 201" fill="none" xmlns="http://www.w3.org/2000/svg">
<path d="M0.174805 0H8.20084V8.02604H0.174805V0ZM8.20084 0H16.2269V8.02604H8.20084V0ZM16.2269 0H24.2529V8.02604H16.2269V0ZM24.2529 0H32.2789V8.02604H24.2529V0ZM32.2789 0H40.305V8.02604H32.2789V0ZM40.305 0H48.331V8.02604H40.305V0ZM48.331 0H56.3571V8.02604H48.331V0ZM64.3831 0H72.4091V8.02604H64.3831V0ZM80.4352 0H88.4612V8.02604H80.4352V0ZM96.4872 0H104.513V8.02604H96.4872V0ZM104.513 0H112.539V8.02604H104.513V0ZM128.591 0H136.617V8.02604H128.591V0ZM144.643 0H152.669V8.02604H144.643V0ZM152.669 0H160.696V8.02604H152.669V0ZM160.696 0H168.722V8.02604H160.696V0ZM168.722 0H176.748V8.02604H168.722V0ZM176.748 0H184.774V8.02604H176.748V0ZM184.774 0H192.8V8.02604H184.774V0ZM192.8 0H200.826V8.02604H192.8V0ZM0.174805 8.02604H8.20084V16.0521H0.174805V8.02604ZM48.331 8.02604H56.3571V16.0521H48.331V8.02604ZM72.4091 8.02604H80.4352V16.0521H72.4091V8.02604ZM80.4352 8.02604H88.4612V16.0521H80.4352V8.02604ZM88.4612 8.02604H96.4872V16.0521H88.4612V8.02604ZM96.4872 8.02604H104.513V16.0521H96.4872V8.02604ZM104.513 8.02604H112.539V16.0521H104.513V8.02604ZM144.643 8.02604H152.669V16.0521H144.643V8.02604ZM192.8 8.02604H200.826V16.0521H192.8V8.02604ZM0.174805 16.0521H8.20084V24.0781H0.174805V16.0521ZM16.2269 16.0521H24.2529V24.0781H16.2269V16.0521ZM24.2529 16.0521H32.2789V24.0781H24.2529V16.0521ZM32.2789 16.0521H40.305V24.0781H32.2789V16.0521ZM48.331 16.0521H56.3571V24.0781H48.331V16.0521ZM64.3831 16.0521H72.4091V24.0781H64.3831V16.0521ZM72.4091 16.0521H80.4352V24.0781H72.4091V16.0521ZM80.4352 16.0521H88.4612V24.0781H80.4352V16.0521ZM104.513 16.0521H112.539V24.0781H104.513V16.0521ZM112.539 16.0521H120.565V24.0781H112.539V16.0521ZM144.643 16.0521H152.669V24.0781H144.643V16.0521ZM160.696 16.0521H168.722V24.0781H160.696V16.0521ZM168.722 16.0521H176.748V24.0781H168.722V16.0521ZM176.748 16.0521H184.774V24.0781H176.748V16.0521ZM192.8 16.0521H200.826V24.0781H192.8V16.0521ZM0.174805 24.0781H8.20084V32.1041H0.174805V24.0781ZM16.2269 24.0781H24.2529V32.1041H16.2269V24.0781ZM24.2529 24.0781H32.2789V32.1041H24.2529V24.0781ZM32.2789 24.0781H40.305V32.1041H32.2789V24.0781ZM48.331 24.0781H56.3571V32.1041H48.331V24.0781ZM64.3831 24.0781H72.4091V32.1041H64.3831V24.0781ZM72.4091 24.0781H80.4352V32.1041H72.4091V24.0781ZM80.4352 24.0781H88.4612V32.1041H80.4352V24.0781ZM96.4872 24.0781H104.513V32.1041H96.4872V24.0781ZM104.513 24.0781H112.539V32.1041H104.513V24.0781ZM120.565 24.0781H128.591V32.1041H120.565V24.0781ZM128.591 24.0781H136.617V32.1041H128.591V24.0781ZM144.643 24.0781H152.669V32.1041H144.643V24.0781ZM160.696 24.0781H168.722V32.1041H160.696V24.0781ZM168.722 24.0781H176.748V32.1041H168.722V24.0781ZM176.748 24.0781H184.774V32.1041H176.748V24.0781ZM192.8 24.0781H200.826V32.1041H192.8V24.0781ZM0.174805 32.1041H8.20084V40.1302H0.174805V32.1041ZM16.2269 32.1041H24.2529V40.1302H16.2269V32.1041ZM24.2529 32.1041H32.2789V40.1302H24.2529V32.1041ZM32.2789 32.1041H40.305V40.1302H32.2789V32.1041ZM48.331 32.1041H56.3571V40.1302H48.331V32.1041ZM64.3831 32.1041H72.4091V40.1302H64.3831V32.1041ZM88.4612 32.1041H96.4872V40.1302H88.4612V32.1041ZM96.4872 32.1041H104.513V40.1302H96.4872V32.1041ZM104.513 32.1041H112.539V40.1302H104.513V32.1041ZM112.539 32.1041H120.565V40.1302H112.539V32.1041ZM120.565 32.1041H128.591V40.1302H120.565V32.1041ZM128.591 32.1041H136.617V40.1302H128.591V32.1041ZM144.643 32.1041H152.669V40.1302H144.643V32.1041ZM160.696 32.1041H168.722V40.1302H160.696V32.1041ZM168.722 32.1041H176.748V40.1302H168.722V32.1041ZM176.748 32.1041H184.774V40.1302H176.748V32.1041ZM192.8 32.1041H200.826V40.1302H192.8V32.1041ZM0.174805 40.1302H8.20084V48.1562H0.174805V40.1302ZM48.331 40.1302H56.3571V48.1562H48.331V40.1302ZM80.4352 40.1302H88.4612V48.1562H80.4352V40.1302ZM88.4612 40.1302H96.4872V48.1562H88.4612V40.1302ZM112.539 40.1302H120.565V48.1562H112.539V40.1302ZM128.591 40.1302H136.617V48.1562H128.591V40.1302ZM144.643 40.1302H152.669V48.1562H144.643V40.1302ZM192.8 40.1302H200.826V48.1562H192.8V40.1302ZM0.174805 48.1562H8.20084V56.1822H0.174805V48.1562ZM8.20084 48.1562H16.2269V56.1822H8.20084V48.1562ZM16.2269 48.1562H24.2529V56.1822H16.2269V48.1562ZM24.2529 48.1562H32.2789V56.1822H24.2529V48.1562ZM32.2789 48.1562H40.305V56.1822H32.2789V48.1562ZM40.305 48.1562H48.331V56.1822H40.305V48.1562ZM48.331 48.1562H56.3571V56.1822H48.331V48.1562ZM64.3831 48.1562H72.4091V56.1822H64.3831V48.1562ZM80.4352 48.1562H88.4612V56.1822H80.4352V48.1562ZM96.4872 48.1562H104.513V56.1822H96.4872V48.1562ZM112.539 48.1562H120.565V56.1822H112.539V48.1562ZM128.591 48.1562H136.617V56.1822H128.591V48.1562ZM144.643 48.1562H152.669V56.1822H144.643V48.1562ZM152.669 48.1562H160.696V56.1822H152.669V48.1562ZM160.696 48.1562H168.722V56.1822H160.696V48.1562ZM168.722 48.1562H176.748V56.1822H168.722V48.1562ZM176.748 48.1562H184.774V56.1822H176.748V48.1562ZM184.774 48.1562H192.8V56.1822H184.774V48.1562ZM192.8 48.1562H200.826V56.1822H192.8V48.1562ZM80.4352 56.1822H88.4612V64.2083H80.4352V56.1822ZM96.4872 56.1822H104.513V64.2083H96.4872V56.1822ZM120.565 56.1822H128.591V64.2083H120.565V56.1822ZM128.591 56.1822H136.617V64.2083H128.591V56.1822ZM0.174805 64.2083H8.20084V72.2343H0.174805V64.2083ZM8.20084 64.2083H16.2269V72.2343H8.20084V64.2083ZM16.2269 64.2083H24.2529V72.2343H16.2269V64.2083ZM24.2529 64.2083H32.2789V72.2343H24.2529V64.2083ZM48.331 64.2083H56.3571V72.2343H48.331V64.2083ZM64.3831 64.2083H72.4091V72.2343H64.3831V64.2083ZM80.4352 64.2083H88.4612V72.2343H80.4352V64.2083ZM88.4612 64.2083H96.4872V72.2343H88.4612V64.2083ZM96.4872 64.2083H104.513V72.2343H96.4872V64.2083ZM112.539 64.2083H120.565V72.2343H112.539V64.2083ZM120.565 64.2083H128.591V72.2343H120.565V64.2083ZM128.591 64.2083H136.617V72.2343H128.591V64.2083ZM136.617 64.2083H144.643V72.2343H136.617V64.2083ZM160.696 64.2083H168.722V72.2343H160.696V64.2083ZM168.722 64.2083H176.748V72.2343H168.722V64.2083ZM176.748 64.2083H184.774V72.2343H176.748V64.2083ZM192.8 64.2083H200.826V72.2343H192.8V64.2083ZM0.174805 72.2343H8.20084V80.2604H0.174805V72.2343ZM16.2269 72.2343H24.2529V80.2604H16.2269V72.2343ZM24.2529 72.2343H32.2789V80.2604H24.2529V72.2343ZM32.2789 72.2343H40.305V80.2604H32.2789V72.2343ZM40.305 72.2343H48.331V80.2604H40.305V72.2343ZM80.4352 72.2343H88.4612V80.2604H80.4352V72.2343ZM96.4872 72.2343H104.513V80.2604H96.4872V72.2343ZM152.669 72.2343H160.696V80.2604H152.669V72.2343ZM184.774 72.2343H192.8V80.2604H184.774V72.2343ZM16.2269 80.2604H24.2529V88.2864H16.2269V80.2604ZM48.331 80.2604H56.3571V88.2864H48.331V80.2604ZM56.3571 80.2604H64.3831V88.2864H56.3571V80.2604ZM72.4091 80.2604H80.4352V88.2864H72.4091V80.2604ZM80.4352 80.2604H88.4612V88.2864H80.4352V80.2604ZM88.4612 80.2604H96.4872V88.2864H88.4612V80.2604ZM96.4872 80.2604H104.513V88.2864H96.4872V80.2604ZM104.513 80.2604H112.539V88.2864H104.513V80.2604ZM112.539 80.2604H120.565V88.2864H112.539V80.2604ZM128.591 80.2604H136.617V88.2864H128.591V80.2604ZM144.643 80.2604H152.669V88.2864H144.643V80.2604ZM152.669 80.2604H160.696V88.2864H152.669V80.2604ZM32.2789 88.2864H40.305V96.3124H32.2789V88.2864ZM72.4091 88.2864H80.4352V96.3124H72.4091V88.2864ZM80.4352 88.2864H88.4612V96.3124H80.4352V88.2864ZM104.513 88.2864H112.539V96.3124H104.513V88.2864ZM112.539 88.2864H120.565V96.3124H112.539V88.2864ZM120.565 88.2864H128.591V96.3124H120.565V88.2864ZM128.591 88.2864H136.617V96.3124H128.591V88.2864ZM144.643 88.2864H152.669V96.3124H144.643V88.2864ZM160.696 88.2864H168.722V96.3124H160.696V88.2864ZM168.722 88.2864H176.748V96.3124H168.722V88.2864ZM176.748 88.2864H184.774V96.3124H176.748V88.2864ZM0.174805 96.3124H8.20084V104.338H0.174805V96.3124ZM8.20084 96.3124H16.2269V104.338H8.20084V96.3124ZM24.2529 96.3124H32.2789V104.338H24.2529V96.3124ZM32.2789 96.3124H40.305V104.338H32.2789V96.3124ZM48.331 96.3124H56.3571V104.338H48.331V96.3124ZM56.3571 96.3124H64.3831V104.338H56.3571V96.3124ZM72.4091 96.3124H80.4352V104.338H72.4091V96.3124ZM80.4352 96.3124H88.4612V104.338H80.4352V96.3124ZM96.4872 96.3124H104.513V104.338H96.4872V96.3124ZM104.513 96.3124H112.539V104.338H104.513V96.3124ZM112.539 96.3124H120.565V104.338H112.539V96.3124ZM136.617 96.3124H144.643V104.338H136.617V96.3124ZM144.643 96.3124H152.669V104.338H144.643V96.3124ZM160.696 96.3124H168.722V104.338H160.696V96.3124ZM176.748 96.3124H184.774V104.338H176.748V96.3124ZM184.774 96.3124H192.8V104.338H184.774V96.3124ZM192.8 96.3124H200.826V104.338H192.8V96.3124ZM8.20084 104.338H16.2269V112.364H8.20084V104.338ZM16.2269 104.338H24.2529V112.364H16.2269V104.338ZM24.2529 104.338H32.2789V112.364H24.2529V104.338ZM32.2789 104.338H40.305V112.364H32.2789V104.338ZM40.305 104.338H48.331V112.364H40.305V104.338ZM56.3571 104.338H64.3831V112.364H56.3571V104.338ZM72.4091 104.338H80.4352V112.364H72.4091V104.338ZM88.4612 104.338H96.4872V112.364H88.4612V104.338ZM96.4872 104.338H104.513V112.364H96.4872V104.338ZM104.513 104.338H112.539V112.364H104.513V104.338ZM112.539 104.338H120.565V112.364H112.539V104.338ZM120.565 104.338H128.591V112.364H120.565V104.338ZM128.591 104.338H136.617V112.364H128.591V104.338ZM136.617 104.338H144.643V112.364H136.617V104.338ZM144.643 104.338H152.669V112.364H144.643V104.338ZM152.669 104.338H160.696V112.364H152.669V104.338ZM160.696 104.338H168.722V112.364H160.696V104.338ZM192.8 104.338H200.826V112.364H192.8V104.338ZM8.20084 112.364H16.2269V120.391H8.20084V112.364ZM32.2789 112.364H40.305V120.391H32.2789V112.364ZM40.305 112.364H48.331V120.391H40.305V112.364ZM48.331 112.364H56.3571V120.391H48.331V112.364ZM64.3831 112.364H72.4091V120.391H64.3831V112.364ZM88.4612 112.364H96.4872V120.391H88.4612V112.364ZM112.539 112.364H120.565V120.391H112.539V112.364ZM128.591 112.364H136.617V120.391H128.591V112.364ZM136.617 112.364H144.643V120.391H136.617V112.364ZM160.696 112.364H168.722V120.391H160.696V112.364ZM176.748 112.364H184.774V120.391H176.748V112.364ZM184.774 112.364H192.8V120.391H184.774V112.364ZM0.174805 120.391H8.20084V128.417H0.174805V120.391ZM24.2529 120.391H32.2789V128.417H24.2529V120.391ZM32.2789 120.391H40.305V128.417H32.2789V120.391ZM40.305 120.391H48.331V128.417H40.305V120.391ZM64.3831 120.391H72.4091V128.417H64.3831V120.391ZM72.4091 120.391H80.4352V128.417H72.4091V120.391ZM88.4612 120.391H96.4872V128.417H88.4612V120.391ZM128.591 120.391H136.617V128.417H128.591V120.391ZM136.617 120.391H144.643V128.417H136.617V120.391ZM144.643 120.391H152.669V128.417H144.643V120.391ZM152.669 120.391H160.696V128.417H152.669V120.391ZM160.696 120.391H168.722V128.417H160.696V120.391ZM192.8 120.391H200.826V128.417H192.8V120.391ZM32.2789 128.417H40.305V136.443H32.2789V128.417ZM48.331 128.417H56.3571V136.443H48.331V128.417ZM56.3571 128.417H64.3831V136.443H56.3571V128.417ZM64.3831 128.417H72.4091V136.443H64.3831V128.417ZM72.4091 128.417H80.4352V136.443H72.4091V128.417ZM104.513 128.417H112.539V136.443H104.513V128.417ZM112.539 128.417H120.565V136.443H112.539V128.417ZM120.565 128.417H128.591V136.443H120.565V128.417ZM128.591 128.417H136.617V136.443H128.591V128.417ZM136.617 128.417H144.643V136.443H136.617V128.417ZM144.643 128.417H152.669V136.443H144.643V128.417ZM152.669 128.417H160.696V136.443H152.669V128.417ZM160.696 128.417H168.722V136.443H160.696V128.417ZM168.722 128.417H176.748V136.443H168.722V128.417ZM176.748 128.417H184.774V136.443H176.748V128.417ZM184.774 128.417H192.8V136.443H184.774V128.417ZM192.8 128.417H200.826V136.443H192.8V128.417ZM64.3831 136.443H72.4091V144.469H64.3831V136.443ZM80.4352 136.443H88.4612V144.469H80.4352V136.443ZM104.513 136.443H112.539V144.469H104.513V136.443ZM112.539 136.443H120.565V144.469H112.539V136.443ZM128.591 136.443H136.617V144.469H128.591V136.443ZM160.696 136.443H168.722V144.469H160.696V136.443ZM176.748 136.443H184.774V144.469H176.748V136.443ZM192.8 136.443H200.826V144.469H192.8V136.443ZM0.174805 144.469H8.20084V152.495H0.174805V144.469ZM8.20084 144.469H16.2269V152.495H8.20084V144.469ZM16.2269 144.469H24.2529V152.495H16.2269V144.469ZM24.2529 144.469H32.2789V152.495H24.2529V144.469ZM32.2789 144.469H40.305V152.495H32.2789V144.469ZM40.305 144.469H48.331V152.495H40.305V144.469ZM48.331 144.469H56.3571V152.495H48.331V144.469ZM72.4091 144.469H80.4352V152.495H72.4091V144.469ZM104.513 144.469H112.539V152.495H104.513V144.469ZM128.591 144.469H136.617V152.495H128.591V144.469ZM144.643 144.469H152.669V152.495H144.643V144.469ZM160.696 144.469H168.722V152.495H160.696V144.469ZM176.748 144.469H184.774V152.495H176.748V144.469ZM184.774 144.469H192.8V152.495H184.774V144.469ZM192.8 144.469H200.826V152.495H192.8V144.469ZM0.174805 152.495H8.20084V160.521H0.174805V152.495ZM48.331 152.495H56.3571V160.521H48.331V152.495ZM80.4352 152.495H88.4612V160.521H80.4352V152.495ZM88.4612 152.495H96.4872V160.521H88.4612V152.495ZM96.4872 152.495H104.513V160.521H96.4872V152.495ZM112.539 152.495H120.565V160.521H112.539V152.495ZM120.565 152.495H128.591V160.521H120.565V152.495ZM128.591 152.495H136.617V160.521H128.591V152.495ZM160.696 152.495H168.722V160.521H160.696V152.495ZM0.174805 160.521H8.20084V168.547H0.174805V160.521ZM16.2269 160.521H24.2529V168.547H16.2269V160.521ZM24.2529 160.521H32.2789V168.547H24.2529V160.521ZM32.2789 160.521H40.305V168.547H32.2789V160.521ZM48.331 160.521H56.3571V168.547H48.331V160.521ZM72.4091 160.521H80.4352V168.547H72.4091V160.521ZM80.4352 160.521H88.4612V168.547H80.4352V160.521ZM88.4612 160.521H96.4872V168.547H88.4612V160.521ZM128.591 160.521H136.617V168.547H128.591V160.521ZM136.617 160.521H144.643V168.547H136.617V160.521ZM144.643 160.521H152.669V168.547H144.643V160.521ZM152.669 160.521H160.696V168.547H152.669V160.521ZM160.696 160.521H168.722V168.547H160.696V160.521ZM168.722 160.521H176.748V168.547H168.722V160.521ZM192.8 160.521H200.826V168.547H192.8V160.521ZM0.174805 168.547H8.20084V176.573H0.174805V168.547ZM16.2269 168.547H24.2529V176.573H16.2269V168.547ZM24.2529 168.547H32.2789V176.573H24.2529V168.547ZM32.2789 168.547H40.305V176.573H32.2789V168.547ZM48.331 168.547H56.3571V176.573H48.331V168.547ZM64.3831 168.547H72.4091V176.573H64.3831V168.547ZM80.4352 168.547H88.4612V176.573H80.4352V168.547ZM88.4612 168.547H96.4872V176.573H88.4612V168.547ZM104.513 168.547H112.539V176.573H104.513V168.547ZM112.539 168.547H120.565V176.573H112.539V168.547ZM136.617 168.547H144.643V176.573H136.617V168.547ZM144.643 168.547H152.669V176.573H144.643V168.547ZM160.696 168.547H168.722V176.573H160.696V168.547ZM168.722 168.547H176.748V176.573H168.722V168.547ZM176.748 168.547H184.774V176.573H176.748V168.547ZM184.774 168.547H192.8V176.573H184.774V168.547ZM192.8 168.547H200.826V176.573H192.8V168.547ZM0.174805 176.573H8.20084V184.599H0.174805V176.573ZM16.2269 176.573H24.2529V184.599H16.2269V176.573ZM24.2529 176.573H32.2789V184.599H24.2529V176.573ZM32.2789 176.573H40.305V184.599H32.2789V176.573ZM48.331 176.573H56.3571V184.599H48.331V176.573ZM64.3831 176.573H72.4091V184.599H64.3831V176.573ZM72.4091 176.573H80.4352V184.599H72.4091V176.573ZM88.4612 176.573H96.4872V184.599H88.4612V176.573ZM96.4872 176.573H104.513V184.599H96.4872V176.573ZM112.539 176.573H120.565V184.599H112.539V176.573ZM128.591 176.573H136.617V184.599H128.591V176.573ZM136.617 176.573H144.643V184.599H136.617V176.573ZM144.643 176.573H152.669V184.599H144.643V176.573ZM160.696 176.573H168.722V184.599H160.696V176.573ZM176.748 176.573H184.774V184.599H176.748V176.573ZM184.774 176.573H192.8V184.599H184.774V176.573ZM0.174805 184.599H8.20084V192.625H0.174805V184.599ZM48.331 184.599H56.3571V192.625H48.331V184.599ZM64.3831 184.599H72.4091V192.625H64.3831V184.599ZM72.4091 184.599H80.4352V192.625H72.4091V184.599ZM104.513 184.599H112.539V192.625H104.513V184.599ZM136.617 184.599H144.643V192.625H136.617V184.599ZM144.643 184.599H152.669V192.625H144.643V184.599ZM160.696 184.599H168.722V192.625H160.696V184.599ZM176.748 184.599H184.774V192.625H176.748V184.599ZM0.174805 192.625H8.20084V200.651H0.174805V192.625ZM8.20084 192.625H16.2269V200.651H8.20084V192.625ZM16.2269 192.625H24.2529V200.651H16.2269V192.625ZM24.2529 192.625H32.2789V200.651H24.2529V192.625ZM32.2789 192.625H40.305V200.651H32.2789V192.625ZM40.305 192.625H48.331V200.651H40.305V192.625ZM48.331 192.625H56.3571V200.651H48.331V192.625ZM64.3831 192.625H72.4091V200.651H64.3831V192.625ZM104.513 192.625H112.539V200.651H104.513V192.625ZM112.539 192.625H120.565V200.651H112.539V192.625ZM144.643 192.625H152.669V200.651H144.643V192.625ZM152.669 192.625H160.696V200.651H152.669V192.625ZM160.696 192.625H168.722V200.651H160.696V192.625ZM168.722 192.625H176.748V200.651H168.722V192.625ZM176.748 192.625H184.774V200.651H176.748V192.625ZM184.774 192.625H192.8V200.651H184.774V192.625ZM192.8 192.625H200.826V200.651H192.8V192.625Z" fill="white"/>
</svg>
