<svg style="width:0; height:0; visibility: hidden;" xmlns="http://www.w3.org/2000/svg">

    <!-- arrow -->
	<symbol id="svg-right" viewBox="0 0 14 14">
		<g>
			<path d="M0.5 14L5.5 7L0.5 0H2.95L7.95 7L2.95 14H0.5ZM6.45 14L11.45 7L6.45 0H8.9L13.9 7L8.9 14H6.45Z" fill="currentColor" />
		</g>
	</symbol>

	<!-- close -->
	<symbol id="svg-close" viewBox="0 0 40 40">
		<g>
			<path fill-rule="evenodd" clip-rule="evenodd" d="M1.49829 1.49842C1.89673 1.10047 2.43683 0.876953 2.99996 0.876953C3.56309 0.876953 4.10319 1.10047 4.50163 1.49842L38.5016 35.4984C38.7104 35.693 38.8779 35.9276 38.994 36.1882C39.1101 36.4489 39.1726 36.7303 39.1776 37.0156C39.1827 37.3009 39.1302 37.5843 39.0233 37.8489C38.9164 38.1135 38.7574 38.3539 38.5556 38.5557C38.3538 38.7575 38.1134 38.9166 37.8488 39.0234C37.5842 39.1303 37.3008 39.1828 37.0155 39.1778C36.7302 39.1727 36.4488 39.1103 36.1881 38.9941C35.9274 38.878 35.6928 38.7105 35.4983 38.5018L1.49829 4.50175C1.10035 4.10331 0.876831 3.56321 0.876831 3.00008C0.876831 2.43696 1.10035 1.89685 1.49829 1.49842Z" fill="currentColor" />
			<path fill-rule="evenodd" clip-rule="evenodd" d="M38.5016 1.49842C38.8996 1.89685 39.1231 2.43696 39.1231 3.00008C39.1231 3.56321 38.8996 4.10331 38.5016 4.50175L4.50164 38.5018C4.09881 38.8771 3.56601 39.0815 3.01549 39.0717C2.46497 39.062 1.93971 38.839 1.55038 38.4497C1.16104 38.0603 0.938023 37.5351 0.92831 36.9846C0.918596 36.434 1.12294 35.9012 1.4983 35.4984L35.4983 1.49842C35.8967 1.10047 36.4368 0.876953 37 0.876953C37.5631 0.876953 38.1032 1.10047 38.5016 1.49842Z" fill="currentColor" />
		</g>
	</symbol>
</svg>